<svg xmlns="http://www.w3.org/2000/svg" width="66.878" height="77.225" viewBox="0 0 66.878 77.225"><path d="M57.461-1.149c-3.5-1.326-8.561-3.381-23.8-3.644S11.965-2.134,8.8-1.149,0,3.552,0,9.351V56.478s.071,3.81.282,6.176S8.976,68.592,10.7,69.115A88.348,88.348,0,0,0,33.251,72.4a78.306,78.306,0,0,0,23.086-3.284c1.687-.355,9.783-3.088,10.122-5.958s.356-6.68.356-6.68V9.351C66.815,3.552,60.963.176,57.461-1.149Z" transform="translate(0.032 4.81)" fill="#303030"/><g transform="translate(0 14.481)"><path d="M66.878-.287S50.718,6.034,34,6.034,0-.276,0-.276l.022,5.13S17.278,11.225,34,11.225s32.88-6.294,32.88-6.294Z" transform="translate(0 12.643)" fill="#fff"/><path d="M66.878-.287S50.718,6.034,34,6.034,0-.276,0-.276l.022,5.13S17.278,11.225,34,11.225s32.88-6.294,32.88-6.294Z" transform="translate(0 36.329)" fill="#fff"/><path d="M4.877,0H0V18.129H4.877Z" transform="translate(50.159 0)" fill="#fff"/><rect width="6" height="24" transform="translate(26.897 21.224)" fill="#fff"/><path d="M0,0H4.877V17.993s-1.045.3-2.264.61S0,19.223,0,19.223Z" transform="translate(50.159 41.815)" fill="#fff"/></g><ellipse cx="25.5" cy="5.5" rx="25.5" ry="5.5" transform="translate(7.897 6.705)" fill="#fff"/></svg>