<svg xmlns="http://www.w3.org/2000/svg" width="166.783" height="183.551" viewBox="0 0 166.783 183.551"><g transform="translate(98.573 -31.465) rotate(60)"><g transform="matrix(0.391, 0.921, -0.921, 0.391, 97.421, 69.778)" fill="#303030"><path d="M 96.54701232910156 11.31274509429932 C 95.6978759765625 11.1167688369751 90.37773132324219 9.913410186767578 82.77006530761719 8.726724624633789 C 75.13495635986328 7.535764694213867 63.55620956420898 6.116084575653076 51.75399780273438 6.116071224212646 C 45.2201042175293 6.116057872772217 41.14126586914063 6.453711032867432 35.49592971801758 6.92104434967041 C 34.11179733276367 7.03563117980957 32.68055725097656 7.154110908508301 31.0886116027832 7.277911186218262 C 19.07098960876465 8.211152076721191 6.780669689178467 11.0003662109375 5.432943344116211 11.31208038330078 C 2.978619575500488 11.25382900238037 1.00001060962677 9.239188194274902 0.9999974966049194 6.771111011505127 C 0.9999974966049194 4.266484260559082 3.03765082359314 2.228831052780151 5.542263984680176 2.228831052780151 L 5.561624050140381 2.228831052780151 L 5.580997467041016 2.228084564208984 C 5.641690731048584 2.225724458694458 11.83729076385498 1.992257833480835 27.99091720581055 1.926644444465637 C 30.67277145385742 1.915724515914917 35.27461242675781 1.711564421653748 40.14665222167969 1.495417833328247 C 45.63642501831055 1.251871109008789 51.31311798095703 1.000017762184143 54.77443695068359 1.000017762184143 L 54.77458572387695 1.000017762184143 C 77.17743682861328 1.000031113624573 96.74011993408203 3.134577751159668 96.93510437011719 3.156137704849243 L 96.98987579345703 3.162204504013062 L 97.04502105712891 3.162204504013062 C 98.12958526611328 3.162204504013062 98.86931610107422 3.543457746505737 99.37302398681641 4.362017631530762 C 99.85429382324219 5.144124507904053 100.1086807250977 6.336191177368164 100.1086807250977 7.809350967407227 C 100.1086807250977 9.033324241638184 99.81393432617188 9.932830810546875 99.23259735107422 10.48287105560303 C 98.66724395751953 11.01780319213867 97.76411437988281 11.29679298400879 96.54701232910156 11.31274509429932 Z" stroke="none"/><path d="M 54.77458572387695 9.5367431640625e-06 L 54.77458572387695 2.000009536743164 C 51.33588790893555 2.000009536743164 45.67071533203125 2.251338005065918 40.19207382202148 2.49439525604248 C 35.30928802490234 2.711023330688477 30.69727325439453 2.915637969970703 27.99498748779297 2.926637649536133 C 11.86878967285156 2.992137908935547 5.680290222167969 3.224994659423828 5.619789123535156 3.227337837219238 L 5.581031799316406 3.228837966918945 L 5.542259216308594 3.228837966918945 C 3.589042663574219 3.228837966918945 2 4.81789493560791 2 6.771109104156494 C 2 8.655536651611328 3.478988647460938 10.2009973526001 5.337203979492188 10.30751419067383 C 7.264732360839844 9.862033843994141 19.09371185302734 7.206381797790527 31.01108551025391 6.280909061431885 C 32.60063171386719 6.157309055328369 34.03067016601563 6.038923740386963 35.41364288330078 5.924437999725342 C 41.08281707763672 5.455137729644775 45.17887115478516 5.116052150726318 51.75400161743164 5.116066455841064 C 63.62028884887695 5.116080760955811 75.25412750244141 6.542252063751221 82.92418670654297 7.738666534423828 C 90.35422515869141 8.897649765014648 95.484375 10.0421838760376 96.65099334716797 10.31027030944824 C 97.31163787841797 10.29038047790527 98.10765075683594 10.17058849334717 98.54531860351563 9.756481170654297 C 98.91912841796875 9.402780532836914 99.10867309570313 8.747666358947754 99.10867309570313 7.809351921081543 C 99.10867309570313 6.539752006530762 98.90008544921875 5.501580715179443 98.52134704589844 4.886080741882324 C 98.28998565673828 4.510123729705811 97.95101928710938 4.162209510803223 97.04502868652344 4.162209510803223 L 96.93476104736328 4.162209510803223 L 96.82514190673828 4.150080680847168 C 96.63077545166016 4.128581047058105 77.12895965576172 2.000038146972656 54.77458572387695 2.000009536743164 L 54.77458572387695 9.5367431640625e-06 M 54.77458572387695 9.5367431640625e-06 C 77.49783325195313 3.814697265625e-05 97.04502868652344 2.162209510803223 97.04502868652344 2.162209510803223 C 100.1059265136719 2.162209510803223 101.1086730957031 4.748437881469727 101.1086730957031 7.809351921081543 C 101.1086883544922 10.87026596069336 99.49631500244141 12.31346607208252 96.43541717529297 12.31346607208252 C 96.43541717529297 12.31346607208252 74.47728729248047 7.116080760955811 51.75400161743164 7.116066455841064 C 43.66451644897461 7.116052150726318 39.2430305480957 7.64679479598999 31.16614532470703 8.274894714355469 C 18.42487335205078 9.264337539672852 5.542274475097656 12.31338024139404 5.542274475097656 12.31338024139404 C 2.481361389160156 12.31338024139404 0 9.832023620605469 0 6.771109104156494 C 0 3.71019458770752 2.481361389160156 1.228837966918945 5.542259216308594 1.228837966918945 C 5.542259216308594 1.228837966918945 11.61857604980469 0.9931373596191406 27.98686218261719 0.9266519546508789 C 33.65532684326172 0.9035806655883789 48.20755767822266 9.5367431640625e-06 54.77458572387695 9.5367431640625e-06 Z" stroke="none" fill="#fff"/></g><g transform="matrix(-0.966, -0.259, 0.259, -0.966, 93.44, 102.124)" fill="#fff"><path d="M 7.369648456573486 26.84481620788574 C 3.56088399887085 26.75753021240234 0.5000077486038208 24.53036499023438 0.5000077486038208 21.80519104003906 C 0.5000077486038208 19.02486610412598 3.685732841491699 16.76291656494141 7.601507663726807 16.76291656494141 L 7.750982761383057 16.76291656494141 L 7.87595796585083 16.68086624145508 C 7.92723274230957 16.64719009399414 13.09265804290771 13.27334117889404 20.77160835266113 9.746365547180176 C 25.27700805664063 7.677015781402588 29.75346946716309 5.96056604385376 34.07668304443359 4.644690990447998 C 39.47148132324219 3.002665996551514 44.64028167724609 1.983665943145752 49.43949508666992 1.616015911102295 L 49.44378280639648 1.615690946578979 L 49.44804382324219 1.615290880203247 C 51.1361198425293 1.456790924072266 52.59371948242188 1.305028438568115 53.87974548339844 1.171128392219543 C 57.76130676269531 0.7669909000396729 60.32560729980469 0.5000033974647522 64.51924896240234 0.5000033974647522 C 66.33135986328125 0.5000033974647522 68.41990661621094 0.5518034100532532 70.90425872802734 0.6583409309387207 C 81.38109588623047 1.107640862464905 84.92959594726563 1.752578377723694 84.96421051025391 1.759040951728821 L 85.00889587402344 1.767378449440002 L 85.05463409423828 1.767578363418579 C 85.08055877685547 1.767653346061707 87.67784881591797 1.779190897941589 90.34495544433594 2.063591003417969 C 95.11439514160156 2.572153329849243 95.82840728759766 3.474753379821777 95.93363189697266 3.739265918731689 C 96.38055419921875 4.862765789031982 96.3277587890625 6.004641056060791 95.79238128662109 6.793803215026855 C 95.19666290283203 7.671902656555176 94.01805877685547 8.137937545776367 92.38291931152344 8.142186164855957 L 81.30278015136719 7.120366096496582 C 80.93102264404297 7.058349132537842 75.63949584960938 6.198922157287598 68.36629486083984 6.195615768432617 L 68.28409576416016 6.195603370666504 C 60.57904434204102 6.195603370666504 54.21717071533203 6.695678234100342 50.23701858520508 7.115190982818604 C 34.87736892700195 8.869953155517578 24.00967025756836 14.17995357513428 17.59673309326172 18.32559013366699 C 11.39029407501221 22.33772468566895 8.108654022216797 25.97783851623535 7.369648456573486 26.84481620788574 Z" stroke="none"/><path d="M 7.148324966430664 26.33690071105957 C 8.149025917053223 25.19692993164063 11.44171810150146 21.70910453796387 17.32528114318848 17.90568733215332 C 23.7830810546875 13.73106098175049 34.72445678710938 8.384181022644043 50.17592239379883 6.618914127349854 L 50.18026733398438 6.618421077728271 L 50.18461608886719 6.617954254150391 C 54.17672348022461 6.19718074798584 60.55733489990234 5.695607662200928 68.28373718261719 5.695607662200928 L 68.36652374267578 5.695621013641357 C 75.65898895263672 5.698930740356445 80.82518005371094 6.533063411712646 81.36808776855469 6.624268531799316 L 92.40491485595703 7.642086505889893 C 93.85466003417969 7.634258270263672 94.88229370117188 7.244229316711426 95.37840270996094 6.512967586517334 C 95.82014465332031 5.861830234527588 95.85452270507813 4.895664215087891 95.47049713134766 3.927717685699463 C 95.44899749755859 3.892162084579468 94.87710571289063 3.037903547286987 90.18864440917969 2.549887657165527 C 87.58601379394531 2.27898097038269 85.07802581787109 2.267660856246948 85.05300140380859 2.267580986022949 L 84.96153259277344 2.267087459564209 L 84.87271881103516 2.250607490539551 C 84.83818817138672 2.244194269180298 81.29861450195313 1.604567527770996 70.88282775878906 1.157874226570129 C 68.40590667724609 1.051647543907166 66.32440185546875 1.000007510185242 64.51937866210938 1.000007510185242 C 60.3516960144043 1.000007510185242 57.79761505126953 1.26592755317688 53.93152236938477 1.668447613716125 C 52.64432144165039 1.8024742603302 51.18537521362305 1.954367518424988 49.49478912353516 2.11311411857605 L 49.48624038696289 2.113914251327515 L 49.47769546508789 2.114567518234253 C 44.71792221069336 2.479194164276123 39.58874893188477 3.490327596664429 34.23261642456055 5.119887351989746 C 29.93301582336426 6.42800760269165 25.47982788085938 8.13490104675293 20.99677467346191 10.1931676864624 C 13.347975730896 13.70488739013672 8.201428413391113 17.0653133392334 8.150468826293945 17.09876823425293 L 7.900521755218506 17.26291465759277 L 7.601508617401123 17.26291465759277 C 5.781188488006592 17.26291465759277 4.081521987915039 17.7712345123291 2.815575361251831 18.69424819946289 C 1.64478862285614 19.54786109924316 1.000001907348633 20.65268707275391 1.000001907348633 21.80519485473633 C 1.000001907348633 22.95770072937012 1.64478862285614 24.06252670288086 2.815575361251831 24.91614151000977 C 3.975820302963257 25.76208686828613 5.500460624694824 26.25970077514648 7.148324966430664 26.33690071105957 M 7.601508617401123 27.34747505187988 C 3.403308629989624 27.34747505187988 1.936442004080163e-06 24.86611366271973 1.936442004080163e-06 21.80519485473633 C 1.936442004080163e-06 18.7442741394043 3.403308629989624 16.26291465759277 7.601508617401123 16.26291465759277 C 7.601508617401123 16.26291465759277 28.1878547668457 2.742567539215088 49.40130996704102 1.117487549781799 C 56.04814147949219 0.4933793544769287 58.8662109375 6.317850875348086e-06 64.51937866210938 6.317850875348086e-06 C 66.30270385742188 6.317850875348086e-06 68.36923217773438 0.04916080832481384 70.92568206787109 0.1587942391633987 C 81.58613586425781 0.6159809231758118 85.05621337890625 1.26758086681366 85.05621337890625 1.26758086681366 C 85.05621337890625 1.26758086681366 95.50145721435547 1.300154209136963 96.39823150634766 3.554461002349854 C 97.29499053955078 5.808767795562744 96.5584716796875 8.642220497131348 92.3602294921875 8.642207145690918 L 81.23829650878906 7.616540908813477 C 81.23829650878906 7.616540908813477 75.91758728027344 6.699047565460205 68.36606597900391 6.695621013641357 C 68.33841705322266 6.695608139038086 68.31135559082031 6.695601940155029 68.28373718261719 6.695601940155029 C 60.76931381225586 6.695601940155029 54.54140090942383 7.164281368255615 50.2894287109375 7.612447738647461 C 20.74997520446777 10.98720741271973 7.601508617401123 27.34747505187988 7.601508617401123 27.34747505187988 Z" stroke="none" fill="#303030"/></g><g transform="translate(118.632 156.705) rotate(-13)" fill="#303030"><path d="M 9.140578269958496 29.32604598999023 C 8.563778877258301 29.32604598999023 7.790908336639404 28.76713562011719 6.964338302612305 27.75228691101074 C 6.171438694000244 26.77875709533691 5.333988666534424 25.40347671508789 4.475258350372314 23.66462707519531 C 3.050848245620728 20.78034210205078 2.046685218811035 17.84799385070801 1.949516534805298 17.5609188079834 C 1.844609260559082 17.1785888671875 0.4111523628234863 11.83089160919189 1.27133846282959 8.55661678314209 L 1.27198851108551 8.554156303405762 L 1.272618532180786 8.55169677734375 C 1.694058418273926 6.913706302642822 2.918248414993286 4.975096225738525 4.46746826171875 3.492416381835938 C 6.122508525848389 1.908456444740295 7.961128711700439 1.000006437301636 9.51188850402832 1.000006437301636 C 11.58485889434814 0.9999964237213135 13.18150806427002 2.380056381225586 14.15590858459473 3.537786483764648 C 15.52110862731934 5.159836292266846 16.54533767700195 7.36703634262085 17.03993797302246 9.752796173095703 L 17.04054832458496 9.755716323852539 L 17.04116821289063 9.758636474609375 C 17.32914924621582 11.10721683502197 16.62214851379395 14.78867626190186 16.10598182678223 16.8061466217041 C 16.0338020324707 17.04940605163574 15.10178756713867 20.15869140625 13.73531818389893 23.23843574523926 C 12.919358253479 25.07747650146484 12.11384868621826 26.54010581970215 11.34118843078613 27.58569717407227 C 10.53260803222656 28.67989730834961 9.766138076782227 29.29761695861816 9.182958602905273 29.3250560760498 C 9.168888092041016 29.32571601867676 9.154658317565918 29.32604598999023 9.140578269958496 29.32604598999023 Z" stroke="none"/><path d="M 9.51188850402832 2.000005722045898 C 8.216228485107422 2.000005722045898 6.62962818145752 2.807296752929688 5.158888816833496 4.214866638183594 C 3.736728668212891 5.575946807861328 2.618688583374023 7.333196640014648 2.24107837677002 8.800867080688477 L 2.239808082580566 8.8057861328125 L 2.238518714904785 8.810707092285156 C 1.566776275634766 11.36769104003906 2.480574607849121 15.73513126373291 2.905055046081543 17.26495170593262 C 3.031314849853516 17.63641929626465 3.969230651855469 20.35286903381348 5.301748275756836 23.07908630371094 C 7.648351669311523 27.88003540039063 9.024013519287109 28.29874229431152 9.137124061584473 28.32468414306641 C 9.25255012512207 28.29062843322754 10.65236568450928 27.77062225341797 12.88286781311035 22.69332695007324 C 14.16473197937012 19.77541923522949 15.04524421691895 16.8638916015625 15.14187335968018 16.5399055480957 C 15.75226306915283 14.14722633361816 16.27640151977539 10.96582794189453 16.06321907043457 9.967456817626953 L 16.06196784973145 9.961626052856445 L 16.06075859069824 9.955785751342773 C 15.60593795776367 7.761917114257813 14.63278865814209 5.657346725463867 13.39082908630371 4.181716918945313 C 12.55314826965332 3.186426162719727 11.20019912719727 2.000005722045898 9.51188850402832 2.000005722045898 M 9.51188850402832 5.7220458984375e-06 C 13.63309860229492 -3.814697265625e-06 16.97921752929688 4.533676147460938 18.01911926269531 9.549797058105469 C 18.46517944335938 11.63868713378906 17.07018852233887 17.0719165802002 17.07018852233887 17.0719165802002 C 17.07018852233887 17.0719165802002 13.24819850921631 30.13488578796387 9.229958534240723 30.32394599914551 C 9.200283050537109 30.32534217834473 9.170273780822754 30.32604217529297 9.140578269958496 30.32604217529297 C 5.149316787719727 30.32604217529297 0.9931888580322266 17.85447692871094 0.9931888580322266 17.85447692871094 C 0.9931888580322266 17.85447692871094 -0.6654720306396484 11.9933967590332 0.3041591644287109 8.302526473999023 C 1.251869201660156 4.619056701660156 5.545558929443359 5.7220458984375e-06 9.51188850402832 5.7220458984375e-06 Z" stroke="none" fill="#fff"/></g><g transform="matrix(0.574, -0.819, 0.819, 0.574, 87.681, 80.344)" fill="#fff"><path d="M 53.16368103027344 20.29831504821777 C 47.75410461425781 20.29831504821777 41.89472961425781 19.78985214233398 35.74831771850586 18.78706359863281 C 30.82699203491211 17.98415184020996 25.71234130859375 16.86441421508789 20.54642868041992 15.45897674560547 C 11.75156688690186 13.06625175476074 5.79047966003418 10.64585113525391 5.731291770935059 10.62168884277344 L 5.640417098999023 10.58457660675049 L 5.542266845703125 10.58457660675049 C 2.761941909790039 10.58457660675049 0.4999919831752777 8.322627067565918 0.4999919831752777 5.542314052581787 C 0.4999919831752777 2.807467937469482 2.688572883605957 0.5741770267486572 5.406278610229492 0.501846969127655 C 6.043411254882813 0.882860004901886 9.063878059387207 2.655117034912109 13.5399923324585 4.745688915252686 C 18.18511772155762 6.915189266204834 25.40099143981934 9.885514259338379 33.39824295043945 11.71576404571533 C 38.46092987060547 12.8764762878418 43.54926681518555 13.11430168151855 49.63171768188477 13.11428928375244 C 50.58506774902344 13.11428928375244 51.54253005981445 13.10900115966797 52.46847915649414 13.10388946533203 C 53.36779022216797 13.09891414642334 54.2977294921875 13.09377670288086 55.19690322875977 13.09377670288086 C 63.68843078613281 13.09377670288086 71.1029052734375 11.83817672729492 75.82760620117188 10.78486442565918 C 80.95272827148438 9.642276763916016 84.11996459960938 8.480501174926758 84.1513671875 8.468901634216309 L 84.19828033447266 8.451563835144043 L 84.24082946777344 8.425276756286621 C 84.27262878417969 8.405664443969727 87.46531677246094 6.45440149307251 89.97763824462891 6.45440149307251 C 90.10190582275391 6.45440149307251 90.22381591796875 6.459313869476318 90.34000396728516 6.469014167785645 C 91.59609222412109 6.573776721954346 92.61907958984375 7.046938896179199 93.22052001953125 7.801339149475098 C 93.69702911376953 8.399051666259766 93.88946533203125 9.132376670837402 93.77700805664063 9.922039031982422 C 93.73397064208984 10.22421455383301 93.33640289306641 11.0945520401001 90.58119201660156 12.64601421356201 C 88.98741912841797 13.54346370697021 87.40254211425781 14.2105770111084 87.38671875 14.21720123291016 L 87.35731506347656 14.22952651977539 L 87.32968139648438 14.24551391601563 C 87.30376434326172 14.26043891906738 84.64061737060547 15.77536392211914 79.12250518798828 17.27103996276855 C 75.88065338134766 18.14973831176758 72.30252838134766 18.84990119934082 68.48755645751953 19.35207748413086 C 63.71762847900391 19.97995185852051 58.56192779541016 20.29831504821777 53.16368103027344 20.29831504821777 Z" stroke="none"/><path d="M 53.16368103027344 19.79831504821777 C 58.5238037109375 19.79831504821777 63.64301681518555 19.48330116271973 68.37910461425781 18.86202621459961 C 72.16607666015625 18.3652515411377 75.71788024902344 17.67268943786621 78.93586730957031 16.80355072021484 C 84.4117431640625 15.32460117340088 87.05470275878906 13.82682704925537 87.07935333251953 13.81267642974854 L 87.1346435546875 13.78073883056641 L 87.19335174560547 13.75611400604248 C 87.20897674560547 13.74955177307129 88.77420806884766 13.09037685394287 90.34303283691406 12.20630168914795 C 93.14145660400391 10.62931442260742 93.28091430664063 9.859139442443848 93.28199005126953 9.85155200958252 C 93.37456512451172 9.201576232910156 93.21810150146484 8.600401878356934 92.82955169677734 8.11302661895752 C 92.3148193359375 7.467389106750488 91.41591644287109 7.060489177703857 90.29846954345703 6.967276573181152 C 90.19599151611328 6.958739280700684 90.08804321289063 6.95440149307251 89.97763824462891 6.95440149307251 C 87.61045074462891 6.95440149307251 84.53380584716797 8.832063674926758 84.50360107421875 8.850651741027832 L 84.41850280761719 8.903226852416992 L 84.32467651367188 8.937901496887207 C 84.19520568847656 8.985751152038574 81.09441375732422 10.12296390533447 75.9364013671875 11.27287673950195 C 71.18719482421875 12.33166408538818 63.73392868041992 13.59377670288086 55.19690322875977 13.59377670288086 C 54.29917907714844 13.59377670288086 53.37002944946289 13.59891414642334 52.47145462036133 13.60387706756592 C 51.54476547241211 13.60898876190186 50.58652877807617 13.61428928375244 49.63171768188477 13.61428928375244 C 43.51530456542969 13.61430168151855 38.39495468139648 13.37432670593262 33.28670501708984 12.20316410064697 C 25.24659156799316 10.36310195922852 17.99551773071289 7.378476619720459 13.32840442657471 5.198714256286621 C 9.029285430908203 3.190810918807983 6.131711959838867 1.51519763469696 5.277542591094971 1.007663488388062 C 2.895585060119629 1.1451495885849 0.9999919533729553 3.126506567001343 0.9999919533729553 5.542314052581787 C 0.9999919533729553 8.046926498413086 3.037642002105713 10.08457660675049 5.542266845703125 10.08457660675049 L 5.738579273223877 10.08457660675049 L 5.92031717300415 10.15878868103027 C 5.979217052459717 10.18285179138184 11.91196727752686 12.59171390533447 20.67769241333008 14.97651386260986 C 25.82694244384766 16.37742614746094 30.92453002929688 17.49345207214355 35.82883071899414 18.29358863830566 C 41.94870376586914 19.29205131530762 47.78099060058594 19.79831504821777 53.16368103027344 19.79831504821777 M 53.16368103027344 20.79831504821777 C 29.32954216003418 20.79831504821777 5.542266845703125 11.08457660675049 5.542266845703125 11.08457660675049 C 2.481354475021362 11.08457660675049 -8.026123396120965e-06 8.603226661682129 -8.026123396120965e-06 5.542314052581787 C -8.026123396120965e-06 2.481401681900024 2.481354475021362 3.90975947084371e-05 5.542266845703125 3.90975947084371e-05 C 5.542266845703125 3.90975947084371e-05 18.11124229431152 7.704251766204834 33.50979232788086 11.22836399078369 C 38.85239410400391 12.45324802398682 44.34497833251953 12.61430263519287 49.6317138671875 12.61429405212402 C 51.5182991027832 12.61429023742676 53.37907028198242 12.59377670288086 55.19690322875977 12.59377670288086 C 71.54714202880859 12.59377670288086 83.97804260253906 7.99990177154541 83.97804260253906 7.99990177154541 C 83.97804260253906 7.99990177154541 87.28916931152344 5.954404354095459 89.97763824462891 5.954404354095459 C 90.114013671875 5.954404354095459 90.24890899658203 5.95967435836792 90.38156890869141 5.970738887786865 C 93.12936401367188 6.199926376342773 94.55699157714844 7.991451740264893 94.27200317382813 9.992539405822754 C 93.98700714111328 11.99363899230957 87.57999420166016 14.6783390045166 87.57999420166016 14.6783390045166 C 87.57999420166016 14.6783390045166 76.99783325195313 20.79831504821777 53.16368103027344 20.79831504821777 Z" stroke="none" fill="#303030"/></g><g transform="translate(74.962 103.994) rotate(-139)" fill="#fff"><path d="M 3.295076847076416 31.8326301574707 C 3.045094728469849 31.74612617492676 2.352570533752441 31.48411750793457 1.716038107872009 31.03899765014648 C 0.7608492374420166 30.37105369567871 0.3659048080444336 29.60840797424316 0.5421603918075562 28.77224159240723 C 0.9533159136772156 26.82176399230957 4.415071487426758 23.60801887512207 5.714238166809082 22.53429794311523 L 5.746249198913574 22.50784111022949 L 5.773460388183594 22.47647476196289 C 5.814349174499512 22.42941856384277 9.975127220153809 17.7030200958252 18.21054840087891 13.52743053436279 C 19.1567268371582 13.0465087890625 20.06767082214355 12.56648635864258 20.94861602783203 12.10226440429688 C 25.99465942382813 9.443219184875488 30.76087188720703 6.931630611419678 41.85570526123047 4.313430786132813 C 54.05057144165039 1.435630679130554 56.66777038574219 1.270275115966797 64.43687438964844 0.7793973088264465 C 65.00217437744141 0.7436861991882324 65.59477996826172 0.7062417268753052 66.22029113769531 0.6659306287765503 C 67.92870330810547 0.5558305978775024 69.47184753417969 0.5000084042549133 70.80684661865234 0.5000084042549133 C 73.50493621826172 0.5000084042549133 75.48862457275391 0.7208306193351746 76.87126922607422 1.175119519233704 C 78.01096343994141 1.549575090408325 78.74263763427734 2.079352855682373 79.17389678955078 2.842375040054321 C 79.48182678222656 3.387186288833618 79.93132781982422 4.416141510009766 79.48206329345703 5.186130523681641 C 79.06981658935547 5.892674922943115 77.95561218261719 6.266130447387695 76.25992584228516 6.266130447387695 L 76.21624755859375 6.266130447387695 L 76.17320251464844 6.273708343505859 C 76.11956024169922 6.283153057098389 70.71195983886719 7.226008415222168 62.36090469360352 7.899663925170898 C 53.54426193237305 8.610875129699707 50.42636108398438 9.113663673400879 40.02315902709961 12.42671966552734 L 38.85323715209961 12.7991418838501 C 29.25296020507813 15.85458660125732 25.66079330444336 16.99785232543945 20.62080574035645 19.92645263671875 C 15.08418273925781 23.13534164428711 10.44923782348633 26.94956398010254 8.162582397460938 29.24074172973633 C 6.084929466247559 31.31135559082031 3.789305925369263 31.75805473327637 3.295076847076416 31.8326301574707 Z" stroke="none"/><path d="M 3.343335628509521 31.3187427520752 C 3.962979555130005 31.20866203308105 5.963857173919678 30.72611045837402 7.808682441711426 28.88753128051758 C 10.11672687530518 26.57491874694824 14.79153823852539 22.72704124450684 20.36959457397461 19.49413108825684 C 25.45696067810059 16.53801918029785 29.0633373260498 15.39023017883301 38.70160293579102 12.32268619537354 L 39.87143707275391 11.95029735565186 C 50.32411575317383 8.621485710144043 53.45784759521484 8.116219520568848 62.32070541381836 7.401275157928467 C 70.64399719238281 6.729864120483398 76.03307342529297 5.790686130523682 76.08652496337891 5.781275272369385 L 76.172607421875 5.766130447387695 L 76.25992584228516 5.766130447387695 C 77.72468566894531 5.766130447387695 78.74169158935547 5.462886333465576 79.05019378662109 4.934153079986572 C 79.28290557861328 4.535319328308105 79.16642761230469 3.845319509506226 78.73861694335938 3.088397264480591 C 78.18906402587891 2.11608624458313 76.79086303710938 1.000008344650269 70.80684661865234 1.000008344650269 C 69.48250579833984 1.000008344650269 67.95018005371094 1.05548620223999 66.25244903564453 1.164897322654724 C 65.62672424316406 1.205219507217407 65.03389739990234 1.242675065994263 64.46840667724609 1.278408408164978 C 56.73085021972656 1.76728618144989 54.12427139282227 1.931975126266479 41.97055053710938 4.800064086914063 C 30.93764877319336 7.403641700744629 26.19880485534668 9.900819778442383 21.18170547485352 12.5446081161499 C 20.29916000366211 13.00967502593994 19.38657188415527 13.49057483673096 18.43666076660156 13.97338581085205 C 10.30268287658691 18.09753036499023 6.191093921661377 22.75825309753418 6.151193618774414 22.80405235290527 L 6.096782684326172 22.86679649353027 L 6.032771587371826 22.91970825195313 C 4.278960227966309 24.36917495727539 1.370282649993896 27.26779747009277 1.031415939331055 28.87537574768066 C 0.9829270243644714 29.10540771484375 0.8353603482246399 29.8054084777832 1.98647153377533 30.6179313659668 C 2.497671604156494 30.97876358032227 3.056160926818848 31.21192169189453 3.343335628509521 31.3187427520752 M 3.246771574020386 32.34323120117188 C 3.246771574020386 32.34323120117188 -0.4843285083770752 31.21769714355469 0.05291592702269554 28.66910934448242 C 0.5901492834091187 26.12051963806152 5.395715713500977 22.14888572692871 5.395715713500977 22.14888572692871 C 5.395715713500977 22.14888572692871 9.550871849060059 17.35753059387207 17.98443794250488 13.08147525787354 C 24.29059410095215 9.876241683959961 28.62371635437012 6.92223072052002 41.74087142944336 3.826797246932983 C 54.85802841186523 0.7313528656959534 56.8800163269043 0.7668306231498718 66.18814086914063 0.1669639497995377 C 67.94192504882813 0.05393975973129272 69.47125244140625 3.88624403058202e-06 70.80684661865234 3.88624403058202e-06 C 76.559814453125 3.88624403058202e-06 78.70774841308594 1.001472115516663 79.60918426513672 2.596352815628052 C 80.71989440917969 4.561508178710938 80.45810699462891 6.766130447387695 76.25992584228516 6.766130447387695 C 76.25992584228516 6.766130447387695 70.87686920166016 7.714330673217773 62.40110397338867 8.398041725158691 C 53.92537307739258 9.081752777099609 50.7920036315918 9.521964073181152 40.17488098144531 12.90314197540283 C 29.55774879455566 16.2843074798584 26.06007194519043 17.34413146972656 20.87200546264648 20.3587646484375 C 15.20192718505859 23.6450080871582 10.6082935333252 27.49799728393555 8.516482353210449 29.59394264221191 C 6.030127048492432 32.0718879699707 3.246771574020386 32.34323120117188 3.246771574020386 32.34323120117188 Z" stroke="none" fill="#303030"/></g><g transform="matrix(-0.53, -0.848, 0.848, -0.53, 77.39, 96.735)" fill="#fff"><path d="M 3.517853260040283 31.31997299194336 C 2.235001087188721 31.29721450805664 1.409269690513611 31.08199882507324 0.9973812699317932 30.66397285461426 C 0.4725912511348724 30.1313533782959 0.4870312511920929 29.15603446960449 0.5070112347602844 27.80614280700684 C 0.5109812617301941 27.53784370422363 0.5150912404060364 27.26040267944336 0.5150912404060364 26.96861267089844 C 0.5150912404060364 26.7278938293457 0.5128012895584106 26.49347305297852 0.5105812549591064 26.26676368713379 C 0.4962412714958191 24.79921340942383 0.4849112629890442 23.64006423950195 1.109321236610413 23.00952339172363 C 1.582041263580322 22.53215408325195 2.474691152572632 22.30010414123535 3.838281154632568 22.30010414123535 L 4.095561027526855 22.30010414123535 L 4.245121479034424 22.09076309204102 C 4.252921104431152 22.07989311218262 5.07793140411377 20.94098281860352 6.906041145324707 19.30276298522949 C 8.593491554260254 17.79060363769531 11.5051212310791 15.53165340423584 15.79329109191895 13.3574333190918 C 16.73947143554688 12.87652397155762 17.65041160583496 12.39649391174316 18.53135108947754 11.93227386474609 C 23.57740211486816 9.273223876953125 28.3436107635498 6.761633396148682 39.43844985961914 4.143423557281494 C 49.6451301574707 1.734813570976257 49.93202972412109 1.7110835313797 53.44438171386719 1.420543551445007 C 54.4550895690918 1.336943507194519 55.71296310424805 1.232893586158752 57.53326034545898 1.047553539276123 C 61.05133056640625 0.6893435716629028 64.47213745117188 0.5000035762786865 67.42587280273438 0.5000035762786865 C 70.03939056396484 0.5000035762786865 71.72428894042969 0.6469835638999939 72.37302398681641 0.7728535532951355 L 72.37693786621094 0.7736135721206665 L 72.38087463378906 0.7743035554885864 C 75.33290100097656 1.298303604125977 77.1622314453125 2.369723558425903 77.27433013916016 3.640353679656982 C 77.34423828125 4.432723522186279 77.19554138183594 4.999733448028564 76.80635070800781 5.424763679504395 C 76.1927490234375 6.09489631652832 74.94203186035156 6.435790538787842 73.0888671875 6.438071727752686 C 72.94327545166016 6.427353858947754 72.07353210449219 6.368293762207031 70.58739471435547 6.368293762207031 C 67.85887145996094 6.368293762207031 63.44843292236328 6.565223693847656 57.93202972412109 7.503403663635254 C 56.60954284667969 7.728323459625244 55.46110153198242 7.917493343353271 54.44785308837891 8.084393501281738 C 48.49599075317383 9.064783096313477 46.69969940185547 9.360663414001465 37.60591125488281 12.25672340393066 L 36.43592071533203 12.62916374206543 C 26.83567047119141 15.68460369110107 23.24352073669434 16.8278636932373 18.20354080200195 19.75645446777344 C 12.97345161437988 22.78769302368164 9.223081588745117 25.81399345397949 6.997971057891846 27.81893348693848 C 5.049399375915527 29.57467651367188 3.912837743759155 30.85512924194336 3.517853260040283 31.31997299194336 Z" stroke="none"/><path d="M 3.294309377670288 30.81375694274902 C 3.802508354187012 30.23169326782227 4.911263465881348 29.0261173248291 6.663269996643066 27.44748115539551 C 8.906081199645996 25.42659187316895 12.68539237976074 22.37673568725586 17.95233726501465 19.32412528991699 C 23.03969192504883 16.3680248260498 26.64605903625488 15.22023582458496 36.28429412841797 12.15270233154297 L 37.45419311523438 11.78029155731201 C 46.58258056640625 8.873213768005371 48.38718032836914 8.575968742370605 54.36656951904297 7.591046810150146 C 55.37922668457031 7.424235820770264 56.52698135375977 7.235180377960205 57.84819412231445 7.010480403900146 C 63.39899063110352 6.066446781158447 67.83963775634766 5.86829137802124 70.58744049072266 5.86829137802124 C 72.03138732910156 5.86829137802124 72.906982421875 5.923890590667725 73.10633087158203 5.93803596496582 C 75.21912384033203 5.9328293800354 76.08414459228516 5.473110198974609 76.43759155273438 5.08710241317749 C 76.61866760253906 4.889358043670654 76.85078430175781 4.528791427612305 76.77626800537109 3.684291362762451 C 76.68795776367188 2.683302402496338 74.92835998535156 1.734302401542664 72.29349517822266 1.266613602638245 L 72.28563690185547 1.26521360874176 L 72.27779388427734 1.263702392578125 C 71.65081787109375 1.14205801486969 70.00390625 1.000002503395081 67.42589569091797 1.000002503395081 C 65.37776947021484 1.000002503395081 62.00772476196289 1.094546914100647 57.58391571044922 1.54498028755188 C 55.75891494750977 1.730802416801453 54.4984245300293 1.835069060325623 53.48561477661133 1.918846845626831 C 49.93610382080078 2.212457895278931 49.72361373901367 2.230035781860352 39.55329132080078 4.630069255828857 C 28.5203914642334 7.233646869659424 23.78154754638672 9.73082447052002 18.76444816589355 12.37461376190186 C 17.88190269470215 12.83968067169189 16.96931457519531 13.32058048248291 16.0194034576416 13.803391456604 C 11.79929256439209 15.94310283660889 8.932892799377441 18.16208076477051 7.271403312683105 19.64679145812988 C 5.471636772155762 21.25505828857422 4.658681392669678 22.37211418151855 4.65195894241333 22.38141441345215 L 4.352803707122803 22.80010223388672 L 3.838248014450073 22.80010223388672 C 2.632270097732544 22.80010223388672 1.833770155906677 22.98894691467285 1.464947938919067 23.36137962341309 C 0.9870256781578064 23.84396934509277 0.9974257349967957 24.91151428222656 1.010581254959106 26.26308059692383 C 1.012803435325623 26.49060249328613 1.015092372894287 26.72587966918945 1.015092372894287 26.96861267089844 C 1.015092372894287 27.26410293579102 1.010959029197693 27.54342460632324 1.006959080696106 27.81354713439941 C 0.9894590377807617 28.99573516845703 0.9756368398666382 29.92950248718262 1.353547930717468 30.31303596496582 C 1.644140362739563 30.60796546936035 2.296081304550171 30.77592658996582 3.294309377670288 30.81375694274902 M 3.750570058822632 31.82199096679688 C -0.4476187229156494 31.82199096679688 0.01510348450392485 30.0295238494873 0.01509237289428711 26.96861267089844 C 0.01509237289428711 23.9077033996582 -0.3599076271057129 21.80009078979492 3.838281154632568 21.80010223388672 C 3.838281154632568 21.80010223388672 7.133614540100098 17.18753623962402 15.56718158721924 12.91147994995117 C 21.87333679199219 9.706247329711914 26.20645904541016 6.752235889434814 39.32361602783203 3.656802415847778 C 52.44078063964844 0.5613580346107483 49.19644927978516 1.393824696540833 57.48261642456055 0.5501246452331543 C 61.54831314086914 0.1361589133739471 64.90202331542969 6.834581199655076e-06 67.42589569091797 6.834581199655076e-06 C 70.04583740234375 6.834581199655076e-06 71.77151489257813 0.1468240469694138 72.46826171875 0.2820024490356445 C 75.45604705810547 0.8123357892036438 77.62621307373047 1.939402461051941 77.77239990234375 3.596413612365723 C 77.91859436035156 5.253413677215576 77.26834869384766 6.938080310821533 73.07015991210938 6.938080310821533 C 73.07015991210938 6.938080310821533 72.18582153320313 6.868290424346924 70.58744049072266 6.868290424346924 C 68.01178741455078 6.868290424346924 63.58255004882813 7.049595355987549 58.0158576965332 7.99632453918457 C 48.99459075927734 9.530580520629883 48.37475967407227 9.351958274841309 37.75763702392578 12.73313617706299 C 27.1404914855957 16.11431312561035 23.64281463623047 17.17413520812988 18.45474815368652 20.18875885009766 C 8.401425361633301 26.01544761657715 3.750570058822632 31.82199096679688 3.750570058822632 31.82199096679688 Z" stroke="none" fill="#303030"/></g><g transform="matrix(-0.438, -0.899, 0.899, -0.438, 89.954, 81.54)" fill="#fff"><path d="M 12.46422386169434 8.091955184936523 C 12.46405506134033 8.091955184936523 12.46390056610107 8.091955184936523 12.46373271942139 8.091955184936523 C 9.299322128295898 8.091915130615234 7.399222373962402 7.86831521987915 7.380402088165283 7.866055011749268 L 7.350722312927246 7.862495422363281 L 7.320722103118896 7.862485408782959 C 2.348612308502197 7.862485408782959 0.5000022649765015 7.030275344848633 0.5000022649765015 4.791924953460693 C 0.5000022649765015 3.519375085830688 1.150092244148254 2.50682520866394 2.432202339172363 1.782405138015747 C 3.687862157821655 1.072935223579407 5.447582244873047 0.697935163974762 7.521132469177246 0.697935163974762 C 7.664132118225098 0.697935163974762 11.06815242767334 0.701255202293396 16.33055305480957 0.9901952147483826 C 18.89737319946289 1.131465196609497 21.94868278503418 1.19725513458252 25.9331226348877 1.19725513458252 C 28.33843231201172 1.19725513458252 30.83782196044922 1.173695206642151 33.25492095947266 1.150905132293701 C 35.60983276367188 1.128705143928528 38.044921875 1.105745196342468 40.32783126831055 1.105745196342468 C 55.20471572875977 1.105745196342468 62.39330291748047 0.5371162295341492 62.84517669677734 0.5000145435333252 C 65.06784820556641 0.5020149350166321 67.07574462890625 0.8242375254631042 68.50062561035156 1.407855153083801 C 70.09744262695313 2.061885118484497 70.9071044921875 2.996595144271851 70.9071044921875 4.186005115509033 C 70.9071044921875 7.412149906158447 65.59246063232422 7.765186786651611 63.29380798339844 7.766341686248779 C 62.94630813598633 7.750852584838867 55.31418991088867 7.419715404510498 40.30502319335938 7.419715404510498 C 31.55016136169434 7.419715404510498 22.50279235839844 7.62944507598877 16.69297218322754 7.967055320739746 C 15.26343631744385 8.049935340881348 13.84065723419189 8.091955184936523 12.46422386169434 8.091955184936523 Z" stroke="none"/><path d="M 12.46428203582764 7.591955184936523 C 13.8310718536377 7.591955184936523 15.24410247802734 7.550215244293213 16.66397285461426 7.467895030975342 C 22.48271179199219 7.129765033721924 31.54119300842285 6.919715404510498 40.30502319335938 6.919715404510498 C 55.18059921264648 6.919715404510498 62.82078552246094 7.244992733001709 63.30472946166992 7.266335487365723 C 65.47013092041016 7.264420032501221 67.27655792236328 6.983306884765625 68.52946472167969 6.453085422515869 C 70.21246337890625 5.74085521697998 70.4071044921875 4.818115234375 70.4071044921875 4.186005115509033 C 70.4071044921875 3.700845241546631 70.24423980712891 3.281885147094727 69.90921020507813 2.905185222625732 C 69.55638885498047 2.508475303649902 69.01871490478516 2.160365104675293 68.31111145019531 1.870545148849487 C 66.94904327392578 1.312660098075867 65.01636505126953 1.003864884376526 62.8651008605957 1.000041604042053 C 62.23234558105469 1.0511714220047 55.01774597167969 1.605745196342468 40.32783126831055 1.605745196342468 C 38.04731369018555 1.605745196342468 35.61346054077148 1.628695130348206 33.25974273681641 1.650885224342346 C 30.8414421081543 1.673675179481506 28.34082221984863 1.69725513458252 25.93311309814453 1.69725513458252 C 21.93930244445801 1.69725513458252 18.8792724609375 1.631215214729309 16.30314254760742 1.489445209503174 C 11.05429267883301 1.201245188713074 7.663572311401367 1.197935223579407 7.521132469177246 1.197935223579407 C 5.562002182006836 1.197935223579407 3.84206223487854 1.560105204582214 2.678162336349487 2.217725276947021 C 1.548932194709778 2.855765104293823 1.000002264976501 3.697785139083862 1.000002264976501 4.791924953460693 C 1.000002264976501 5.811315059661865 1.420082211494446 6.391245365142822 2.449952363967896 6.793615341186523 C 3.740472316741943 7.297825336456299 5.73087215423584 7.362485408782959 7.320722103118896 7.362485408782959 L 7.380722045898438 7.362534999847412 L 7.439852237701416 7.36960506439209 C 7.458452224731445 7.371825218200684 9.33580207824707 7.591915130615234 12.46408271789551 7.591955184936523 L 12.46428203582764 7.591955184936523 M 12.46373176574707 8.591950416564941 C 9.225679397583008 8.5919189453125 7.320722103118896 8.362484931945801 7.320722103118896 8.362484931945801 C 3.122522354125977 8.362484931945801 2.24609379984031e-06 7.852845191955566 2.24609379984031e-06 4.791924953460693 C 2.24609379984031e-06 1.731015205383301 3.322932243347168 0.1979351937770844 7.521132469177246 0.1979351937770844 C 7.521132469177246 0.1979351937770844 7.521352767944336 0.1979351490736008 7.521803379058838 0.1979351490736008 C 7.577300071716309 0.1979351490736008 11.04286193847656 0.1991154551506042 16.35796165466309 0.4909451901912689 C 19.25993156433105 0.6506593823432922 22.53192138671875 0.6972590088844299 25.9331169128418 0.6972572803497314 C 30.69917869567871 0.6972547769546509 35.71876907348633 0.6057451963424683 40.32783126831055 0.6057451963424683 C 55.78423309326172 0.6057451963424683 62.82453155517578 5.189666808291804e-06 62.82453155517578 5.189666808291804e-06 C 67.02271270751953 5.189666808291804e-06 71.4071044921875 1.125085234642029 71.4071044921875 4.186005115509033 C 71.4071044921875 7.246915340423584 67.4808349609375 8.266345024108887 63.28263092041016 8.266345024108887 C 63.28263092041016 8.266345024108887 55.76141357421875 7.919715404510498 40.30502319335938 7.919715404510498 C 40.30449295043945 7.919715404510498 40.3049201965332 7.919715404510498 40.30438995361328 7.919715404510498 C 31.61838722229004 7.919715404510498 22.5783748626709 8.125895500183105 16.72198295593262 8.466215133666992 C 15.12918090820313 8.558555603027344 13.69964122772217 8.591962814331055 12.46373176574707 8.591950416564941 Z" stroke="none" fill="#303030"/></g><g transform="translate(93.619 82.075) rotate(-81)" fill="#fff"><path d="M 48.79411315917969 18.54445648193359 C 44.13816833496094 18.54445648193359 39.08522415161133 18.12799072265625 33.7756233215332 17.30660247802734 C 29.52392387390137 16.64888000488281 25.09971237182617 15.73161315917969 20.62590026855469 14.58027935028076 C 13.00942325592041 12.62020111083984 7.832612037658691 10.63774585723877 7.781211853027344 10.61795711517334 L 7.694467544555664 10.58454608917236 L 7.60151195526123 10.58454608917236 C 5.67613410949707 10.58454608917236 3.871845245361328 10.04214572906494 2.521000862121582 9.057246208190918 C 1.217734217643738 8.107034683227539 0.5000008344650269 6.858723640441895 0.5000008344650269 5.542279243469238 C 0.5000008344650269 2.793860197067261 3.612843751907349 0.5519829392433167 7.466818332672119 0.5008954405784607 C 8.254488945007324 0.960386335849762 12.7611083984375 3.528741359710693 19.29962348937988 6.061623573303223 C 25.92876815795898 8.629612922668457 36.07267761230469 11.69076824188232 46.75201034545898 11.69076824188232 C 58.39306640625 11.69076824188232 59.48233413696289 11.58404636383057 62.71577835083008 11.26723480224609 C 63.80864715576172 11.16016864776611 65.16875457763672 11.02690124511719 67.28948211669922 10.86625671386719 C 70.34941101074219 10.63446807861328 72.42371368408203 10.31111240386963 74.09044647216797 10.05127906799316 C 75.46333312988281 9.837267875671387 76.45526885986328 9.682635307312012 77.37477111816406 9.682635307312012 C 78.33484649658203 9.682635307312012 79.18423461914063 9.85667896270752 80.21489715576172 10.2645902633667 C 81.63763427734375 10.82767963409424 82.45584869384766 11.54839038848877 82.58106994628906 12.348801612854 C 82.68595886230469 13.01919078826904 82.28910064697266 13.77875709533691 81.49227905273438 14.43272399902344 C 81.41850280761719 14.49327945709229 81.34664154052734 14.5527458190918 81.27605438232422 14.61116790771484 C 79.77558135986328 15.85290145874023 78.86990356445313 16.60241317749023 71.05921173095703 17.46810150146484 C 68.82647705078125 17.71556854248047 67.67452239990234 17.90543556213379 66.7489013671875 18.05799102783203 C 64.30587768554688 18.46065711975098 63.79747772216797 18.54445648193359 48.79411315917969 18.54445648193359 Z" stroke="none"/><path d="M 48.79411315917969 18.04445648193359 C 63.75654602050781 18.04445648193359 64.25798797607422 17.96181297302246 66.66758728027344 17.56465721130371 C 67.59902191162109 17.41113471984863 68.75823211669922 17.22006797790527 71.00413513183594 16.97114562988281 C 74.68593597412109 16.56307983398438 76.97811126708984 16.16761207580566 78.43637084960938 15.68887901306152 C 79.68476867675781 15.27904605865479 80.19100189208984 14.8601016998291 80.957275390625 14.22596836090088 C 81.02838134765625 14.16711235046387 81.10075378417969 14.10722351074219 81.17507934570313 14.04623508453369 C 81.82181549072266 13.51543521881104 82.16275787353516 12.90977954864502 82.08708190917969 12.42609024047852 C 81.99351501464844 11.82802391052246 81.24405670166016 11.20964622497559 80.03089141845703 10.72950172424316 C 79.0623779296875 10.34617900848389 78.26802062988281 10.18263530731201 77.37477111816406 10.18263530731201 C 76.49401092529297 10.18263530731201 75.51811981201172 10.33476829528809 74.16744232177734 10.54532337188721 C 72.58041381835938 10.79272365570068 70.40687561035156 11.13154602050781 67.32724761962891 11.36483478546143 C 65.21202087402344 11.52505683898926 63.85495758056641 11.65802383422852 62.76453399658203 11.76485729217529 C 59.51290130615234 12.08344650268555 58.41751098632813 12.19076824188232 46.75201034545898 12.19076824188232 C 35.99543380737305 12.19076824188232 25.78791236877441 9.111257553100586 19.1190128326416 6.527868270874023 C 12.74930763244629 4.060379981994629 8.402933120727539 1.622841954231262 7.335560321807861 1.003632187843323 C 5.616172790527344 1.050692319869995 4.019631385803223 1.553449034690857 2.815567493438721 2.431334972381592 C 1.644778609275818 3.28495717048645 1.000000834465027 4.389779567718506 1.000000834465027 5.542279243469238 C 1.000000834465027 6.694779396057129 1.644778609275818 7.799601554870605 2.815567493438721 8.653223991394043 C 4.081522941589355 9.576234817504883 5.781200885772705 10.08454608917236 7.60151195526123 10.08454608917236 L 7.787412166595459 10.08454608917236 L 7.960900783538818 10.15135669708252 C 8.01203441619873 10.17104625701904 13.16176795959473 12.1431131362915 20.75052261352539 14.09605693817139 C 25.20849990844727 15.24331283569336 29.61650085449219 16.15724563598633 33.85205459594727 16.81247901916504 C 39.13644409179688 17.62996864318848 44.16367721557617 18.04445648193359 48.79411315917969 18.04445648193359 M 48.79411315917969 19.04445648193359 C 28.27005577087402 19.04446792602539 7.60151195526123 11.08454608917236 7.60151195526123 11.08454608917236 C 3.403311967849731 11.08455753326416 8.402506637139595e-07 8.603190422058105 8.402506637139595e-07 5.542279243469238 C 8.402506637139595e-07 2.48136830329895 3.403311967849731 1.583353650858044e-06 7.60151195526123 1.583353650858044e-06 C 7.60151195526123 1.583353650858044e-06 26.22793388366699 11.19076824188232 46.75201034545898 11.19076824188232 C 62.3913459777832 11.19076824188232 58.98548889160156 10.99384593963623 67.251708984375 10.36769008636475 C 72.87468719482422 9.94174861907959 75.28857421875 9.18263053894043 77.37476348876953 9.18263053894043 C 78.35543060302734 9.18263053894043 79.26406860351563 9.350536346435547 80.39890289306641 9.799679756164551 C 83.94786834716797 11.20427894592285 83.52993774414063 13.40721225738525 81.80948638916016 14.81922340393066 C 80.08904266357422 16.23122406005859 79.42746734619141 17.04368019104004 71.11428833007813 17.96505737304688 C 62.80110168457031 18.88644599914551 69.31819915771484 19.04445648193359 48.79411315917969 19.04445648193359 Z" stroke="none" fill="#303030"/></g><g transform="matrix(-0.208, -0.978, 0.978, -0.208, 91.113, 89.582)" fill="#fff"><path d="M 48.79412460327148 18.54447555541992 C 44.13817977905273 18.54447555541992 39.08522415161133 18.12799835205078 33.7756233215332 17.30661964416504 C 29.52392387390137 16.64888763427734 25.09971237182617 15.73162078857422 20.62590026855469 14.58028697967529 C 13.00942325592041 12.62020874023438 7.832612037658691 10.6377534866333 7.781211853027344 10.61796474456787 L 7.694467544555664 10.58455371856689 L 7.60151195526123 10.58455371856689 C 3.685723066329956 10.58455371856689 0.5000008344650269 8.322598457336426 0.5000008344650269 5.54228687286377 C 0.5000008344650269 2.793867826461792 3.612843751907349 0.5519905686378479 7.466818332672119 0.5009030699729919 C 8.254488945007324 0.9603939652442932 12.7611083984375 3.528748989105225 19.29962348937988 6.061631202697754 C 25.92877769470215 8.629620552062988 36.07268905639648 11.69077587127686 46.75202178955078 11.69077587127686 C 58.39315795898438 11.69077587127686 59.4824104309082 11.5840539932251 62.71584701538086 11.26724243164063 C 63.80870056152344 11.16017627716064 65.16880035400391 11.02690887451172 67.28948211669922 10.86626434326172 C 70.34941101074219 10.63448715209961 72.42372131347656 10.31112003326416 74.0904541015625 10.05129814147949 C 75.46334838867188 9.837275505065918 76.45527648925781 9.682642936706543 77.37477874755859 9.682642936706543 C 78.33485412597656 9.682642936706543 79.18423461914063 9.856686592102051 80.21489715576172 10.26459789276123 C 81.63763427734375 10.82768726348877 82.45584869384766 11.5483980178833 82.58106994628906 12.34882068634033 C 82.68595886230469 13.01920890808105 82.28910064697266 13.77877616882324 81.49227905273438 14.43274211883545 C 81.41850280761719 14.49329853057861 81.34664154052734 14.55276489257813 81.27605438232422 14.61118698120117 C 79.77558135986328 15.85292053222656 78.86990356445313 16.60243225097656 71.05921173095703 17.46812057495117 C 68.82646942138672 17.715576171875 67.67451477050781 17.90545272827148 66.74888610839844 18.05801010131836 C 64.30585479736328 18.4606761932373 63.79744338989258 18.54447555541992 48.79412460327148 18.54447555541992 Z" stroke="none"/><path d="M 48.79412460327148 18.04447555541992 C 63.75652313232422 18.04447555541992 64.25796508789063 17.96183204650879 66.66757965087891 17.56466484069824 C 67.59901428222656 17.41114234924316 68.75822448730469 17.2200870513916 71.00413513183594 16.97116470336914 C 74.68593597412109 16.5630989074707 76.97811126708984 16.16763114929199 78.43637084960938 15.68889808654785 C 79.68476867675781 15.27906513214111 80.19100189208984 14.86012077331543 80.957275390625 14.22598743438721 C 81.02838134765625 14.1671314239502 81.10075378417969 14.10724258422852 81.17507934570313 14.0462532043457 C 81.82181549072266 13.51545333862305 82.16275787353516 12.90979766845703 82.08708190917969 12.42610931396484 C 81.99351501464844 11.82804298400879 81.24405670166016 11.20965385437012 80.03089141845703 10.7295093536377 C 79.0623779296875 10.34618663787842 78.26802062988281 10.18264293670654 77.37477874755859 10.18264293670654 C 76.49402618408203 10.18264293670654 75.51814270019531 10.33477592468262 74.16748809814453 10.54532051086426 C 72.58043670654297 10.79273128509521 70.40689849853516 11.13156509399414 67.32724761962891 11.36484241485596 C 65.21206665039063 11.52506446838379 63.85501098632813 11.65803146362305 62.76460266113281 11.76486492156982 C 59.51297760009766 12.08345413208008 58.4175910949707 12.19077587127686 46.75202178955078 12.19077587127686 C 35.99544525146484 12.19077587127686 25.78792381286621 9.111265182495117 19.1190128326416 6.527875900268555 C 12.74930763244629 4.06038761138916 8.402933120727539 1.622849583625793 7.335560321807861 1.003639817237854 C 5.616172790527344 1.050699949264526 4.019631385803223 1.553456664085388 2.815567493438721 2.431342601776123 C 1.644778609275818 3.284964799880981 1.000000834465027 4.389787197113037 1.000000834465027 5.54228687286377 C 1.000000834465027 6.69478702545166 1.644778609275818 7.799609184265137 2.815567493438721 8.653231620788574 C 4.081511974334717 9.576231002807617 5.781200885772705 10.08455371856689 7.60151195526123 10.08455371856689 L 7.787423133850098 10.08455371856689 L 7.960900783538818 10.15136432647705 C 8.01203441619873 10.17105388641357 13.16176795959473 12.14312076568604 20.75052261352539 14.09606456756592 C 25.20851135253906 15.24332046508789 29.61650085449219 16.15726470947266 33.85206604003906 16.81249809265137 C 39.13645553588867 17.62997627258301 44.16368865966797 18.04447555541992 48.79412460327148 18.04447555541992 M 48.79412460327148 19.04447555541992 C 28.27005577087402 19.04447555541992 7.60151195526123 11.08455371856689 7.60151195526123 11.08455371856689 C 3.403311967849731 11.08455371856689 8.402506637139595e-07 8.603198051452637 8.402506637139595e-07 5.54228687286377 C 8.402506637139595e-07 2.481375932693481 3.403311967849731 9.212748409481719e-06 7.60151195526123 9.212748409481719e-06 C 7.60151195526123 9.212748409481719e-06 26.22794532775879 11.19077587127686 46.75202178955078 11.19077587127686 C 62.391357421875 11.19077587127686 58.98550033569336 10.99386501312256 67.251708984375 10.36769771575928 C 72.87468719482422 9.941763877868652 75.28858184814453 9.182645797729492 77.37477874755859 9.182645797729492 C 78.35544586181641 9.182645797729492 79.26406860351563 9.350547790527344 80.39890289306641 9.799687385559082 C 83.94786834716797 11.20429801940918 83.52993774414063 13.40723133087158 81.80948638916016 14.81924247741699 C 80.08904266357422 16.23124313354492 79.42746734619141 17.04369735717773 71.11428833007813 17.9650764465332 C 62.80111312866211 18.88645362854004 69.31819915771484 19.04447555541992 48.79412460327148 19.04447555541992 Z" stroke="none" fill="#303030"/></g><ellipse cx="16" cy="8.5" rx="16" ry="8.5" transform="matrix(-0.899, 0.438, -0.438, -0.899, 111.555, 76.513)" fill="#fff"/><g transform="matrix(0.875, -0.485, 0.485, 0.875, 79.156, 81.816)" fill="#303030"><path d="M 14.42121505737305 14.7831335067749 C 13.28878593444824 14.7831335067749 11.88879585266113 14.40576362609863 10.37262535095215 13.69181346893311 C 8.833985328674316 12.96729278564453 7.284215450286865 11.94638347625732 5.89084529876709 10.73945331573486 C 4.432065486907959 9.475863456726074 3.214855432510376 8.063003540039063 2.370795488357544 6.653613090515137 C 1.461195468902588 5.134783267974854 0.9999955296516418 3.670243263244629 0.9999955296516418 2.300663232803345 C 0.9999955296516418 1.523913264274597 1.164305448532104 1.234923243522644 1.23494553565979 1.146733283996582 C 1.270115494728088 1.102833271026611 1.352475523948669 1.00001323223114 1.696035504341125 1.00001323223114 C 2.874395608901978 1.00001323223114 5.041565418243408 2.14940333366394 7.137375354766846 3.260953187942505 C 9.906735420227051 4.729733467102051 12.7703857421875 6.248513221740723 15.09998512268066 6.248513221740723 C 17.08881568908691 6.248513221740723 19.47920608520508 5.419043064117432 21.7908763885498 4.616893291473389 C 23.7569751739502 3.934653282165527 25.79001617431641 3.229183197021484 27.14669609069824 3.229183197021484 C 27.69022560119629 3.229183197021484 28.06159591674805 3.337693214416504 28.28203582763672 3.560913324356079 C 28.61748504638672 3.900593280792236 28.68789482116699 4.584593296051025 28.68789482116699 5.098583221435547 C 28.68788528442383 8.494153022766113 25.45189476013184 10.89995288848877 23.5229549407959 12.03180313110352 C 20.71837615966797 13.67745304107666 17.06066513061523 14.78312301635742 14.42121505737305 14.7831335067749 Z" stroke="none"/><path d="M 2.008823394775391 2.038214683532715 C 2.003463745117188 2.111811637878418 1.999996185302734 2.19879150390625 1.999996185302734 2.300663948059082 C 1.999996185302734 4.646014213562012 3.699275970458984 7.518134117126465 6.545576095581055 9.983593940734863 C 9.169256210327148 12.2562141418457 12.33422470092773 13.78312397003174 14.42121505737305 13.78312397003174 C 16.48246574401855 13.78312397003174 19.93969535827637 12.97491455078125 23.01686477661133 11.16931438446045 C 24.76134490966797 10.14570426940918 27.68788528442383 7.995883941650391 27.68788528442383 5.098584175109863 C 27.68788528442383 4.583054542541504 27.6059398651123 4.35015869140625 27.57269859313965 4.276975631713867 C 27.52056121826172 4.259840488433838 27.39289093017578 4.229176998138428 27.14699554443359 4.229184150695801 C 25.95887565612793 4.229364395141602 24.00699615478516 4.906624317169189 22.11936569213867 5.561583995819092 C 19.72915649414063 6.390933990478516 17.2575569152832 7.248514175415039 15.09999561309814 7.248514175415039 C 12.52161598205566 7.248524188995361 9.546236038208008 5.670474052429199 6.668825149536133 4.144394397735596 C 5.533136367797852 3.542054176330566 4.460426330566406 2.973124504089355 3.519615173339844 2.562253952026367 C 2.768787384033203 2.234350204467773 2.29417610168457 2.095453262329102 2.008823394775391 2.038214683532715 M 1.69603157043457 1.33514404296875e-05 C 4.741462707519531 1.33514404296875e-05 11.18411064147949 5.24852180480957 15.09998512268066 5.248514175415039 C 18.63632392883301 5.248514175415039 24.00359153747559 2.229652404785156 27.14669227600098 2.229187965393066 C 28.68339538574219 2.228960990905762 29.68788909912109 2.950239181518555 29.68788528442383 5.098584175109863 C 29.68788528442383 11.64106464385986 19.68650436401367 15.78312492370605 14.42121505737305 15.78312492370605 C 9.155925750732422 15.78313446044922 -3.814697265625e-06 8.843124389648438 -3.814697265625e-06 2.300663948059082 C -1.9073486328125e-06 0.6239166259765625 0.6465644836425781 1.33514404296875e-05 1.69603157043457 1.33514404296875e-05 Z" stroke="none" fill="#fff"/></g><path d="M.467,7.574l2.866.969,2.57-1.9L6.146.04,0,0Z" transform="translate(131.939 161.229) rotate(164)" fill="#303030"/><path d="M1.157,6.112l2.866.969,2.57-1.9L4.635,0,0,1.342Z" transform="matrix(-0.978, 0.208, -0.208, -0.978, 102.018, 88.921)" fill="#303030"/></g></svg>