<svg xmlns="http://www.w3.org/2000/svg" width="158.811" height="186.254" viewBox="0 0 158.811 186.254"><g transform="translate(0 0)"><g transform="matrix(-0.391, 0.921, -0.921, -0.391, 72.724, 74.589)" fill="#303030"><path d="M 54.77461624145508 11.31342792510986 C 51.3137092590332 11.31342792510986 45.63721466064453 11.06158828735352 40.14762878417969 10.81805515289307 C 35.27522659301758 10.60189533233643 30.67305374145508 10.39772129058838 27.99093437194824 10.38680171966553 C 11.83729457855225 10.32118797302246 5.64168119430542 10.087721824646 5.580987930297852 10.08536148071289 L 5.561641216278076 10.08461475372314 L 5.54225492477417 10.08461475372314 C 4.328974723815918 10.08461475372314 3.188308000564575 9.61213493347168 2.330388069152832 8.754215240478516 C 1.472468018531799 7.896295070648193 1.000001311302185 6.755628108978271 1.000001311302185 5.542348384857178 C 1.000001311302185 3.074257612228394 2.978610754013062 1.059616804122925 5.432947158813477 1.001365184783936 C 6.780673503875732 1.313079953193665 19.07099914550781 4.102294445037842 31.08873558044434 5.035548210144043 C 32.68072128295898 5.159348011016846 34.11207962036133 5.277841567993164 35.49630737304688 5.392428398132324 C 41.14152145385742 5.859735012054443 45.22027969360352 6.197388172149658 51.7540283203125 6.197374820709229 C 63.55625534057617 6.197361469268799 75.13501739501953 4.777681350708008 82.77011871337891 3.586708307266235 C 90.37779235839844 2.400022506713867 95.69792938232422 1.196663618087769 96.54707336425781 1.000687956809998 C 97.76418304443359 1.016640067100525 98.66731262207031 1.295629024505615 99.232666015625 1.830561518669128 C 99.81400299072266 2.380601644515991 100.1087493896484 3.280094861984253 100.1087493896484 4.504081726074219 C 100.1087493896484 5.977228164672852 99.85436248779297 7.169308185577393 99.37309265136719 7.951415061950684 C 98.869384765625 8.769974708557129 98.12965393066406 9.151214599609375 97.04509735107422 9.151214599609375 L 96.98997497558594 9.151214599609375 L 96.93517303466797 9.157281875610352 C 96.74018859863281 9.178841590881348 77.17748260498047 11.313401222229 54.77461624145508 11.31342792510986 Z" stroke="none"/><path d="M 54.77461624145508 10.31342315673828 C 77.11697387695313 10.31339454650879 96.63079071044922 8.184837341308594 96.82528686523438 8.163337707519531 L 96.93489074707031 8.151223182678223 L 97.04510498046875 8.151223182678223 C 97.95108795166016 8.151223182678223 98.29006195068359 7.803308963775635 98.52141571044922 7.427351951599121 C 98.90016174316406 6.811851978302002 99.10874938964844 5.773680686950684 99.10874938964844 4.504066467285156 C 99.10874938964844 3.565752029418945 98.91920471191406 2.910651922225952 98.54538726806641 2.556937694549561 C 98.10772705078125 2.142842769622803 97.31171417236328 2.023052215576172 96.65106964111328 2.003162622451782 C 95.48445129394531 2.271248340606689 90.35429382324219 3.415782690048218 82.92424774169922 4.574766159057617 C 75.25418853759766 5.771180629730225 63.62033081054688 7.197351932525635 51.75403213500977 7.197366237640381 C 45.17881774902344 7.197380542755127 41.08270263671875 6.85829496383667 35.41344451904297 6.388994693756104 C 34.03054428100586 6.274508953094482 32.60055923461914 6.156137943267822 31.01131820678711 6.032552242279053 C 19.09374618530273 5.10706615447998 7.264738082885742 2.451412916183472 5.337204933166504 2.005932569503784 C 3.478988885879517 2.112449645996094 2.000003337860107 3.65791130065918 2.000003337860107 5.542366504669189 C 2.000003337860107 6.488537788391113 2.368460416793823 7.378066539764404 3.037503242492676 8.047109603881836 C 3.706546068191528 8.716152191162109 4.59607458114624 9.084609031677246 5.542246341705322 9.084609031677246 L 5.581031799316406 9.084609031677246 L 5.619660377502441 9.086109161376953 C 5.680288791656494 9.088452339172363 11.86878871917725 9.321309089660645 27.99501800537109 9.386809349060059 C 30.6972599029541 9.397809028625488 35.30917358398438 9.602409362792969 40.19190216064453 9.819037437438965 C 45.67061614990234 10.06209468841553 51.33586120605469 10.31343746185303 54.77461624145508 10.31342315673828 M 54.77461624145508 12.31342315673828 C 48.20757293701172 12.31343746185303 33.65534591674805 11.40986633300781 27.98687553405762 11.38679504394531 C 11.61857509613037 11.32030963897705 5.542260646820068 11.08460903167725 5.542260646820068 11.08460903167725 C 2.481346130371094 11.08462333679199 -1.101946145354304e-05 8.603266716003418 3.266252861067187e-06 5.542352199554443 C 3.266252861067187e-06 2.481437683105469 2.48136043548584 6.631763972109184e-05 5.542274475097656 6.631763972109184e-05 C 5.542274475097656 6.631763972109184e-05 18.42488861083984 3.049109220504761 31.16616058349609 4.038551807403564 C 39.24304580688477 4.666652202606201 43.66453170776367 5.197380542755127 51.75403213500977 5.197366237640381 C 74.47734832763672 5.197351932525635 96.43548583984375 -3.368236139067449e-05 96.43548583984375 -3.368236139067449e-05 C 99.49639129638672 -4.796807479579002e-05 101.108757019043 1.443166375160217 101.1087493896484 4.504080772399902 C 101.1087493896484 7.564994812011719 100.1060028076172 10.15122318267822 97.04510498046875 10.15122318267822 C 97.04510498046875 10.15122318267822 77.49788665771484 12.31339454650879 54.77461624145508 12.31342315673828 Z" stroke="none" fill="#fff"/></g><g transform="matrix(0.966, -0.259, 0.259, 0.966, 58.292, 75.708)" fill="#fff"><path d="M 64.51930999755859 26.84748077392578 C 60.32569885253906 26.84748077392578 57.76137542724609 26.58048057556152 53.87979888916016 26.17634201049805 C 52.5937614440918 26.04245567321777 51.13613510131836 25.89069366455078 49.44803619384766 25.73217964172363 L 49.44377517700195 25.73178100585938 L 49.43948745727539 25.73145484924316 C 44.64027404785156 25.36380577087402 39.47147369384766 24.34480476379395 34.07667541503906 22.70277976989746 C 29.75347328186035 21.38690567016602 25.27699851989746 19.67045593261719 20.77159881591797 17.60110473632813 C 13.09264945983887 14.07413005828857 7.927224159240723 10.70028018951416 7.875948905944824 10.66660499572754 L 7.750998973846436 10.58458042144775 L 7.601499080657959 10.58455562591553 C 3.685724020004272 10.58455562591553 0.499999076128006 8.322605133056641 0.499999076128006 5.542280197143555 C 0.499999076128006 2.817119359970093 3.560876369476318 0.5899417996406555 7.369652271270752 0.5026440620422363 C 8.108657836914063 1.369622349739075 11.39029788970947 5.009747505187988 17.59673690795898 9.021880149841309 C 24.00967407226563 13.16750526428223 34.87737274169922 18.47751808166504 50.23268508911133 20.23179244995117 C 54.21718597412109 20.65179252624512 60.57899856567383 21.1518669128418 68.2838134765625 21.1518669128418 L 68.36631011962891 21.15185546875 C 75.63951873779297 21.14855003356934 80.93103790283203 20.28912162780762 81.30279541015625 20.22710609436035 L 92.3829345703125 19.20528602600098 C 94.01807403564453 19.20953369140625 95.19667816162109 19.67556762695313 95.79238891601563 20.55365562438965 C 96.3277587890625 21.34280586242676 96.38057708740234 22.48469352722168 95.93364715576172 23.60819244384766 C 95.82842254638672 23.87271690368652 95.11441040039063 24.77531814575195 90.34496307373047 25.28388023376465 C 87.67786407470703 25.56828117370605 85.08055877685547 25.57981872558594 85.05463409423828 25.57989311218262 L 85.0089111328125 25.58004188537598 L 84.96395111083984 25.58847999572754 C 84.92959594726563 25.59489250183105 81.38109588623047 26.23983001708984 70.90425872802734 26.68914222717285 C 68.41993713378906 26.79568099975586 66.33139801025391 26.84748077392578 64.51930999755859 26.84748077392578 Z" stroke="none"/><path d="M 7.1483154296875 1.01057243347168 C 5.500457763671875 1.087770462036133 3.975807189941406 1.585384368896484 2.815567016601563 2.431329727172852 C 1.644775390625 3.284944534301758 0.9999923706054688 4.3897705078125 0.9999923706054688 5.542276382446289 C 0.9999923706054688 6.694784164428711 1.644775390625 7.799610137939453 2.815567016601563 8.653223037719727 C 4.081512451171875 9.576236724853516 5.781181335449219 10.08455657958984 7.60150146484375 10.08455657958984 L 7.900482177734375 10.08463668823242 L 8.150321960449219 10.24862289428711 C 8.201416015625 10.28215789794922 13.34796905517578 13.6425838470459 20.99676513671875 17.15430450439453 C 25.47982025146484 19.21257019042969 29.93300628662109 20.91946411132813 34.23260498046875 22.22759628295898 C 39.58873748779297 23.85714340209961 44.71791076660156 24.86828994750977 49.47768402099609 25.23291778564453 L 49.48623275756836 25.23357009887695 L 49.49477767944336 25.23437118530273 C 51.18542098999023 25.39311599731445 52.64439392089844 25.54502296447754 53.93161773681641 25.67905044555664 C 57.797607421875 26.08155632019043 60.35163116455078 26.34747695922852 64.519287109375 26.34747695922852 C 66.32416534423828 26.34747695922852 68.40571594238281 26.29583740234375 70.88282775878906 26.18959617614746 C 81.29862213134766 25.74290466308594 84.83819580078125 25.1032772064209 84.87167358398438 25.0970630645752 L 84.96159362792969 25.0801830291748 L 85.0531005859375 25.07989120483398 C 85.07799530029297 25.07982444763184 87.57264709472656 25.06900978088379 90.17487335205078 24.79901123046875 C 94.87322235107422 24.31154251098633 95.44831848144531 23.45633506774902 95.470458984375 23.41981887817383 C 95.85456848144531 22.45168685913086 95.82028961181641 21.48540115356445 95.37861633300781 20.8343563079834 C 94.88256072998047 20.10317420959473 93.85487365722656 19.71319961547852 92.40493011474609 19.70537185668945 L 81.36810302734375 20.72320175170898 C 80.8251953125 20.81440734863281 75.65901184082031 21.64854049682617 68.36656188964844 21.6518497467041 L 68.28375244140625 21.65186309814453 C 60.55743408203125 21.65186309814453 54.17678070068359 21.15029144287109 50.18461990356445 20.72953033447266 L 50.18027114868164 20.72906303405762 L 50.17592620849609 20.72857093811035 C 34.72446060180664 18.96330261230469 23.78308868408203 13.61641025543213 17.32528686523438 9.441783905029297 C 11.44171905517578 5.63836669921875 8.149017333984375 2.150541305541992 7.1483154296875 1.01057243347168 M 7.60150146484375 -3.814697265625e-06 C 7.60150146484375 -3.814697265625e-06 20.74997711181641 16.36026382446289 50.28943252563477 19.73503684997559 C 54.54138946533203 20.18318939208984 60.76931762695313 20.65186882019043 68.28375244140625 20.65186882019043 C 68.31137084960938 20.65186882019043 68.33843231201172 20.65186309814453 68.3660888671875 20.6518497467041 C 75.9176025390625 20.64842414855957 81.23831176757813 19.73093032836914 81.23831176757813 19.73093032836914 L 92.36024475097656 18.70524978637695 C 96.5584716796875 18.70524978637695 97.29499053955078 21.5386905670166 96.39823150634766 23.79301071166992 C 95.50145721435547 26.04731750488281 85.05622100830078 26.07989120483398 85.05622100830078 26.07989120483398 C 85.05622100830078 26.07989120483398 81.58613586425781 26.73149108886719 70.92568969726563 27.18867683410645 C 68.36923217773438 27.29831314086914 66.30260467529297 27.34747314453125 64.519287109375 27.34747314453125 C 58.86611557006836 27.34747314453125 56.04814147949219 26.85410499572754 49.40129852294922 26.2299976348877 C 28.18784332275391 24.60490417480469 7.60150146484375 11.08455657958984 7.60150146484375 11.08455657958984 C 3.403297424316406 11.08455657958984 -7.62939453125e-06 8.60319709777832 -7.62939453125e-06 5.542276382446289 C -7.62939453125e-06 2.481357574462891 3.403312683105469 -3.814697265625e-06 7.60150146484375 -3.814697265625e-06 Z" stroke="none" fill="#303030"/></g><g transform="translate(33.357 186.254) rotate(-167)" fill="#303030"><path d="M 9.511897087097168 29.32606887817383 C 7.961137294769287 29.32606887817383 6.122517108917236 28.4176082611084 4.467476844787598 26.83364868164063 C 2.918256998062134 25.35096740722656 1.694057106971741 23.41235733032227 1.272627115249634 21.77436828613281 L 1.271997094154358 21.77190780639648 L 1.271347045898438 21.76944732666016 C 0.4112151563167572 18.49536895751953 1.84442663192749 13.14817810058594 1.949585556983948 12.76494693756104 C 2.046828985214233 12.47766590118408 3.050947427749634 9.545526504516602 4.47525691986084 6.661417961120605 C 5.333987236022949 4.922568321228027 6.17143726348877 3.547288179397583 6.964346885681152 2.573758125305176 C 7.79090690612793 1.558908104896545 8.563776969909668 0.999998152256012 9.140586853027344 0.999998152256012 C 9.154666900634766 0.999998152256012 9.168896675109863 1.000328183174133 9.182967185974121 1.000998139381409 C 9.767276763916016 1.028488159179688 10.53530693054199 1.648308157920837 11.34557723999023 2.746278047561646 C 12.11928749084473 3.794708251953125 12.9257869720459 5.260918140411377 13.74267673492432 7.104187965393066 C 15.10730457305908 10.18336772918701 16.03388595581055 13.27667427062988 16.10597610473633 13.51984405517578 C 16.62211990356445 15.53712463378906 17.32917594909668 19.2187557220459 17.04118728637695 20.56742858886719 L 17.04056739807129 20.57033729553223 L 17.03995704650879 20.57325744628906 C 16.54535675048828 22.95902824401855 15.52111721038818 25.16622734069824 14.15591716766357 26.78827857971191 C 13.18151664733887 27.94600868225098 11.58486747741699 29.32606887817383 9.511897087097168 29.32606887817383 Z" stroke="none"/><path d="M 9.511906623840332 28.32606887817383 L 9.511897087097168 28.32606887817383 C 11.2002067565918 28.32606887817383 12.55315685272217 27.13963890075684 13.39083671569824 26.14434814453125 C 14.6328067779541 24.6687183380127 15.60595703125 22.56414794921875 16.06077766418457 20.37026786804199 L 16.06198692321777 20.36442756652832 L 16.06323623657227 20.35859870910645 C 16.27644729614258 19.36011505126953 15.75219917297363 16.17826461791992 15.14182090759277 13.7859001159668 C 15.0454797744751 13.46240520477295 14.17537689208984 10.58155822753906 12.89715671539307 7.66527795791626 C 10.65848159790039 2.557706356048584 9.25272274017334 2.035471200942993 9.137128829956055 2.001359224319458 C 9.024229049682617 2.027245044708252 7.654850959777832 2.443990468978882 5.317827224731445 7.214107990264893 C 3.981432199478149 9.941836357116699 3.031824111938477 12.68878173828125 2.90500545501709 13.06136608123779 C 2.479976654052734 14.59377288818359 1.566992402076721 18.95916175842285 2.238527059555054 21.51535797119141 L 2.239817142486572 21.52027893066406 L 2.241086959838867 21.52519798278809 C 2.618697166442871 22.99286842346191 3.736737012863159 24.75011825561523 5.158896923065186 26.11119842529297 C 6.629637241363525 27.51877784729004 8.216246604919434 28.32606887817383 9.511906623840332 28.32606887817383 M 9.511897087097168 30.32606887817383 C 5.545567035675049 30.32605743408203 1.251877069473267 25.70700836181641 0.3041670620441437 22.02353858947754 C -0.6654629707336426 18.3326587677002 0.9931970834732056 12.47157859802246 0.9931970834732056 12.47157859802246 C 0.9931970834732056 12.47157859802246 5.149315357208252 1.502990699009388e-06 9.140586853027344 1.502990699009388e-06 C 9.170282363891602 1.502990699009388e-06 9.200291633605957 0.0007019613403826952 9.22996711730957 0.002098143566399813 C 13.24820709228516 0.1911581456661224 17.0701961517334 13.25413799285889 17.0701961517334 13.25413799285889 C 17.0701961517334 13.25413799285889 18.46519660949707 18.68736839294434 18.01913642883301 20.77625846862793 C 16.97922706604004 25.79238891601563 13.63310718536377 30.32606887817383 9.511897087097168 30.32606887817383 Z" stroke="none" fill="#fff"/></g><g transform="matrix(-0.574, -0.819, 0.819, -0.574, 54.093, 92.274)" fill="#fff"><path d="M 5.406307697296143 20.29648780822754 C 2.688601493835449 20.22415733337402 0.5000089406967163 17.99086761474609 0.5000089406967163 15.25602054595947 C 0.5000089406967163 12.47569561004639 2.761958837509155 10.21374607086182 5.54228401184082 10.21374607086182 L 5.640408992767334 10.21374607086182 L 5.731271266937256 10.17664623260498 C 5.790584087371826 10.15244579315186 11.76378440856934 7.727945804595947 20.56217193603516 5.335220813751221 C 25.72635841369629 3.930820941925049 30.83910942077637 2.81195855140686 35.7584228515625 2.009733438491821 C 41.9012451171875 1.007970929145813 47.75722122192383 0.5000334978103638 53.16366958618164 0.5000334978103638 L 53.16372299194336 0.5000334978103638 C 58.56196975708008 0.5000334978103638 63.71767044067383 0.8183959722518921 68.48759460449219 1.446283459663391 C 72.30258178710938 1.948458433151245 75.88069915771484 2.648621082305908 79.12255859375 3.527320861816406 C 84.64067077636719 5.022995948791504 87.30381774902344 6.537920951843262 87.33008575439453 6.553058624267578 L 87.35734558105469 6.568758487701416 L 87.38677215576172 6.581158638000488 C 87.40259552001953 6.587783336639404 88.98747253417969 7.25489616394043 90.58124542236328 8.152345657348633 C 93.33647155761719 9.703808784484863 93.73403167724609 10.57414627075195 93.77706909179688 10.87632083892822 C 93.88953399658203 11.66599559783936 93.69709777832031 12.39932060241699 93.2205810546875 12.99702072143555 C 92.61914825439453 13.75142097473145 91.59616088867188 14.22458362579346 90.34005737304688 14.329345703125 C 90.22390747070313 14.33903312683105 90.10198211669922 14.34395885467529 89.97768402099609 14.34395885467529 C 87.46031951904297 14.34400844573975 84.27278137207031 12.39279556274414 84.24088287353516 12.37308311462402 L 84.19833374023438 12.3467960357666 L 84.15142059326172 12.32945823669434 C 84.12001800537109 12.31785869598389 80.95278167724609 11.15608310699463 75.82765960693359 10.01349639892578 C 71.10295867919922 8.960183143615723 63.68847274780273 7.704583644866943 55.19694519042969 7.704570770263672 C 54.29784774780273 7.704570770263672 53.36794662475586 7.699433326721191 52.46864700317383 7.694458484649658 C 51.54259490966797 7.689345836639404 50.58501052856445 7.684045791625977 49.63157272338867 7.684045791625977 C 43.54916000366211 7.684045791625977 38.46085739135742 7.921883583068848 33.3980827331543 9.082620620727539 C 25.40100860595703 10.91282081604004 18.18513488769531 13.88314628601074 13.54000854492188 16.05264663696289 C 9.063895225524902 18.14321899414063 6.043437957763672 19.91547584533691 5.406307697296143 20.29648780822754 Z" stroke="none"/><path d="M 53.16365814208984 1.000034332275391 C 47.78688430786133 1.000034332275391 41.9611701965332 1.505258560180664 35.84835815429688 2.501659393310547 C 30.94804763793945 3.300434112548828 25.85428619384766 4.41472053527832 20.70855712890625 5.813570976257324 C 11.93597412109375 8.198370933532715 5.9793701171875 10.61544609069824 5.920318603515625 10.63953304290771 L 5.73858642578125 10.71374607086182 L 5.542282104492188 10.71374607086182 C 3.03765869140625 10.71374607086182 1.000007629394531 12.75139617919922 1.000007629394531 15.25602149963379 C 1.000007629394531 17.67182922363281 2.895606994628906 19.6531867980957 5.277565002441406 19.79067230224609 C 6.131729125976563 19.28313827514648 9.029312133789063 17.60752487182617 13.32842254638672 15.5996208190918 C 17.99553680419922 13.41985893249512 25.24662017822266 10.4352331161499 33.28634643554688 8.595258712768555 C 38.3948974609375 7.424033164978027 43.51519775390625 7.184045791625977 49.63157272338867 7.184045791625977 C 50.58639526367188 7.184045791625977 51.54468536376953 7.189346313476563 52.47142028808594 7.19447135925293 C 53.37002182006836 7.199433326721191 54.29923248291016 7.204570770263672 55.19694519042969 7.204570770263672 C 63.73397064208984 7.204583168029785 71.18723297119141 8.466695785522461 75.93646240234375 9.525483131408691 C 81.09445953369141 10.67539596557617 84.19525909423828 11.81260871887207 84.32473754882813 11.86045837402344 L 84.41855621337891 11.89513301849365 L 84.503662109375 11.94770812988281 C 85.35743713378906 12.47513389587402 88.00517272949219 13.84395790100098 89.97769927978516 13.84395790100098 C 90.08809661865234 13.84395790100098 90.196044921875 13.83962059020996 90.29850769042969 13.83108329772949 C 91.41598510742188 13.73787117004395 92.31489562988281 13.33097076416016 92.82962036132813 12.68533325195313 C 93.21817016601563 12.19795894622803 93.37461853027344 11.5967960357666 93.28204345703125 10.94680881500244 C 93.28096771240234 10.93922138214111 93.14151000976563 10.16904640197754 90.34308624267578 8.592058181762695 C 88.77426910400391 7.707983016967773 87.20903015136719 7.048808097839355 87.19358062744141 7.04232120513916 L 87.13478088378906 7.017471313476563 L 87.08081817626953 6.986495971679688 C 87.05475616455078 6.97153377532959 84.41179656982422 5.473758697509766 78.9359130859375 3.994808197021484 C 75.71791076660156 3.12567138671875 72.16609191894531 2.433095932006836 68.37911987304688 1.936332702636719 C 63.64302062988281 1.315046310424805 58.52379608154297 1.000034332275391 53.16365814208984 1.000034332275391 M 53.16366195678711 3.4332275390625e-05 C 53.16511917114258 3.4332275390625e-05 53.16225433349609 3.4332275390625e-05 53.1637077331543 3.4332275390625e-05 C 76.99787139892578 4.57763671875e-05 87.58004760742188 6.120020866394043 87.58004760742188 6.120020866394043 C 87.58004760742188 6.120020866394043 93.98706817626953 8.804720878601074 94.27205657958984 10.80582141876221 C 94.55706024169922 12.80692100524902 93.12943267822266 14.59843349456787 90.38162231445313 14.82762145996094 C 90.24896240234375 14.83868598937988 90.11407470703125 14.84395599365234 89.97769165039063 14.84395599365234 C 87.28922271728516 14.84395599365234 83.97809600830078 12.79845809936523 83.97809600830078 12.79845809936523 C 83.97809600830078 12.79845809936523 71.54718017578125 8.204583168029785 55.19694519042969 8.204570770263672 C 53.37911224365234 8.204570770263672 51.51816558837891 8.184051513671875 49.63157653808594 8.184051513671875 C 44.3448371887207 8.184051513671875 38.85242462158203 8.345087051391602 33.50982284545898 9.569971084594727 C 18.11127471923828 13.09408378601074 5.542282104492188 20.79829597473145 5.542282104492188 20.79829597473145 C 2.481369018554688 20.79829597473145 7.62939453125e-06 18.31693267822266 7.62939453125e-06 15.25602149963379 C 7.62939453125e-06 12.19510841369629 2.481369018554688 9.713746070861816 5.542282104492188 9.713746070861816 C 5.542282104492188 9.713746070861816 29.33097076416016 3.4332275390625e-05 53.16366195678711 3.4332275390625e-05 Z" stroke="none" fill="#303030"/></g><g transform="translate(62.63 79.584) rotate(-41)" fill="#fff"><path d="M 70.80685424804688 31.84321784973145 C 69.47185516357422 31.84321784973145 67.9287109375 31.78739547729492 66.22029876708984 31.67729568481445 C 65.5948486328125 31.63698387145996 65.00226593017578 31.59955024719238 64.43701171875 31.56383895874023 C 56.66786956787109 31.07297325134277 54.05064392089844 30.90760612487793 41.855712890625 28.02980613708496 C 30.76086807250977 25.41160583496094 25.99465751647949 22.90001678466797 20.94860076904297 20.2409610748291 C 20.06766891479492 19.7767505645752 19.15672302246094 19.29672813415527 18.21099090576172 18.8160285949707 C 9.975123405456543 14.64021682739258 5.814345836639404 9.913817405700684 5.773279190063477 9.866572380065918 L 5.746256828308105 9.83547306060791 L 5.714279174804688 9.808972358703613 C 4.414968013763428 8.734639167785645 0.9529346823692322 5.519683837890625 0.5421568751335144 3.570983648300171 C 0.3659013211727142 2.734828233718872 0.7608568668365479 1.972183704376221 1.716045737266541 1.304239273071289 C 2.351854562759399 0.8596254587173462 3.04352879524231 0.5977066159248352 3.294231176376343 0.5109009146690369 C 3.788054704666138 0.587313711643219 6.096157073974609 1.043057084083557 8.16352367401123 3.103439331054688 C 10.44921207427979 5.393650531768799 15.08415699005127 9.20786190032959 20.62127876281738 12.41707229614258 C 25.66075706481934 15.34536170959473 29.25287818908691 16.48861694335938 38.85305786132813 19.54401779174805 L 40.02316665649414 19.91650581359863 C 50.4263801574707 23.22956085205078 53.54428100585938 23.73235130310059 62.36092376708984 24.44356155395508 C 70.71198272705078 25.11721801757813 76.11957550048828 26.06006240844727 76.17323303222656 26.06950569152832 L 76.21624755859375 26.07708358764648 L 76.25994873046875 26.07708358764648 C 77.95564270019531 26.07708358764648 79.06983184814453 26.45053863525391 79.48207855224609 27.15708351135254 C 79.93134307861328 27.92708396911621 79.48184204101563 28.95602798461914 79.17391204833984 29.50083923339844 C 78.74264526367188 30.26386070251465 78.01097106933594 30.79364967346191 76.87127685546875 31.16810607910156 C 75.48863220214844 31.62239456176758 73.50494384765625 31.84321784973145 70.80685424804688 31.84321784973145 Z" stroke="none"/><path d="M 3.339653015136719 1.02574348449707 C 3.058479309082031 1.130519866943359 2.519142150878906 1.355905532836914 2.018020629882813 1.703227996826172 C 0.832611083984375 2.524816513061523 0.9822463989257813 3.23460578918457 1.031410217285156 3.467861175537109 C 1.369621276855469 5.07234001159668 4.278701782226563 7.972517013549805 6.032760620117188 9.423528671264648 L 6.096771240234375 9.476438522338867 L 6.151176452636719 9.5391845703125 C 6.191444396972656 9.585617065429688 10.27236938476563 14.23032760620117 18.43752288818359 18.37030601501465 C 19.38655853271484 18.8526725769043 20.29915618896484 19.33357238769531 21.18171310424805 19.79862785339355 C 26.19880294799805 22.44242858886719 30.93765640258789 24.93959426879883 41.97055816650391 27.54317283630371 C 54.1242790222168 30.41125106811523 56.73085784912109 30.5759391784668 64.46839141845703 31.06481742858887 C 65.03388977050781 31.10054969787598 65.626708984375 31.13800621032715 66.25244903564453 31.1783275604248 C 67.95018768310547 31.28773880004883 69.48251342773438 31.34321784973145 70.80682373046875 31.34321784973145 C 76.79087066650391 31.34321784973145 78.18907165527344 30.22713851928711 78.73862457275391 29.25480651855469 C 79.16643524169922 28.49789428710938 79.28292083740234 27.80789566040039 79.05020904541016 27.40906143188477 C 78.74171447753906 26.88032913208008 77.72470092773438 26.57708358764648 76.25994873046875 26.57708358764648 L 76.17254638671875 26.57708358764648 L 76.08647155761719 26.56191635131836 C 76.03310394287109 26.55251693725586 70.65326690673828 25.61410522460938 62.32071304321289 24.94194984436035 C 53.45785522460938 24.22700500488281 50.32412338256836 23.72174072265625 39.87144470214844 20.39292907714844 L 38.70141220092773 20.02047348022461 C 29.06325531005859 16.95297241210938 25.45692443847656 15.80519485473633 20.37055587768555 12.84966087341309 C 14.79148864746094 9.616161346435547 10.11669158935547 5.768283843994141 7.810569763183594 3.457584381103516 C 5.985763549804688 1.638961791992188 3.96490478515625 1.141279220581055 3.339653015136719 1.02574348449707 M 3.24676513671875 -3.814697265625e-06 C 3.24676513671875 -3.814697265625e-06 6.030120849609375 0.2713508605957031 8.5164794921875 2.749282836914063 C 10.6082763671875 4.84522819519043 15.20193481445313 8.69822883605957 20.87200164794922 11.98447227478027 C 26.06006622314453 14.99910545349121 29.55774688720703 16.05891799926758 40.17488861083984 19.44008255004883 C 50.79201507568359 22.82126235961914 53.92537689208984 23.26147270202637 62.401123046875 23.94518280029297 C 70.87687683105469 24.6288948059082 76.25994873046875 25.57708358764648 76.25994873046875 25.57708358764648 C 80.45812225341797 25.57708358764648 80.71990966796875 27.78171730041504 79.60919189453125 29.74686050415039 C 78.70775604248047 31.34175109863281 76.55979919433594 32.34321594238281 70.80682373046875 32.34321594238281 C 69.47122192382813 32.34321594238281 67.94193267822266 32.28928375244141 66.18813323974609 32.17626190185547 C 56.88002395629883 31.57639503479004 54.8580322265625 31.61187362670898 41.74087905883789 28.51643943786621 C 28.62371063232422 25.42100524902344 24.29058837890625 22.46699523925781 17.98442459106445 19.26176071166992 C 9.550865173339844 14.9857063293457 5.395698547363281 10.19435119628906 5.395698547363281 10.19435119628906 C 5.395698547363281 10.19435119628906 0.5901336669921875 6.222705841064453 0.05290985107421875 3.674116134643555 C -0.4843292236328125 1.125528335571289 3.24676513671875 -3.814697265625e-06 3.24676513671875 -3.814697265625e-06 Z" stroke="none" fill="#303030"/></g><g transform="matrix(0.53, -0.848, 0.848, 0.53, 54.434, 79.872)" fill="#fff"><path d="M 67.4259033203125 31.32197380065918 C 64.47216796875 31.32197380065918 61.05135726928711 31.13263320922852 57.53328704833984 30.77442359924316 C 55.71297836303711 30.58908271789551 54.45510482788086 30.48503303527832 53.44438552856445 30.40142440795898 C 49.93203735351563 30.11089324951172 49.64513778686523 30.0871639251709 39.4384651184082 27.67856407165527 C 28.34365653991699 25.06037330627441 23.57745742797852 22.54879379272461 18.53140640258789 19.88974380493164 C 17.65044593811035 19.42552375793457 16.73948669433594 18.94548416137695 15.79372692108154 18.46478271484375 C 7.564326286315918 14.2922534942627 4.277356624603271 9.776373863220215 4.245116710662842 9.731243133544922 L 4.095556735992432 9.521903991699219 L 3.838276624679565 9.521903991699219 C 2.474696636199951 9.521903991699219 1.582046508789063 9.289854049682617 1.109316468238831 8.812483787536621 C 0.4849165081977844 8.181943893432617 0.4962465167045593 7.022793769836426 0.5105865001678467 5.555243492126465 C 0.5128065347671509 5.328543663024902 0.5150965452194214 5.094113826751709 0.5150965452194214 4.853383541107178 C 0.5150965452194214 4.561593532562256 0.5109865069389343 4.284163475036621 0.5070165395736694 4.015863418579102 C 0.4870265126228333 2.665963649749756 0.4725865125656128 1.690643548965454 0.9973765015602112 1.158033609390259 C 1.409264922142029 0.7399991750717163 2.234997749328613 0.5247822403907776 3.517858505249023 0.5020241141319275 C 3.912842512130737 0.9668681621551514 5.049402713775635 2.247320413589478 6.997966289520264 4.003063678741455 C 9.223086357116699 6.007993698120117 12.97345638275146 9.034293174743652 18.20402717590332 12.06581401824951 C 23.24348640441895 14.99410343170166 26.83556747436523 16.13734436035156 36.43564605712891 19.19273376464844 L 37.60591506958008 19.56526374816895 C 46.69972610473633 22.46132278442383 48.49602508544922 22.75720405578613 54.4478874206543 23.73759269714355 C 55.46113586425781 23.90449333190918 56.60956573486328 24.09366416931152 57.93204498291016 24.31857299804688 C 63.44844818115234 25.25675392150879 67.85889434814453 25.45368385314941 70.58742523193359 25.45368385314941 C 72.07356262207031 25.45368385314941 72.94331359863281 25.39462280273438 73.08889770507813 25.3839054107666 C 74.94205474853516 25.38618659973145 76.19277191162109 25.72708129882813 76.80637359619141 26.39720344543457 C 77.19556427001953 26.82223320007324 77.34427642822266 27.38924407958984 77.27436828613281 28.1816234588623 C 77.16226959228516 29.4522533416748 75.33293914794922 30.52367401123047 72.38089752197266 31.04767417907715 L 72.37697601318359 31.04836273193359 L 72.37305450439453 31.04912376403809 C 71.72431945800781 31.17499351501465 70.03941345214844 31.32197380065918 67.4259033203125 31.32197380065918 Z" stroke="none"/><path d="M 3.2943115234375 1.008230209350586 C 2.29608154296875 1.046060562133789 1.644134521484375 1.214021682739258 1.353538513183594 1.508951187133789 C 0.9756317138671875 1.892496109008789 0.9894485473632813 2.826272964477539 1.006950378417969 4.008474349975586 C 1.010955810546875 4.278585433959961 1.015083312988281 4.557895660400391 1.015083312988281 4.853384017944336 C 1.015083312988281 5.096551895141602 1.012786865234375 5.332218170166016 1.010551452636719 5.560117721557617 C 0.9973526000976563 6.911163330078125 0.9869155883789063 7.978296279907227 1.464584350585938 8.460662841796875 C 1.833381652832031 8.833072662353516 2.632011413574219 9.021896362304688 3.838272094726563 9.021896362304688 L 4.351333618164063 9.023706436157227 L 4.650665283203125 9.438785552978516 C 4.658676147460938 9.449884414672852 5.471626281738281 10.56694030761719 7.271392822265625 12.17520713806152 C 8.932884216308594 13.6599178314209 11.79928588867188 15.87889671325684 16.0202751159668 18.01905059814453 C 16.96931838989258 18.50141906738281 17.88193130493164 18.98231887817383 18.76448440551758 19.44739532470703 C 23.78158569335938 22.09118461608887 28.52043151855469 24.58835220336914 39.55330657958984 27.19192886352539 C 49.72361755371094 29.59195137023926 49.93610763549805 29.60952949523926 53.48561859130859 29.90312957763672 C 54.49844360351563 29.98690795898438 55.75891876220703 30.09117317199707 57.58393096923828 30.27699661254883 C 62.00774002075195 30.7274284362793 65.37777709960938 30.82197380065918 67.42588806152344 30.82197380065918 C 70.00392150878906 30.82197380065918 71.65084075927734 30.67991828918457 72.27781677246094 30.55827331542969 L 72.28565979003906 30.5567626953125 L 72.29351806640625 30.55536270141602 C 74.92838287353516 30.08767318725586 76.68798828125 29.13867378234863 76.77629852294922 28.13767433166504 C 76.85080718994141 27.29318428039551 76.61869812011719 26.9326171875 76.4376220703125 26.7348747253418 C 76.08416748046875 26.3488655090332 75.21914672851563 25.88914680480957 73.10636138916016 25.88393974304199 C 72.90701293945313 25.89808654785156 72.03141021728516 25.95368576049805 70.58746337890625 25.95368576049805 C 67.83966064453125 25.95368576049805 63.39901733398438 25.75552940368652 57.84822082519531 24.81149673461914 C 56.52700805664063 24.58679580688477 55.37924194335938 24.39773941040039 54.36659622192383 24.23093032836914 C 48.3871955871582 23.24601745605469 46.58259582519531 22.94876289367676 37.45419692993164 20.04168510437012 L 36.28407287597656 19.66919708251953 C 26.64596176147461 16.60171890258789 23.03965377807617 15.45395088195801 17.95330810546875 12.4984188079834 C 12.68539428710938 9.44525146484375 8.906082153320313 6.395395278930664 6.663276672363281 4.374517440795898 C 4.911262512207031 2.795871734619141 3.802505493164063 1.590295791625977 3.2943115234375 1.008230209350586 M 3.750572204589844 -3.814697265625e-06 C 3.750572204589844 -3.814697265625e-06 8.40142822265625 5.806550979614258 18.45475387573242 11.63322830200195 C 23.64281845092773 14.64786338806152 27.14050674438477 15.70767402648926 37.75764083862305 19.08884048461914 C 48.37477493286133 22.47001838684082 48.99460601806641 22.29139709472656 58.01588439941406 23.82565116882324 C 63.58257675170898 24.77238082885742 68.01181030273438 24.95368576049805 70.58746337890625 24.95368576049805 C 72.18585205078125 24.95368576049805 73.07018280029297 24.88389587402344 73.07018280029297 24.88389587402344 C 77.26837158203125 24.88389587402344 77.91861724853516 26.56856155395508 77.77243041992188 28.22556304931641 C 77.62624359130859 29.8825740814209 75.45607757568359 31.00963973999023 72.46828460693359 31.53997421264648 C 71.77154541015625 31.67515182495117 70.04582977294922 31.82197380065918 67.42588043212891 31.82197380065918 C 64.90200805664063 31.82197380065918 61.54833221435547 31.68582344055176 57.48262786865234 31.2718505859375 C 49.19646453857422 30.42816162109375 52.4407958984375 31.26062965393066 39.32363128662109 28.16519546508789 C 26.20646286010742 25.06976318359375 21.87334060668945 22.1157398223877 15.56717300415039 18.91050720214844 C 7.13360595703125 14.63446235656738 3.838272094726563 10.02189636230469 3.838272094726563 10.02189636230469 C -0.3599166870117188 10.02190780639648 0.01508331298828125 7.914295196533203 0.01508331298828125 4.853384017944336 C 0.01508331298828125 1.792472839355469 -0.4476242065429688 -3.814697265625e-06 3.750572204589844 -3.814697265625e-06 Z" stroke="none" fill="#303030"/></g><g transform="matrix(0.438, -0.899, 0.899, 0.438, 61.134, 77.774)" fill="#fff"><path d="M 62.84521102905273 8.091924667358398 C 62.39333343505859 8.054821968078613 55.20475006103516 7.486184120178223 40.32785415649414 7.486193656921387 C 38.04522323608398 7.486193656921387 35.61011505126953 7.463233947753906 33.25518417358398 7.441033840179443 C 30.83797454833984 7.418253898620605 28.33847427368164 7.394683837890625 25.9333553314209 7.394683837890625 C 21.94876480102539 7.394683837890625 18.89738464355469 7.460483551025391 16.33048439025879 7.601763725280762 C 11.06815528869629 7.890693664550781 7.664134979248047 7.89401388168335 7.521805286407471 7.89401388168335 C 5.447585105895996 7.89401388168335 3.687865018844604 7.51901388168335 2.432205200195313 6.809543609619141 C 1.150085091590881 6.085124015808105 0.5000051259994507 5.072573661804199 0.5000051259994507 3.800023794174194 C 0.5000051259994507 1.561673760414124 2.348615169525146 0.7294637560844421 7.320724964141846 0.7294637560844421 L 7.350735187530518 0.7294637560844421 L 7.3805251121521 0.7258737683296204 C 7.399235248565674 0.7236337661743164 9.299315452575684 0.499993771314621 12.46371555328369 0.499993771314621 C 13.84054470062256 0.499993771314621 15.26349544525146 0.5420137643814087 16.69304466247559 0.6248937845230103 C 22.5030460357666 0.9625037908554077 31.5506649017334 1.172233819961548 40.30504608154297 1.172223806381226 C 55.31423187255859 1.172223806381226 62.94635009765625 0.8410765528678894 63.29384994506836 0.8255871534347534 C 65.59251403808594 0.8267419934272766 70.90715789794922 1.179779052734375 70.90715789794922 4.405923843383789 C 70.90715789794922 5.595333576202393 70.09749603271484 6.530043601989746 68.50066375732422 7.184073925018311 C 67.07578277587891 7.767691612243652 65.06787872314453 8.089914321899414 62.84521102905273 8.091924667358398 Z" stroke="none"/><path d="M 12.46371459960938 0.9999938011169434 C 9.335796356201172 0.9999938011169434 7.458477020263672 1.220113754272461 7.440326690673828 1.222283840179443 L 7.3807373046875 1.229463577270508 L 7.320724487304688 1.229463577270508 C 5.730865478515625 1.229463577270508 3.740463256835938 1.294123649597168 2.449943542480469 1.798333644866943 C 1.420074462890625 2.200703620910645 0.9999923706054688 2.780633926391602 0.9999923706054688 3.800023555755615 C 0.9999923706054688 4.894164085388184 1.548927307128906 5.736184120178223 2.67816162109375 6.374223709106445 C 3.842063903808594 7.031843662261963 5.561996459960938 7.39401388168335 7.521804809570313 7.39401388168335 C 7.66357421875 7.39401388168335 11.05429458618164 7.390703678131104 16.30302429199219 7.102513790130615 C 18.87929534912109 6.960723876953125 21.93939590454102 6.894683837890625 25.93334579467773 6.894683837890625 C 28.34082412719727 6.894683837890625 30.84152603149414 6.918263912200928 33.25989532470703 6.941053867340088 C 35.61366653442383 6.963243961334229 38.04757690429688 6.986193656921387 40.32785797119141 6.986193656921387 C 55.01777648925781 6.986184120178223 62.23237609863281 7.540766716003418 62.86513137817383 7.591897010803223 C 65.01639556884766 7.588064193725586 66.94908905029297 7.279268741607666 68.3111572265625 6.721384048461914 C 69.01875305175781 6.431563854217529 69.55643463134766 6.083454132080078 69.90925598144531 5.68674373626709 C 70.24428558349609 5.310043811798096 70.40714263916016 4.891083717346191 70.40714263916016 4.405923843383789 C 70.40714263916016 3.773813724517822 70.21250152587891 2.851073741912842 68.52950286865234 2.138844013214111 C 67.27660369873047 1.608622074127197 65.47017669677734 1.32750940322876 63.30477142333984 1.3255934715271 C 62.82083129882813 1.346936702728271 55.18064117431641 1.672223567962646 40.30504608154297 1.672223567962646 C 31.54170608520508 1.672233581542969 22.48297500610352 1.462183952331543 16.66410446166992 1.124053955078125 C 15.24410629272461 1.041733741760254 13.83088684082031 0.9999938011169434 12.46371459960938 0.9999938011169434 M 12.46371459960938 -6.67572021484375e-06 C 13.69962692260742 -6.67572021484375e-06 15.12918472290039 0.03339099884033203 16.72198486328125 0.1257333755493164 C 22.5787467956543 0.4660639762878418 31.61854553222656 0.6722335815429688 40.30504608154297 0.6722235679626465 C 55.76145553588867 0.6722235679626465 63.28267669677734 0.3255834579467773 63.28267669677734 0.3255834579467773 C 67.48087310791016 0.3255834579467773 71.40714263916016 1.345013618469238 71.40714263916016 4.405923843383789 C 71.40714263916016 7.466843605041504 67.02275848388672 8.591923713684082 62.82456588745117 8.591934204101563 C 62.82456588745117 8.591934204101563 55.78426361083984 7.986183643341064 40.32785797119141 7.986193656921387 C 35.71926879882813 7.986193656921387 30.69896697998047 7.894688129425049 25.933349609375 7.894688129425049 C 22.53161239624023 7.894688129425049 19.2603645324707 7.941266059875488 16.35797500610352 8.101003646850586 C 11.04286575317383 8.392833709716797 7.577301025390625 8.394013404846191 7.521804809570313 8.394013404846191 C 7.521354675292969 8.394013404846191 7.521133422851563 8.394013404846191 7.521133422851563 8.394013404846191 C 3.322921752929688 8.394013404846191 -7.62939453125e-06 6.860933780670166 -7.62939453125e-06 3.800023555755615 C -7.62939453125e-06 0.7391037940979004 3.122512817382813 0.2294635772705078 7.320724487304688 0.2294635772705078 C 7.320724487304688 0.2294635772705078 9.225662231445313 -6.67572021484375e-06 12.46371459960938 -6.67572021484375e-06 Z" stroke="none" fill="#303030"/></g><g transform="translate(46.382 85.054) rotate(-99)" fill="#fff"><path d="M 7.466830730438232 18.5435733795166 C 3.612855672836304 18.49248504638672 0.500001847743988 16.25060844421387 0.500001847743988 13.50218963623047 C 0.500001847743988 10.72186756134033 3.685724020004272 8.459911346435547 7.601512908935547 8.459911346435547 L 7.694435119628906 8.459911346435547 L 7.781179428100586 8.426523208618164 C 7.832690715789795 8.406689643859863 13.02104663848877 6.420534133911133 20.6408576965332 4.460456371307373 C 25.11301231384277 3.310056209564209 29.53539085388184 2.393578290939331 33.7851676940918 1.736467242240906 C 39.09136962890625 0.9160117506980896 44.1411018371582 0.5000117421150208 48.79411315917969 0.5000117421150208 L 48.79415893554688 0.5000117421150208 C 63.79750061035156 0.5000117421150208 64.30590057373047 0.5838117599487305 66.74893188476563 0.9864783883094788 C 67.674560546875 1.139033913612366 68.82652282714844 1.328911781311035 71.05926513671875 1.576367259025574 C 78.86997222900391 2.442056179046631 79.775634765625 3.191567182540894 81.27610015869141 4.433311939239502 C 81.34670257568359 4.491734027862549 81.41855621337891 4.551200866699219 81.49233245849609 4.611756324768066 C 82.28916931152344 5.265722751617432 82.68601226806641 6.025278568267822 82.58112335205078 6.695667266845703 C 82.45590209960938 7.496089458465576 81.63768768310547 8.216800689697266 80.21495819091797 8.779889106750488 C 79.18442535400391 9.187745094299316 78.33503723144531 9.361789703369141 77.37480163574219 9.361845016479492 C 76.45524597167969 9.361900329589844 75.46321105957031 9.207244873046875 74.09017944335938 8.993189811706543 C 72.42350006103516 8.733356475830078 70.34926605224609 8.409989356994629 67.28953552246094 8.17822265625 C 65.16884613037109 8.017578125 63.80874633789063 7.884311676025391 62.71588134765625 7.777234077453613 C 59.4824333190918 7.460433959960938 58.39318084716797 7.353711605072021 46.75204467773438 7.353700637817383 C 36.07271194458008 7.353700637817383 25.92880249023438 10.41485595703125 19.29964637756348 12.98284530639648 C 12.76113128662109 15.51572704315186 8.25450325012207 18.08408164978027 7.466830730438232 18.5435733795166 Z" stroke="none"/><path d="M 48.79411315917969 1.000011444091797 C 44.16925811767578 1.000011444091797 39.14825820922852 1.413566589355469 33.87059020996094 2.22920036315918 C 29.63883590698242 2.883199691772461 25.23448944091797 3.795567512512207 20.77991485595703 4.940967559814453 C 13.18465423583984 6.893911361694336 8.01214599609375 8.873378753662109 7.96087646484375 8.893100738525391 L 7.78741455078125 8.959911346435547 L 7.601516723632813 8.959911346435547 C 5.781204223632813 8.959911346435547 4.081527709960938 9.468234062194824 2.815567016601563 10.39124488830566 C 1.644783020019531 11.2448673248291 1 12.34968948364258 1 13.50218963623047 C 1 14.65468978881836 1.644783020019531 15.75951194763184 2.815582275390625 16.61313438415527 C 4.019630432128906 17.49102020263672 5.616172790527344 17.99377632141113 7.335563659667969 18.04083633422852 C 8.402931213378906 17.42162704467773 12.74931335449219 14.98408889770508 19.11902618408203 12.51660060882568 C 25.78793334960938 9.933211326599121 35.99545669555664 6.853700637817383 46.75204467773438 6.853700637817383 C 58.41761016845703 6.85371208190918 59.51300048828125 6.961033821105957 62.76463317871094 7.279623031616211 C 63.85504913330078 7.386456489562988 65.21209716796875 7.51942253112793 67.32729339599609 7.679645538330078 C 70.40694427490234 7.912922859191895 72.58048248291016 8.251755714416504 74.16752624511719 8.49915599822998 C 75.5181884765625 8.709712028503418 76.49407958984375 8.861845016479492 77.37483215332031 8.861845016479492 C 78.26808166503906 8.861845016479492 79.06243896484375 8.698300361633301 80.03096008300781 8.31497859954834 C 81.24412536621094 7.834834098815918 81.99356842041016 7.216444969177246 82.08713531494141 6.618378639221191 C 82.16281127929688 6.134700775146484 81.82187652587891 5.529045104980469 81.17513275146484 4.998245239257813 C 81.10081481933594 4.937255859375 81.02843475341797 4.87736701965332 80.95733642578125 4.818511962890625 C 80.19105529785156 4.184367179870605 79.68482208251953 3.765422821044922 78.43642425537109 3.355589866638184 C 76.97817993164063 2.876855850219727 74.68598937988281 2.481389999389648 71.00418090820313 2.073322296142578 C 68.75827789306641 1.824399948120117 67.59906768798828 1.633344650268555 66.66762542724609 1.479822158813477 C 64.25801086425781 1.082656860351563 63.75655746459961 1.000011444091797 48.79411315917969 1.000011444091797 M 48.79411315917969 1.1444091796875e-05 C 48.79536819458008 1.1444091796875e-05 48.79290390014648 1.1444091796875e-05 48.79415893554688 1.1444091796875e-05 C 69.31824493408203 1.1444091796875e-05 62.80115509033203 0.1580333709716797 71.11433410644531 1.079412460327148 C 79.42752075195313 2.000789642333984 80.08910369873047 2.81324577331543 81.80954742431641 4.225255966186523 C 83.52999114990234 5.637256622314453 83.94793701171875 7.840189933776855 80.39895629882813 9.244800567626953 C 79.26412200927734 9.693943977355957 78.35549926757813 9.861846923828125 77.37483215332031 9.861846923828125 C 75.28863525390625 9.861846923828125 72.87474060058594 9.102723121643066 67.25175476074219 8.676789283752441 C 58.98554611206055 8.050622940063477 62.39140319824219 7.85371208190918 46.75204467773438 7.853700637817383 C 26.22795867919922 7.853700637817383 7.601516723632813 19.04446792602539 7.601516723632813 19.04446792602539 C 3.4033203125 19.04446792602539 0 16.56310081481934 0 13.50218963623047 C 0 10.4412784576416 3.403312683105469 7.959911346435547 7.601516723632813 7.959911346435547 C 7.601516723632813 7.959911346435547 28.27127075195313 1.1444091796875e-05 48.79411315917969 1.1444091796875e-05 Z" stroke="none" fill="#303030"/></g><g transform="matrix(0.208, -0.978, 0.978, 0.208, 49.069, 85.622)" fill="#fff"><path d="M 7.466815948486328 18.5435619354248 C 3.612841129302979 18.49247360229492 0.4999980330467224 16.25059700012207 0.4999980330467224 13.50218963623047 C 0.4999980330467224 10.72186660766602 3.685720205307007 8.459911346435547 7.601509094238281 8.459911346435547 L 7.694431304931641 8.459911346435547 L 7.78117561340332 8.426511764526367 C 7.832697868347168 8.406678199768066 13.02075386047363 6.420533657073975 20.64042091369629 4.460444927215576 C 25.11248779296875 3.310044765472412 29.53485298156738 2.393566846847534 33.78468704223633 1.736455798149109 C 39.0909538269043 0.9160003066062927 44.14087677001953 0.4999891817569733 48.79416656494141 0.4999891817569733 C 63.79753112792969 0.4999891817569733 64.30593109130859 0.5837891697883606 66.74896240234375 0.9864447116851807 C 67.67457580566406 1.139011383056641 68.82653045654297 1.328878045082092 71.05926513671875 1.57633364200592 C 78.86997222900391 2.442022562026978 79.77565002441406 3.19153356552124 81.276123046875 4.43327808380127 C 81.34671020507813 4.491700172424316 81.41856384277344 4.551167011260986 81.49234008789063 4.611722469329834 C 82.28917694091797 5.265689373016357 82.68601989746094 6.02524471282959 82.58113098144531 6.695633411407471 C 82.45590972900391 7.496056079864502 81.6376953125 8.216767311096191 80.21495056152344 8.779855728149414 C 79.18441772460938 9.187722206115723 78.33502960205078 9.361766815185547 77.37480163574219 9.361811637878418 C 76.45523071289063 9.36186695098877 75.46318817138672 9.207211494445801 74.09015655517578 8.993155479431152 C 72.42347717285156 8.733322143554688 70.3492431640625 8.409955978393555 67.28952789306641 8.178189277648926 C 65.1688232421875 8.017544746398926 63.80871963500977 7.884289264678955 62.71585464477539 7.77721118927002 C 59.4824104309082 7.460400104522705 58.39314270019531 7.353678226470947 46.75205230712891 7.353689193725586 C 36.07270812988281 7.353689193725586 25.92879867553711 10.41484451293945 19.29964256286621 12.98283386230469 C 12.76111793518066 15.51571559906006 8.254487991333008 18.08407020568848 7.466815948486328 18.5435619354248 Z" stroke="none"/><path d="M 48.79415512084961 0.9999885559082031 C 44.16901016235352 0.9999885559082031 39.14784240722656 1.413555145263672 33.87010955810547 2.229188919067383 C 29.63829803466797 2.8831787109375 25.23397445678711 3.795544624328613 20.77948760986328 4.940944671630859 C 13.18437957763672 6.893899917602539 8.012176513671875 8.873367309570313 7.960906982421875 8.893100738525391 L 7.787429809570313 8.959911346435547 L 7.601516723632813 8.959911346435547 C 5.781196594238281 8.959911346435547 4.081520080566406 9.468234062194824 2.815567016601563 10.39124488830566 C 1.644775390625 11.2448673248291 1 12.34968948364258 1 13.50218963623047 C 1 14.65468978881836 1.644775390625 15.75951194763184 2.815567016601563 16.61313438415527 C 4.019615173339844 17.49100875854492 5.616172790527344 17.99376487731934 7.335556030273438 18.04082489013672 C 8.402931213378906 17.42161560058594 12.74930572509766 14.98407745361328 19.1190185546875 12.51658916473389 C 25.78792953491211 9.933199882507324 35.99546432495117 6.853689193725586 46.75205230712891 6.853689193725586 C 58.41757583618164 6.853677749633789 59.51297760009766 6.961000442504883 62.76461029052734 7.279589653015137 C 63.85503387451172 7.386422157287598 65.21208953857422 7.519389152526855 67.32730102539063 7.679611206054688 C 70.40692901611328 7.912899971008301 72.58046722412109 8.25172233581543 74.16749572753906 8.499122619628906 C 75.51817321777344 8.709677696228027 76.49406433105469 8.861811637878418 77.37481689453125 8.861811637878418 C 78.26807403564453 8.861811637878418 79.06243133544922 8.698266983032227 80.03095245361328 8.314944267272949 C 81.24411773681641 7.834800720214844 81.99356842041016 7.216411590576172 82.08712768554688 6.618355751037598 C 82.16281127929688 6.13466739654541 81.82187652587891 5.529000282287598 81.17513275146484 4.998211860656738 C 81.10080718994141 4.937211036682129 81.02843475341797 4.877311706542969 80.95732116699219 4.818467140197754 C 80.19105529785156 4.184322357177734 79.68482208251953 3.765389442443848 78.43641662597656 3.355555534362793 C 76.97816467285156 2.876823425292969 74.68598937988281 2.481355667114258 71.00418853759766 2.07328987121582 C 68.75828552246094 1.824367523193359 67.59907531738281 1.633312225341797 66.66764068603516 1.479789733886719 C 64.25804138183594 1.082633972167969 63.75659942626953 0.9999885559082031 48.79415512084961 0.9999885559082031 M 48.79415512084961 -1.1444091796875e-05 C 69.31825256347656 -1.1444091796875e-05 62.80115509033203 0.1580009460449219 71.11434173583984 1.079378128051758 C 79.42752838134766 2.000755310058594 80.08909606933594 2.813211441040039 81.80953979492188 4.225211143493652 C 83.52998352050781 5.637222290039063 83.94792938232422 7.840155601501465 80.39895629882813 9.244767189025879 C 79.26412200927734 9.693909645080566 78.35549163818359 9.861815452575684 77.37482452392578 9.861815452575684 C 75.28863525390625 9.861815452575684 72.87474060058594 9.102697372436523 67.25176239013672 8.676755905151367 C 58.98554229736328 8.050600051879883 62.39139556884766 7.853677749633789 46.75205230712891 7.853689193725586 C 26.22795486450195 7.853689193725586 7.601509094238281 19.04445648193359 7.601509094238281 19.04445648193359 C 3.403312683105469 19.04445648193359 -1.52587890625e-05 16.56310081481934 0 13.50218963623047 C 0 10.4412784576416 3.403312683105469 7.959911346435547 7.601516723632813 7.959911346435547 C 7.601516723632813 7.959911346435547 28.27007675170898 -1.1444091796875e-05 48.79415512084961 -1.1444091796875e-05 Z" stroke="none" fill="#303030"/></g><ellipse cx="16" cy="8.5" rx="16" ry="8.5" transform="matrix(0.899, 0.438, -0.438, 0.899, 54.708, 61.233)" fill="#fff"/><g transform="matrix(-0.875, -0.485, 0.485, -0.875, 72.003, 95.62)" fill="#303030"><path d="M 1.696680188179016 14.78312587738037 C 1.696536302566528 14.78312587738037 1.696408867835999 14.78312587738037 1.696264982223511 14.78312587738037 C 1.352505087852478 14.78305625915527 1.27011501789093 14.68020629882813 1.23493504524231 14.63628578186035 C 1.164295077323914 14.54811573028564 1.000005006790161 14.25917625427246 1.000005006790161 13.48247623443604 C 1.000005006790161 12.11289596557617 1.461205005645752 10.64835643768311 2.370805025100708 9.129526138305664 C 3.214854955673218 7.720136165618896 4.432075023651123 6.307275772094727 5.890854835510254 5.043675899505615 C 7.284214973449707 3.836755990982056 8.83399486541748 2.815845966339111 10.37263488769531 2.091315984725952 C 11.8888053894043 1.377375960350037 13.28878498077393 1.000005960464478 14.42122459411621 1.000005960464478 C 17.0606746673584 1.0000159740448 20.71837425231934 2.105685949325562 23.52296447753906 3.751345872879028 C 25.451904296875 4.883195877075195 28.68789482116699 7.288995742797852 28.68790435791016 10.68456554412842 C 28.68790435791016 11.1985559463501 28.61749458312988 11.88255596160889 28.28204536437988 12.22223567962646 C 28.06160545349121 12.44545555114746 27.69023513793945 12.55396556854248 27.14670562744141 12.55396556854248 C 25.79002571105957 12.55396556854248 23.75698471069336 11.84849643707275 21.79088592529297 11.16625595092773 C 19.47920417785645 10.36409568786621 17.08882522583008 9.534626007080078 15.09999465942383 9.534626007080078 L 15.09990501403809 11.53462600708008 L 15.09998512268066 9.534626007080078 C 12.77047538757324 9.534626007080078 9.907005310058594 11.05339622497559 7.137814998626709 12.52215576171875 C 5.04210090637207 13.63372039794922 2.875017881393433 14.78312587738037 1.696680188179016 14.78312587738037 Z" stroke="none"/><path d="M 2.008840799331665 13.74505138397217 C 2.294156789779663 13.68788814544678 2.768950939178467 13.5490198135376 3.520385026931763 13.22083568572998 C 4.461225032806396 12.80993556976318 5.533945083618164 12.24097633361816 6.669644832611084 11.63860607147217 C 9.546785354614258 10.1125955581665 12.52187538146973 8.534626007080078 15.10000514984131 8.534626007080078 C 17.25739479064941 8.534635543823242 19.72873497009277 9.392195701599121 22.11870574951172 10.22151565551758 C 24.00651550292969 10.87658596038818 25.95859527587891 11.55396556854248 27.14670562744141 11.55396556854248 C 27.3928108215332 11.55396556854248 27.52058601379395 11.52321147918701 27.57271957397461 11.5060453414917 C 27.6059398651123 11.43293571472168 27.68790435791016 11.20010089874268 27.68790435791016 10.68456554412842 C 27.68790435791016 7.787265777587891 24.76135444641113 5.63744592666626 23.01687431335449 4.613825798034668 C 19.93970489501953 2.808225870132446 16.48246574401855 2.000005960464478 14.42121505737305 2.000005960464478 C 12.33422470092773 2.000005960464478 9.169235229492188 3.526975870132446 6.545545101165771 5.799675941467285 C 3.699265003204346 8.265186309814453 2.000005006790161 11.13725566864014 2.000005006790161 13.48247623443604 C 2.000005006790161 13.5844144821167 2.00347638130188 13.67142963409424 2.008840799331665 13.74505138397217 M 1.69604229927063 15.78313064575195 C 0.6465742588043213 15.7828950881958 7.602844107168494e-06 15.1592264175415 5.039978077547858e-06 13.48247623443604 C -4.960022124578245e-06 6.94001579284668 9.155935287475586 -4.032592642033705e-06 14.42122459411621 5.967407105345046e-06 C 19.68651580810547 1.596740730747115e-05 29.68789482116699 4.142086029052734 29.68790435791016 10.68456554412842 C 29.68790817260742 12.83291149139404 28.68341445922852 13.55396175384521 27.14670944213867 13.55396175384521 C 24.00360679626465 13.55396175384521 18.63633346557617 10.53463268280029 15.09999465942383 10.53462600708008 C 15.0996732711792 10.53462600708008 15.10030841827393 10.53462600708008 15.0999870300293 10.53462600708008 C 11.18401908874512 10.53462600708008 4.74122428894043 15.78381443023682 1.69604229927063 15.78313064575195 Z" stroke="none" fill="#fff"/></g><path d="M-.314.431,2.552-.537l2.57,1.9.243,6.6-6.146.04Z" transform="translate(29.829 153.749) rotate(16)" fill="#303030"/><path d="M-.314.431,2.552-.537l2.57,1.9L3.165,6.544-1.47,5.2Z" transform="translate(59.591 82.826) rotate(12)" fill="#303030"/></g></svg>