<svg xmlns="http://www.w3.org/2000/svg" width="75.232" height="81.702" viewBox="0 0 75.232 81.702"><g transform="translate(44.464 -15.288) rotate(60)"><path d="M2.5.554S5.241.448,12.624.418C15.181.408,21.745,0,24.708,0c10.25,0,19.067.975,19.067.975,1.381,0,1.833,1.167,1.833,2.547S44.881,5.554,43.5,5.554A99.765,99.765,0,0,0,23.345,3.21c-3.649,0-5.643.239-9.287.523A87.017,87.017,0,0,0,2.5,5.554a2.5,2.5,0,1,1,0-5Z" transform="matrix(0.391, 0.921, -0.921, 0.391, 43.944, 31.475)" fill="#303030"/><path d="M3.429,12.336S8.753,3.786,22.077,2.264a78.183,78.183,0,0,1,8.154-.414,37.87,37.87,0,0,1,5.806.415l4.491.559c1.894,0,2.226-1.278,1.821-2.295S37.76-.6,37.76-.6a54.511,54.511,0,0,0-6.374-.5,51.142,51.142,0,0,0-9.709.432c-9.569.733-18.248,8-18.248,8C1.535,7.336,0,8.455,0,9.836S1.535,12.336,3.429,12.336Z" transform="matrix(-0.966, -0.259, 0.259, -0.966, 42.149, 46.066)" fill="#fff"/><path d="M2.5,5S13.23,9.382,23.981,9.382,39.506,6.621,39.506,6.621,42.4,5.41,42.524,4.507,42.009,2.8,40.769,2.693a6.05,6.05,0,0,0-2.889.915A41.314,41.314,0,0,1,24.9,5.681a43.486,43.486,0,0,1-9.783-.616A47.3,47.3,0,0,1,2.5,0a2.5,2.5,0,1,0,0,5Z" transform="matrix(0.574, -0.819, 0.819, 0.574, 39.551, 36.242)" fill="#fff"/><path d="M1.465,14.589a4.293,4.293,0,0,0,2.377-1.24A29.289,29.289,0,0,1,9.415,9.183c2.34-1.36,3.918-1.838,8.707-3.363A34.786,34.786,0,0,1,28.148,3.788c3.823-.308,6.251-.736,6.251-.736,1.894,0,2.012-.994,1.511-1.881S34.055-.2,29.856.075A47.659,47.659,0,0,0,18.828,1.726,36.887,36.887,0,0,0,8.112,5.9a19.927,19.927,0,0,0-5.679,4.09S.266,11.782.024,12.932,1.465,14.589,1.465,14.589Z" transform="translate(33.813 46.91) rotate(-139)" fill="#fff"/><path d="M1.692,14.354A25.2,25.2,0,0,1,8.325,9.107c2.34-1.36,3.918-1.838,8.707-3.363A45.243,45.243,0,0,1,26.17,3.607,30.442,30.442,0,0,1,32.96,3.13c1.894,0,2.187-.76,2.121-1.507S34.037.367,32.689.127a30.261,30.261,0,0,0-6.76.121c-3.738.381-2.274.005-8.191,1.4A36.888,36.888,0,0,0,7.022,5.824,15.2,15.2,0,0,0,1.731,9.834c-1.894,0-1.725.951-1.725,2.331S-.2,14.354,1.692,14.354Z" transform="matrix(-0.53, -0.848, 0.848, -0.53, 34.909, 43.635)" fill="#fff"/><path d="M3.3,3.772a26.4,26.4,0,0,0,4.241.047c2.642-.154,6.72-.247,10.638-.247,6.972,0,10.365.156,10.365.156,1.894,0,3.665-.46,3.665-1.841S30.233,0,28.339,0c0,0-3.176.273-10.148.273-3.563,0-7.669.121-10.812-.052C4.962.089,3.393.089,3.393.089,1.5.089,0,.781,0,2.162S1.409,3.772,3.3,3.772Z" transform="matrix(-0.438, -0.899, 0.899, -0.438, 40.576, 36.781)" fill="#fff"/><path d="M3.429,5S12.752,8.591,22.01,8.591s6.318-.071,10.068-.487,4.048-.782,4.824-1.419.965-1.631-.636-2.264-2.2-.026-5.93.256a63.826,63.826,0,0,1-9.247.371C11.831,5.048,3.429,0,3.429,0,1.535,0,0,1.119,0,2.5S1.535,5,3.429,5Z" transform="translate(42.23 37.022) rotate(-81)" fill="#fff"/><path d="M3.429,5S12.752,8.591,22.01,8.591s6.318-.071,10.068-.487,4.048-.782,4.824-1.419.965-1.631-.636-2.264-2.2-.026-5.93.256a63.826,63.826,0,0,1-9.247.371C11.831,5.048,3.429,0,3.429,0,1.535,0,0,1.119,0,2.5S1.535,5,3.429,5Z" transform="matrix(-0.208, -0.978, 0.978, -0.208, 41.099, 40.409)" fill="#fff"/><path d="M6.811,1.905c2.375,0,6.58-2.429,6.58-.054S8.88,5.73,6.505,5.73,0,3.21,0,.835,4.436,1.905,6.811,1.905Z" transform="matrix(0.848, -0.53, 0.53, 0.848, 36.428, 38.499)" fill="#303030"/><path d="M4.291,0C6.15,0,7.659,2.045,8.128,4.308A11.853,11.853,0,0,1,7.7,7.7s-1.724,5.892-3.537,5.978S.448,8.054.448,8.054A10.415,10.415,0,0,1,.137,3.745C.565,2.084,2.5,0,4.291,0Z" transform="translate(53.512 70.686) rotate(-13)" fill="#303030"/></g></svg>