<svg xmlns="http://www.w3.org/2000/svg" width="125.768" height="125.768" viewBox="0 0 125.768 125.768"><g transform="translate(-1118 -306)"><path d="M62.884,0A62.884,62.884,0,1,1,0,62.884,62.884,62.884,0,0,1,62.884,0Z" transform="translate(1118 306)" fill="#303030"/><path d="M13.081,0s-.006,6.307-3.276,9.487S0,12.718,0,12.718s6.535.316,9.805,3.5,3.276,9.223,3.276,9.223.29-6.043,3.56-9.223,9.521-3.5,9.521-3.5-6.25-.051-9.521-3.231S13.081,0,13.081,0Z" transform="translate(1167.228 336.161)" fill="#fffc33"/><g transform="translate(1087.878 353.993)" fill="#b1efdf"><path d="M 89.12729644775391 53.69949722290039 C 81.26111602783203 53.69949722290039 73.96595764160156 52.8329963684082 67.44443511962891 51.12405395507813 C 61.68881607055664 49.61583709716797 56.46671676635742 47.43523406982422 51.92315673828125 44.64285659790039 C 47.97339630126953 42.21539688110352 44.52853775024414 39.32535552978516 41.6843147277832 36.05297470092773 C 39.24349594116211 33.24473571777344 37.29909515380859 30.22941589355469 35.90511703491211 27.09075546264648 C 34.70733642578125 24.39389610290527 33.96585464477539 21.65431594848633 33.81725692749023 19.37669563293457 C 33.70175933837891 17.60660362243652 33.96976089477539 16.62600135803223 34.15643692016602 16.23835754394531 C 34.16226196289063 16.23836898803711 34.1680793762207 16.23837471008301 34.17389678955078 16.23837471008301 C 38.22661590576172 16.23837471008301 41.79777526855469 13.71535491943359 45.57859420776367 11.0441951751709 C 50.37523651123047 7.655355453491211 55.81189727783203 3.814355373382568 63.58713531494141 3.814355373382568 C 66.71293640136719 3.814355373382568 69.31083679199219 4.28971529006958 71.76287841796875 5.310355186462402 C 73.94919586181641 6.220375537872314 75.73401641845703 7.444555282592773 77.62363433837891 8.740595817565918 C 81.34835815429688 11.29527568817139 85.57003784179688 14.19081497192383 93.00399780273438 14.19081497192383 L 93.07947540283203 14.19073581695557 C 100.7698974609375 14.17099571228027 105.5613784790039 11.13857555389404 109.788818359375 8.463115692138672 C 113.7302780151367 5.968655586242676 117.1342544555664 3.814355373382568 122.6452560424805 3.814355373382568 C 128.2647552490234 3.814355373382568 132.1866912841797 6.73291540145874 136.3389129638672 9.82281494140625 C 140.5798950195313 12.97879505157471 144.9652557373047 16.24219512939453 151.1460571289063 16.24219512939453 C 151.3448791503906 16.24219512939453 151.5387420654297 16.2388744354248 151.7387084960938 16.2320556640625 C 151.7639923095703 16.2311954498291 151.7898559570313 16.23075485229492 151.8146820068359 16.23075485229492 C 152.3066101074219 16.23075485229492 152.5263977050781 16.38829612731934 152.7050170898438 16.62483596801758 C 153.0449981689453 17.07503509521484 153.2497100830078 17.90121459960938 153.2666625976563 18.89153480529785 C 153.3086090087891 21.34293556213379 152.2650146484375 24.59355545043945 150.4034423828125 27.80993461608887 C 148.1002349853516 31.78933525085449 144.6165771484375 35.66759490966797 140.3290557861328 39.02545547485352 C 135.1435394287109 43.08659362792969 128.8592224121094 46.37655639648438 121.6506195068359 48.803955078125 C 113.2116775512695 51.64563369750977 103.5679931640625 53.27021408081055 92.98749542236328 53.6325569152832 C 91.69055938720703 53.67697525024414 90.39181518554688 53.69949722290039 89.12729644775391 53.69949722290039 Z" stroke="none"/><path d="M 63.58715057373047 6.314342498779297 C 56.60591125488281 6.314342498779297 51.73330688476563 9.756843566894531 47.02113342285156 13.08601760864258 C 43.52255249023438 15.55775833129883 40.18919372558594 17.91289901733398 36.28965759277344 18.56248474121094 C 36.29086303710938 19.34989547729492 36.39649963378906 20.47953796386719 36.75405883789063 21.93990707397461 C 37.27015686035156 24.04775619506836 38.4388427734375 27.36479949951172 41.07571411132813 31.19695281982422 C 42.84371948242188 33.76638793945313 45.00343322753906 36.16386413574219 47.49491882324219 38.32277679443359 C 50.33839416503906 40.78668975830078 53.6190185546875 42.94001770019531 57.24569702148438 44.72290802001953 C 65.98750305175781 49.02045059204102 76.71401977539063 51.19949340820313 89.12730407714844 51.19949340820313 C 90.36367034912109 51.19949340820313 91.63362884521484 51.17747497558594 92.90193176269531 51.13404083251953 C 100.6198272705078 50.86973571777344 107.8610229492188 49.91584396362305 114.4243469238281 48.29886627197266 C 120.2515869140625 46.86323547363281 125.6095428466797 44.89058303833008 130.3493957519531 42.43569183349609 C 134.4976959228516 40.28717041015625 138.1768951416016 37.77040863037109 141.2848052978516 34.955322265625 C 143.9668884277344 32.52590942382813 146.1681060791016 29.93245124816895 147.8272705078125 27.24697494506836 C 149.5875396728516 24.39782333374023 150.2901916503906 22.16429901123047 150.5696716308594 20.79232025146484 C 150.76025390625 19.85671997070313 150.7859191894531 19.18573760986328 150.760009765625 18.73844146728516 C 143.9547882080078 18.60689544677734 139.1209716796875 15.00936889648438 134.8464050292969 11.82840728759766 C 130.8704223632813 8.869625091552734 127.4366073608398 6.314342498779297 122.645263671875 6.314342498779297 C 117.8588943481445 6.314342498779297 114.887565612793 8.194820404052734 111.1257629394531 10.57560348510742 C 106.8360900878906 13.29043197631836 101.4974594116211 16.66914749145508 93.08699798583984 16.69071197509766 L 93.00397491455078 16.69082260131836 C 84.7950439453125 16.69082260131836 80.23384857177734 13.56238555908203 76.20956420898438 10.8022346496582 C 72.55380249023438 8.294841766357422 69.666259765625 6.314342498779297 63.58715057373047 6.314342498779297 M 63.58715057373047 1.314342498779297 C 78.50711059570313 1.314342498779297 79.37716674804688 11.69082260131836 93.00398254394531 11.69082260131836 C 93.02731323242188 11.69082260131836 93.04965972900391 11.6907958984375 93.07306671142578 11.69073486328125 C 106.7670211791992 11.65560531616211 109.9471969604492 1.314342498779297 122.645263671875 1.314342498779297 C 135.1526489257813 1.314342498779297 140.0981140136719 13.7421760559082 151.1460418701172 13.7421760559082 C 151.314453125 13.7421760559082 151.4822540283203 13.73933410644531 151.6535491943359 13.73349380493164 C 151.7071533203125 13.73166656494141 151.7619934082031 13.73072814941406 151.8146514892578 13.73072814941406 C 162.9675903320313 13.73072814941406 152.6679382324219 54.09021759033203 93.07306671142578 56.131103515625 C 91.73184204101563 56.17703628540039 90.41603851318359 56.19950485229492 89.12729644775391 56.19950485229492 C 33.06889343261719 56.19950485229492 26.26425170898438 13.73353958129883 33.83358764648438 13.73210144042969 C 33.85871887207031 13.73209762573242 33.88362121582031 13.73255920410156 33.90907287597656 13.73349380493164 C 33.99740600585938 13.73674011230469 34.0858154296875 13.73834609985352 34.17390441894531 13.73834609985352 C 41.93048095703125 13.73834609985352 48.80947875976563 1.314342498779297 63.58715057373047 1.314342498779297 Z" stroke="none" fill="#fff"/></g><g transform="translate(1112.595 377.655)" fill="#b1efdf"><path d="M 66.54835510253906 43.67396926879883 C 58.07231140136719 43.67396926879883 49.95121383666992 42.30899047851563 42.41065216064453 39.61697006225586 C 35.93747329711914 37.30599212646484 30.00869369506836 34.07406997680664 24.78899383544922 30.01097106933594 C 19.23391342163086 25.68683052062988 15.8794527053833 21.50187110900879 14.04359340667725 18.75259017944336 C 11.88909339904785 15.52611064910889 10.59047317504883 12.38403034210205 10.56979274749756 10.34751033782959 C 10.5635929107666 9.736750602722168 10.6816930770874 9.378170013427734 10.78473281860352 9.256669998168945 C 10.86241340637207 9.165030479431152 11.12245273590088 9.101570129394531 11.44717311859131 9.094970703125 C 18.27299308776855 8.956330299377441 22.76331329345703 5.930630207061768 26.72503280639648 3.261110305786133 C 30.56067276000977 0.6765503287315369 33.87323379516602 -1.555549740791321 39.06453323364258 -1.555549740791321 C 44.3032112121582 -1.555549740791321 48.42869186401367 1.009270310401917 52.79641342163086 3.72467041015625 C 57.55535125732422 6.683310508728027 62.47629165649414 9.742670059204102 69.10901641845703 9.742670059204102 C 76.03013610839844 9.742670059204102 81.10585021972656 6.337250232696533 85.58407592773438 3.332710266113281 C 89.49359130859375 0.709730327129364 92.86997222900391 -1.555549740791321 96.96065521240234 -1.555549740791321 C 101.4834518432617 -1.555549740791321 105.5941925048828 0.8169103264808655 109.9463348388672 3.328670263290405 C 114.3245162963867 5.855485916137695 118.8509674072266 8.467973709106445 123.9794387817383 8.556765556335449 C 124.1744842529297 9.17695426940918 124.257926940918 11.53173351287842 121.9751510620117 15.87921047210693 C 120.4567337036133 18.77103042602539 118.2540740966797 21.78705024719238 115.6053161621094 24.60120964050293 C 112.5006942749023 27.89970970153809 108.8571701049805 30.87022972106934 104.775993347168 33.43027114868164 C 100.0914764404297 36.36878967285156 94.89398956298828 38.71694946289063 89.32799530029297 40.40953063964844 C 83.017333984375 42.32854843139648 76.18867492675781 43.41389083862305 69.03166961669922 43.63539123535156 C 68.20445251464844 43.66099166870117 67.36894989013672 43.67396926879883 66.54835510253906 43.67396926879883 Z" stroke="none"/><path d="M 39.06451416015625 0.9444580078125 C 34.63690185546875 0.9444580078125 31.76190185546875 2.881698608398438 28.12203216552734 5.3343505859375 C 24.21280670166016 7.968494415283203 19.82363891601563 10.92608642578125 13.25498962402344 11.50057220458984 C 13.40132904052734 12.07267951965332 13.65181732177734 12.8177433013916 14.06766510009766 13.73308944702148 C 15.09712219238281 15.9991340637207 16.76214599609375 18.50822067260742 18.88270568847656 20.98906898498535 C 21.05318450927734 23.52835083007813 23.61077117919922 25.94172096252441 26.48440551757813 28.16211318969727 C 29.70529174804688 30.65082931518555 33.25399017333984 32.83761215209961 37.03194427490234 34.66176605224609 C 41.24066162109375 36.69389343261719 45.73886108398438 38.2750244140625 50.40159606933594 39.36128616333008 C 55.56472778320313 40.56409072875977 60.99729156494141 41.17398071289063 66.54837799072266 41.17398071289063 C 67.34355926513672 41.17398071289063 68.15301513671875 41.16139602661133 68.95433807373047 41.13658905029297 C 79.80693054199219 40.80069732666016 89.69255065917969 38.45687103271484 98.33663940429688 34.1701774597168 C 107.0175323486328 29.86526489257813 112.5164947509766 24.54400253295898 115.6009216308594 20.83809089660645 C 118.3444061279297 17.54180717468262 119.8030319213867 14.80295944213867 120.5435791015625 13.08580780029297 C 120.9336013793945 12.18141937255859 121.1820983886719 11.42855072021484 121.3368148803711 10.83045959472656 C 116.6855010986328 10.10475158691406 112.6347885131836 7.766769409179688 108.696662902832 5.493938446044922 C 104.6428146362305 3.154331207275391 100.8137741088867 0.9444580078125 96.96064758300781 0.9444580078125 C 95.51998901367188 0.9444580078125 94.07623291015625 1.311874389648438 92.4169921875 2.100719451904297 C 90.66842651367188 2.93206787109375 88.87532043457031 4.135089874267578 86.9769287109375 5.408763885498047 C 82.43885803222656 8.453437805175781 76.79109954833984 12.24265480041504 69.1090087890625 12.24265480041504 C 61.76253509521484 12.24265480041504 56.29785919189453 8.845264434814453 51.47647094726563 5.847827911376953 C 47.244384765625 3.216743469238281 43.58942413330078 0.9444580078125 39.06451416015625 0.9444580078125 M 39.06451416015625 -4.0555419921875 C 50.958251953125 -4.0555419921875 57.260009765625 7.242656707763672 69.1090087890625 7.242656707763672 C 80.95803833007813 7.242656707763672 86.85542297363281 -4.0555419921875 96.96064758300781 -4.0555419921875 C 107.0658416748047 -4.0555419921875 114.8140335083008 5.934112548828125 124.0743789672852 6.057914733886719 C 133.3347015380859 6.181743621826172 117.2041397094727 44.64567565917969 69.1090087890625 46.13419723510742 C 68.24890899658203 46.16082000732422 67.39163970947266 46.17397689819336 66.54839324951172 46.17397689819336 C 20.23896789550781 46.17397689819336 -0.5820465087890625 6.838768005371094 11.39640045166016 6.595481872558594 C 23.59297180175781 6.347763061523438 27.1707763671875 -4.0555419921875 39.06451416015625 -4.0555419921875 Z" stroke="none" fill="#fff"/></g><g transform="translate(1125.859 391.867)" fill="#b1efdf"><path d="M 53.19046401977539 35.42607498168945 C 48.20563125610352 35.42607498168945 43.30249786376953 34.87313842773438 38.61726379394531 33.78262329101563 C 34.42609786987305 32.80710601806641 30.36709785461426 31.39319038391113 26.55299758911133 29.58013916015625 C 18.02731513977051 25.52742385864258 12.83266448974609 20.51110649108887 10.49501419067383 17.88165664672852 C 8.990047454833984 16.18882369995117 7.787997722625732 14.51432323455811 7.018847942352295 13.0391902923584 C 6.629096031188965 12.29172801971436 6.41679859161377 11.71802711486816 6.306625366210938 11.31625366210938 C 9.629526138305664 10.7194881439209 12.42090511322021 8.828082084655762 15.12819766998291 6.993806838989258 C 18.59789848327637 4.642956733703613 21.87518119812012 2.422490119934082 26.40513038635254 2.422490119934082 C 30.25963020324707 2.422490119934082 33.80831527709961 4.19163990020752 37.91733169555664 6.240123271942139 C 42.82303237915039 8.685790061950684 48.38328170776367 11.45777320861816 55.52498245239258 11.45975685119629 L 55.53266525268555 11.45975685119629 C 62.75297927856445 11.45975685119629 67.94659423828125 8.646256446838379 72.52884674072266 6.163956642150879 C 76.23396301269531 4.156806945800781 79.43381500244141 2.42339015007019 83.11726379394531 2.422490119934082 C 87.28474426269531 2.422490119934082 91.07260131835938 4.747390270233154 94.7357177734375 6.99575662612915 C 97.16907501220703 8.489307403564453 99.65863037109375 10.01738357543945 102.278076171875 10.84271144866943 C 101.9096069335938 11.34015560150146 101.5352096557617 11.89803314208984 101.1725997924805 12.52009010314941 C 100.3016967773438 14.01504039764404 98.6474609375 16.39962387084961 95.71046447753906 19.27359008789063 C 92.94461822509766 21.98008918762207 89.73117828369141 24.44545745849609 86.15944671630859 26.60122299194336 C 82.00605010986328 29.10805702209473 77.47836303710938 31.11883926391602 72.70219421386719 32.57772445678711 C 67.23479461669922 34.24774169921875 61.42831420898438 35.19364166259766 55.44404602050781 35.38914108276367 C 54.6937141418457 35.41365814208984 53.93549728393555 35.42607498168945 53.19046401977539 35.42607498168945 Z" stroke="none"/><path d="M 26.40513610839844 4.922489166259766 C 22.642333984375 4.922489166259766 19.81000518798828 6.84149169921875 16.53046417236328 9.06348991394043 C 14.51686096191406 10.42777442932129 12.32653045654297 11.91176414489746 9.821662902832031 12.89435386657715 C 10.23636627197266 13.55463600158691 10.78756713867188 14.33579444885254 11.51026153564453 15.22052574157715 C 13.07722473144531 17.13883590698242 15.86918640136719 20.06132698059082 20.27142333984375 23.09025382995605 C 24.51187896728516 26.00785446166992 29.23415374755859 28.32814407348633 34.30704498291016 29.98667144775391 C 40.27280426025391 31.93710708618164 46.62611770629883 32.92607116699219 53.19046020507813 32.92607116699219 C 53.9085693359375 32.92607116699219 54.63929748535156 32.91408920288086 55.3624267578125 32.89047241210938 C 61.12673568725586 32.70214462280273 66.71495056152344 31.79249000549316 71.97187805175781 30.18678092956543 C 76.55144500732422 28.78794479370117 80.89020538330078 26.86147308349609 84.86760711669922 24.46085357666016 C 88.27418518066406 22.40476226806641 91.333984375 20.0583438873291 93.96196746826172 17.48674392700195 C 95.81771087646484 15.67084503173828 97.41517639160156 13.76366233825684 98.53785705566406 12.03188896179199 C 96.77734375 11.18223571777344 95.09063720703125 10.14693450927734 93.42797088623047 9.12641716003418 C 89.90567779541016 6.964508056640625 86.5787353515625 4.922489166259766 83.11785888671875 4.922489166259766 C 80.0677490234375 4.923236846923828 77.26634979248047 6.440818786621094 73.71966552734375 8.362127304077148 C 69.11602783203125 10.85603523254395 63.38662338256836 13.95976257324219 55.53266143798828 13.95976257324219 L 55.52429962158203 13.95976257324219 C 47.79431533813477 13.95761680603027 41.95436859130859 11.04619979858398 36.80189514160156 8.477508544921875 C 32.97555541992188 6.569927215576172 29.67100524902344 4.922489166259766 26.40513610839844 4.922489166259766 M 83.12008666992188 -0.07751083374023438 C 92.29042053222656 -0.07753753662109375 98.92640686035156 8.964183807373047 106.0724487304688 8.964183807373047 C 106.1634521484375 8.964183807373047 106.2540664672852 8.962728500366211 106.3452453613281 8.959762573242188 C 106.4289398193359 8.957040786743164 106.5056533813477 8.955612182617188 106.5751724243164 8.955612182617188 C 108.3487014770508 8.955612182617188 105.6051712036133 9.880281448364258 103.332405090332 13.77912712097168 C 98.31197357177734 22.39699935913086 81.93876647949219 37.02490997314453 55.52568054199219 37.88779830932617 C 54.74052047729492 37.91344833374023 53.95964813232422 37.92607498168945 53.19046020507813 37.92607498168945 C 16.67461395263672 37.92607498168945 -1.763763427734375 9.658481597900391 5.1240234375 8.959762573242188 C 12.15691375732422 8.246326446533203 16.90529632568359 -0.07751083374023438 26.40513610839844 -0.07751083374023438 C 35.90495300292969 -0.07751083374023438 43.21397018432617 8.956344604492188 55.52568054199219 8.959762573242188 C 55.52793502807617 8.959762573242188 55.5304069519043 8.95976448059082 55.53266143798828 8.95976448059082 C 67.83978271484375 8.95976448059082 73.82945251464844 -0.07523727416992188 83.11664581298828 -0.07751083374023438 C 83.11777496337891 -0.07751083374023438 83.11894989013672 -0.07751083374023438 83.12008666992188 -0.07751083374023438 Z" stroke="none" fill="#fff"/></g><path d="M9.228,17.943s0-4.45,2.311-6.692,6.917-2.279,6.917-2.279-4.61-.223-6.917-2.466S9.228,0,9.228,0s-.2,4.263-2.512,6.506S0,8.972,0,8.972s4.409.036,6.716,2.279S9.228,17.943,9.228,17.943Z" transform="matrix(-0.966, -0.259, 0.259, -0.966, 1205.72, 343.89)" fill="#fffc33"/><path d="M9.228,0s0,4.45,2.311,6.692,6.917,2.279,6.917,2.279-4.61.223-6.917,2.466-2.311,6.506-2.311,6.506-.2-4.263-2.512-6.506S0,8.972,0,8.972s4.409-.036,6.716-2.279S9.228,0,9.228,0Z" transform="matrix(0.966, -0.259, 0.259, 0.966, 1150.577, 326.558)" fill="#fffc33"/><g transform="translate(1124.387 406.956)" fill="#b1efdf"><path d="M 55.82158660888672 21.52164649963379 C 43.99574279785156 21.52164649963379 35.09837341308594 18.09440422058105 29.71680068969727 15.21930408477783 C 26.12192916870117 13.29874706268311 23.72784423828125 11.4362325668335 22.35247230529785 10.21197509765625 C 21.80270957946777 9.722615242004395 21.35575866699219 9.281641960144043 20.99596977233887 8.895715713500977 C 22.22103691101074 8.501413345336914 23.23534774780273 7.890083789825439 24.17390060424805 7.324432849884033 C 26.08541488647461 6.172389984130859 28.06201553344727 4.981118202209473 32.48405838012695 4.981118202209473 C 36.04958724975586 4.981118202209473 38.39802932739258 6.046818256378174 41.37125778198242 7.396047115325928 C 45.09114456176758 9.084104537963867 49.30735778808594 10.997389793396 56.61044311523438 11.06041812896729 C 56.72407150268555 11.06140422821045 56.83835983276367 11.06190395355225 56.95072937011719 11.06190395355225 C 64.44802856445313 11.06190395355225 69.26172637939453 8.895833015441895 73.12958526611328 7.155361175537109 C 75.83111572265625 5.939718246459961 77.96495819091797 4.979532718658447 80.37331390380859 4.979532718658447 C 80.42356872558594 4.979532718658447 80.47342681884766 4.979947090148926 80.52404022216797 4.980775356292725 C 83.48234558105469 5.029546737670898 85.68939971923828 5.98708963394165 88.02605438232422 7.000846862792969 C 89.89657592773438 7.812374591827393 91.95362091064453 8.704753875732422 94.43882751464844 9.105158805847168 C 94.02264404296875 9.447182655334473 93.53021240234375 9.826864242553711 92.95069885253906 10.24170398712158 C 91.25037384033203 11.45886135101318 88.32312774658203 13.31868934631348 84.03374481201172 15.26676082611084 C 79.97029876708984 17.11220359802246 75.68094635009766 18.58434677124023 71.28481292724609 19.64227485656738 C 66.15751647949219 20.87616157531738 61.00793075561523 21.50840377807617 55.9791145324707 21.52144622802734 L 55.82158660888672 21.52164649963379 Z" stroke="none"/><path d="M 80.37342834472656 7.479547500610352 L 80.37358093261719 7.479547500610352 C 78.50171661376953 7.479663848876953 76.67877197265625 8.299930572509766 74.15571594238281 9.435247421264648 C 70.06980133056641 11.27377986907959 64.98477172851563 13.56191349029541 56.95073318481445 13.56191349029541 C 56.83126831054688 13.56191349029541 56.70976638793945 13.56138038635254 56.5888671875 13.56034660339355 C 48.75638580322266 13.49273014068604 44.08871459960938 11.37458038330078 40.33818054199219 9.672630310058594 C 37.53455352783203 8.400363922119141 35.50886535644531 7.481130599975586 32.48404693603516 7.481130599975586 C 28.75713348388672 7.481130599975586 27.23121643066406 8.400764465332031 25.46436309814453 9.465629577636719 C 25.44441986083984 9.477653503417969 25.42441558837891 9.489707946777344 25.40435028076172 9.501796722412109 C 26.9219970703125 10.68189907073975 28.98508453369141 12.05115413665771 31.68288421630859 13.42571353912354 C 36.69326782226563 15.97854709625244 44.94823455810547 19.02164649963379 55.82154846191406 19.02164649963379 L 55.97263336181641 19.02144622802734 C 60.6292839050293 19.00938034057617 65.40353393554688 18.44319725036621 70.16275024414063 17.33863067626953 C 74.27793884277344 16.38352966308594 78.31393432617188 15.04676342010498 82.15863037109375 13.36546325683594 C 84.88828277587891 12.17177677154541 87.07357788085938 10.99920082092285 88.72312927246094 10.01345634460449 C 88.14004516601563 9.77543830871582 87.57825469970703 9.531702041625977 87.03105163574219 9.294296264648438 C 84.74745178222656 8.303564071655273 82.94371795654297 7.521013259887695 80.48251342773438 7.480447769165039 C 80.44587707519531 7.479846954345703 80.40979766845703 7.479547500610352 80.37342834472656 7.479547500610352 M 80.37327575683594 2.479547500610352 C 80.43728637695313 2.479543685913086 80.50080108642578 2.480068206787109 80.56524658203125 2.481130599975586 C 87.44654083251953 2.59455680847168 90.62484741210938 6.820419311523438 97.12960815429688 6.820419311523438 C 97.27906799316406 6.820419311523438 97.43009185791016 6.818191528320313 97.58314514160156 6.813631057739258 C 97.62266540527344 6.81245231628418 97.66167449951172 6.811861038208008 97.69930267333984 6.811861038208008 C 104.1513366699219 6.811861038208008 82.98796844482422 23.95145416259766 55.98559951782227 24.02143096923828 C 55.9308967590332 24.02157211303711 55.87616348266602 24.02164268493652 55.82155227661133 24.02164268493652 C 28.8809814453125 24.02164268493652 13.51133728027344 6.813507080078125 18.00653839111328 6.812656402587891 C 18.02613830566406 6.812652587890625 18.04579162597656 6.812976837158203 18.06614685058594 6.813631057739258 C 18.14386749267578 6.816125869750977 18.22057342529297 6.817354202270508 18.29620361328125 6.817354202270508 C 22.79308319091797 6.817354202270508 23.70462799072266 2.481130599975586 32.48404693603516 2.481130599975586 C 41.4111328125 2.481130599975586 44.08875274658203 8.452247619628906 56.63203430175781 8.560529708862305 C 56.73844909667969 8.56144905090332 56.84548187255859 8.561908721923828 56.95072555541992 8.561908721923828 C 69.13694763183594 8.561908721923828 73.50550842285156 2.479963302612305 80.37327575683594 2.479547500610352 Z" stroke="none" fill="#fff"/></g><g transform="translate(1161.764 372.225)"><path d="M32.267-2.754C30.3-3.5,27.46-4.653,18.9-4.8S6.719-3.307,4.939-2.754,0-.114,0,3.142V29.606s.04,2.139.158,3.468S5.041,36.409,6.007,36.7a49.612,49.612,0,0,0,12.665,1.844A43.972,43.972,0,0,0,31.636,36.7c.947-.2,5.494-1.734,5.684-3.346s.2-3.751.2-3.751V3.142C37.52-.114,34.233-2.01,32.267-2.754Z" transform="translate(0.018 4.81)" fill="#303030"/><g transform="translate(0 8.132)"><path d="M37.555-.287a57.925,57.925,0,0,1-18.464,3.55C9.7,3.262,0-.281,0-.281L.012,2.6S9.7,6.178,19.091,6.178A58.135,58.135,0,0,0,37.555,2.643Z" transform="translate(0 7.226)" fill="#fff"/><path d="M37.555-.287a57.925,57.925,0,0,1-18.464,3.55C9.7,3.262,0-.281,0-.281L.012,2.6S9.7,6.178,19.091,6.178A58.135,58.135,0,0,0,37.555,2.643Z" transform="translate(0 20.526)" fill="#fff"/><path d="M2.738,0H0V10.18H2.738Z" transform="translate(28.166 0)" fill="#fff"/><rect width="3" height="14" transform="translate(15.236 11.644)" fill="#fff"/><path d="M0,0H2.738V10.1s-.587.167-1.271.342S0,10.795,0,10.795Z" transform="translate(28.166 23.481)" fill="#fff"/></g><ellipse cx="14.5" cy="3" rx="14.5" ry="3" transform="translate(4.236 3.775)" fill="#fff"/></g><g transform="translate(1118 306)" fill="none"><path d="M62.884,0A62.884,62.884,0,1,1,0,62.884,62.884,62.884,0,0,1,62.884,0Z" stroke="none"/><path d="M 62.88412475585938 8.000007629394531 C 32.62091064453125 8.000007629394531 8.000007629394531 32.62091064453125 8.000007629394531 62.88412475585938 C 8.000007629394531 93.1473388671875 32.62091064453125 117.7682418823242 62.88412475585938 117.7682418823242 C 93.1473388671875 117.7682418823242 117.7682418823242 93.1473388671875 117.7682418823242 62.88412475585938 C 117.7682418823242 32.62091064453125 93.1473388671875 8.000007629394531 62.88412475585938 8.000007629394531 M 62.88412475585938 7.62939453125e-06 C 97.61405181884766 7.62939453125e-06 125.7682418823242 28.1541748046875 125.7682418823242 62.88412475585938 C 125.7682418823242 97.61405181884766 97.61405181884766 125.7682418823242 62.88412475585938 125.7682418823242 C 28.1541748046875 125.7682418823242 7.62939453125e-06 97.61405181884766 7.62939453125e-06 62.88412475585938 C 7.62939453125e-06 28.1541748046875 28.1541748046875 7.62939453125e-06 62.88412475585938 7.62939453125e-06 Z" stroke="none" fill="#303030"/></g></g></svg>