<svg xmlns="http://www.w3.org/2000/svg" width="31.291" height="25.904" viewBox="0 0 31.291 25.904"><g transform="translate(-254.862 -337.128)"><path d="M1.233,0S3.365,2.653,8.154,3.2a28.1,28.1,0,0,0,2.931.149A13.613,13.613,0,0,0,13.173,3.2l1.8-.166c.681,0,.8.459.655.825s-1.839.371-1.839.371a19.6,19.6,0,0,1-2.291.18,18.384,18.384,0,0,1-3.49-.155A16.725,16.725,0,0,1,1.233,1.8C.552,1.8,0,1.395,0,.9S.552,0,1.233,0Z" transform="translate(269.909 348.835) rotate(-11)" fill="#fff"/><path d="M1.233,0S3.365,2.653,8.154,3.2a28.1,28.1,0,0,0,2.931.149A13.613,13.613,0,0,0,13.173,3.2l1.8-.166c.681,0,.8.459.655.825s-1.839.371-1.839.371a19.6,19.6,0,0,1-2.291.18,18.384,18.384,0,0,1-3.49-.155A16.725,16.725,0,0,1,1.233,1.8C.552,1.8,0,1.395,0,.9S.552,0,1.233,0Z" transform="translate(270.333 347.767) rotate(10)" fill="#fff"/><path d="M1.233,0S3.365,2.653,8.154,3.2a28.1,28.1,0,0,0,2.931.149A13.613,13.613,0,0,0,13.173,3.2l1.8-.166c.681,0,.8.459.655.825s-1.839.371-1.839.371a19.6,19.6,0,0,1-2.291.18,18.384,18.384,0,0,1-3.49-.155A16.725,16.725,0,0,1,1.233,1.8C.552,1.8,0,1.395,0,.9S.552,0,1.233,0Z" transform="translate(271.316 351.1) rotate(166)" fill="#fff"/><path d="M1.233,0S3.365,2.653,8.154,3.2a28.1,28.1,0,0,0,2.931.149A13.613,13.613,0,0,0,13.173,3.2l1.8-.166c.681,0,.8.459.655.825s-1.839.371-1.839.371a19.6,19.6,0,0,1-2.291.18,18.384,18.384,0,0,1-3.49-.155A16.725,16.725,0,0,1,1.233,1.8C.552,1.8,0,1.395,0,.9S.552,0,1.233,0Z" transform="matrix(-0.999, -0.052, 0.052, -0.999, 270.526, 351.673)" fill="#fff"/><path d="M.9,1.575A23.509,23.509,0,0,1,8.62,0C12.485,0,14.2.992,14.2.992s1.039.435,1.085.76-.185.615-.631.652a2.175,2.175,0,0,1-1.038-.329A14.851,14.851,0,0,0,8.95,1.33a15.632,15.632,0,0,0-3.517.221A17,17,0,0,0,.9,3.372a.9.9,0,1,1,0-1.8Z" transform="matrix(-0.574, -0.819, 0.819, -0.574, 269.201, 352.09)" fill="#fff"/><path d="M.9,1.575A23.509,23.509,0,0,1,8.62,0C12.485,0,14.2.992,14.2.992s1.039.435,1.085.76-.185.615-.631.652a2.175,2.175,0,0,1-1.038-.329A14.851,14.851,0,0,0,8.95,1.33a15.632,15.632,0,0,0-3.517.221A17,17,0,0,0,.9,3.372a.9.9,0,1,1,0-1.8Z" transform="translate(270.085 350.962) rotate(-149)" fill="#fff"/><path d="M.9,1.575A23.509,23.509,0,0,1,8.62,0C12.485,0,14.2.992,14.2.992s1.039.435,1.085.76-.185.615-.631.652a2.175,2.175,0,0,1-1.038-.329A14.851,14.851,0,0,0,8.95,1.33a15.632,15.632,0,0,0-3.517.221A17,17,0,0,0,.9,3.372a.9.9,0,1,1,0-1.8Z" transform="translate(272.043 348.067) rotate(56)" fill="#fff"/><path d="M.9,1.575A23.509,23.509,0,0,1,8.62,0C12.485,0,14.2.992,14.2.992s1.039.435,1.085.76-.185.615-.631.652a2.175,2.175,0,0,1-1.038-.329A14.851,14.851,0,0,0,8.95,1.33a15.632,15.632,0,0,0-3.517.221A17,17,0,0,0,.9,3.372a.9.9,0,1,1,0-1.8Z" transform="matrix(0.788, 0.616, -0.616, 0.788, 272.091, 348.953)" fill="#fff"/><path d="M.526,0a1.543,1.543,0,0,1,.854.446,10.529,10.529,0,0,0,2,1.5,13.882,13.882,0,0,0,3.13,1.209,12.5,12.5,0,0,0,3.6.73c1.374.111,2.247.265,2.247.265.681,0,.723.357.543.676s-.667.491-2.176.394a17.132,17.132,0,0,1-3.964-.593,13.26,13.26,0,0,1-3.852-1.5A7.163,7.163,0,0,1,.875,1.653S.1,1.009.009.6.526,0,.526,0Z" transform="translate(270.585 350.032) rotate(-41)" fill="#fff"/><path d="M.526,0a1.543,1.543,0,0,1,.854.446,10.529,10.529,0,0,0,2,1.5,13.882,13.882,0,0,0,3.13,1.209,12.5,12.5,0,0,0,3.6.73c1.374.111,2.247.265,2.247.265.681,0,.723.357.543.676s-.667.491-2.176.394a17.132,17.132,0,0,1-3.964-.593,13.26,13.26,0,0,1-3.852-1.5A7.163,7.163,0,0,1,.875,1.653S.1,1.009.009.6.526,0,.526,0Z" transform="translate(270.903 350.228) rotate(138)" fill="#fff"/><path d="M.608,0A9.058,9.058,0,0,0,2.992,1.886,13.882,13.882,0,0,0,6.122,3.1a16.263,16.263,0,0,0,3.285.768,10.943,10.943,0,0,0,2.441.172c.681,0,.786.273.762.542s-.376.451-.86.537a10.878,10.878,0,0,1-2.43-.043,12.533,12.533,0,0,1-2.944-.5,13.26,13.26,0,0,1-3.852-1.5,5.463,5.463,0,0,1-1.9-1.441c-.681,0-.62-.342-.62-.838S-.073,0,.608,0Z" transform="matrix(0.53, -0.848, 0.848, 0.53, 269.256, 350.079)" fill="#fff"/><path d="M.608,0A9.058,9.058,0,0,0,2.992,1.886,13.882,13.882,0,0,0,6.122,3.1a16.263,16.263,0,0,0,3.285.768,10.943,10.943,0,0,0,2.441.172c.681,0,.786.273.762.542s-.376.451-.86.537a10.878,10.878,0,0,1-2.43-.043,12.533,12.533,0,0,1-2.944-.5,13.26,13.26,0,0,1-3.852-1.5,5.463,5.463,0,0,1-1.9-1.441c-.681,0-.62-.342-.62-.838S-.073,0,.608,0Z" transform="matrix(-0.545, 0.839, -0.839, -0.545, 272.313, 350.076)" fill="#fff"/><path d="M1.187.037A9.49,9.49,0,0,1,2.711.02c.95.055,2.415.089,3.824.089,2.506,0,3.726-.056,3.726-.056.681,0,1.317.165,1.317.662s-.711.679-1.392.679c0,0-1.142-.1-3.648-.1-1.281,0-2.757-.044-3.887.019-.869.048-1.433.048-1.433.048C.539,1.361,0,1.112,0,.616S.506.037,1.187.037Z" transform="matrix(0.438, -0.899, 0.899, 0.438, 270.343, 349.739)" fill="#fff"/><path d="M1.187.037A9.49,9.49,0,0,1,2.711.02c.95.055,2.415.089,3.824.089,2.506,0,3.726-.056,3.726-.056.681,0,1.317.165,1.317.662s-.711.679-1.392.679c0,0-1.142-.1-3.648-.1-1.281,0-2.757-.044-3.887.019-.869.048-1.433.048-1.433.048C.539,1.361,0,1.112,0,.616S.506.037,1.187.037Z" transform="translate(271.22 350.397) rotate(117)" fill="#fff"/><path d="M1.233,1.291A21.415,21.415,0,0,1,7.912,0a14.964,14.964,0,0,1,3.619.175c1.348.149,1.455.281,1.734.51s.347.586-.229.814-.791.009-2.132-.092a22.943,22.943,0,0,0-3.324-.133A14.011,14.011,0,0,0,1.233,3.088c-.681,0-1.233-.4-1.233-.9S.552,1.291,1.233,1.291Z" transform="translate(267.95 350.919) rotate(-99)" fill="#fff"/><path d="M1.233,1.291A21.415,21.415,0,0,1,7.912,0a14.964,14.964,0,0,1,3.619.175c1.348.149,1.455.281,1.734.51s.347.586-.229.814-.791.009-2.132-.092a22.943,22.943,0,0,0-3.324-.133A14.011,14.011,0,0,0,1.233,3.088c-.681,0-1.233-.4-1.233-.9S.552,1.291,1.233,1.291Z" transform="translate(273.633 349.259) rotate(82)" fill="#fff"/><path d="M1.233,1.291A21.415,21.415,0,0,1,7.912,0a14.964,14.964,0,0,1,3.619.175c1.348.149,1.455.281,1.734.51s.347.586-.229.814-.791.009-2.132-.092a22.943,22.943,0,0,0-3.324-.133A14.011,14.011,0,0,0,1.233,3.088c-.681,0-1.233-.4-1.233-.9S.552,1.291,1.233,1.291Z" transform="matrix(0.208, -0.978, 0.978, 0.208, 268.386, 351.011)" fill="#fff"/><path d="M1.233,1.291A21.415,21.415,0,0,1,7.912,0a14.964,14.964,0,0,1,3.619.175c1.348.149,1.455.281,1.734.51s.347.586-.229.814-.791.009-2.132-.092a22.943,22.943,0,0,0-3.324-.133A14.011,14.011,0,0,0,1.233,3.088c-.681,0-1.233-.4-1.233-.9S.552,1.291,1.233,1.291Z" transform="translate(273.199 349.159) rotate(103)" fill="#fff"/></g></svg>