<svg xmlns="http://www.w3.org/2000/svg" width="2283.643" height="648.155" viewBox="0 0 2283.643 648.155"><g transform="translate(90.844 -437.955)"><g transform="translate(82 -378)" opacity="0.8"><g transform="translate(1197.007 816.238)"><path d="M311.107,3.3c17.511-6.64,51.413-26.089,104.64,0s34.88,58.861,34.88,85.107c0,1.031,10.989-14.957,34.753-21.949,16.25-4.786,43.533-2.836,58.725,5.206,24.62,13.034,30.694,16.742,41.856,41.856s-9.719,43.966,6.976,50.227c54.2,20.328,33.711,446.409,31.963,450.685-9.336,22.862-139.52,22.715-139.52,22.715h-291.6c-12.528,0-46.617-.336-88.992,0-61.612.488-141.047,1.545-190.048,0-19.944-.629,22.988-388.6,54.539-400.85,14.379-5.582,27.877-16.353,38.531-18.818,32.09-7.423,46.576,6.261,46.576,6.261a38.023,38.023,0,0,1,15.966-18.291c12.088-7.113,32.387-10.161,32.387-10.161s-.917-25.961,29.778-31.542,44,15.254,43.1,13.541c-6.322-12-13.09-37.842-12.128-50.631s3.909-41.041,47.16-54.993,66.97,16.742,66.97,16.742-.146-9.638,0-32.09C277.689,45.454,293.6,9.941,311.107,3.3Z" transform="translate(80.192 9.915)" fill="#fff"/><path d="M150.811-2.163c10.138-4.665,30.351-15.551,61.774,0s20.591,35.085,20.591,50.73c0,.583,8.927-8.991,22.439-13.363,9.661-3.135,23.168-1.736,32.745,3.384,14.534,7.769,18.12,9.98,24.71,24.949s-5.737,26.207,4.118,29.939c32,12.117,29.86,411.58,28.828,414.129-5.511,13.627-82.366,13.54-82.366,13.54H91.508c-18.536,0-116.6,1.532-164.731,0C-85,520.769-69.611,144.019-50.984,136.72c8.488-3.327,15.949-12.669,22.239-14.138,18.944-4.424,28,6.653,28,6.653S3.605,116.2,21.5,109.276c9.071-3.51,5.766-12.474,23.886-15.8s25.975,9.092,25.443,8.071A52.119,52.119,0,0,1,64.921,77.5c0-17.639,1.054-30.6,26.588-38.917s39.535,9.98,39.535,9.98-.086-5.745,0-19.128C131.083,22.963,140.673,2.5,150.811-2.163Z" transform="translate(555.304 116.543)" fill="#fff"/></g><g transform="translate(-167.113 815.955)"><path d="M246.564,3.3c-17.511-6.64-51.413-26.089-104.64,0s-34.88,58.861-34.88,85.107c0,1.031-10.989-14.957-34.753-21.949-16.25-4.786-43.533-2.836-58.725,5.206C-11.054,84.7-17.129,88.409-28.291,113.522s9.719,43.966-6.976,50.227C-89.469,184.078-85.846,608.1-84.1,612.373c9.336,22.862,139.52,22.715,139.52,22.715h291.6c12.528,0,46.617-.336,88.992,0,61.612.488,141.047,1.545,190.048,0,19.944-.629-6.118-386.543-37.67-398.788-14.379-5.582-27.878-16.353-38.531-18.818-32.09-7.423-46.576,6.261-46.576,6.261a38.023,38.023,0,0,0-15.966-18.291c-12.088-7.113-32.387-10.161-32.387-10.161s.917-25.961-29.778-31.542-44,15.254-43.1,13.541a86.766,86.766,0,0,0,10-40.335c0-29.592-1.786-51.337-45.037-65.289s-66.97,16.742-66.97,16.742.146-9.638,0-32.09C279.982,45.454,264.074,9.941,246.564,3.3Z" transform="translate(261.153 9.915)" fill="#fff"/><path d="M112.708-2.163c-10.138-4.665-30.351-15.551-61.774,0S30.343,32.922,30.343,48.567c0,.583-8.927-8.991-22.439-13.363-9.661-3.135-23.168-1.736-32.745,3.384-14.534,7.769-18.12,9.98-24.71,24.949s5.737,26.207-4.118,29.939c-32,12.117-33.051,418.9-32.019,421.445,5.511,13.627,82.366,13.54,82.366,13.54H168.82c18.536,0,116.6,1.532,164.731,0,11.774-.375-.421-384.441-19.047-391.74-8.488-3.327-15.949-12.669-22.239-14.138-18.944-4.424-28,6.653-28,6.653s-4.347-13.037-22.239-19.959c-9.071-3.51-5.766-12.474-23.886-15.8s-25.975,9.092-25.443,8.071A52.119,52.119,0,0,0,198.6,77.5c0-17.639-1.054-30.6-26.588-38.917s-39.535,9.98-39.535,9.98.086-5.745,0-19.128C132.436,22.963,122.846,2.5,112.708-2.163Z" transform="translate(80.192 116.543)" fill="#fff"/></g><g transform="translate(983.542 948.034)"><path d="M100.932-3.306c-10.087-4.331-35.556-13.625-57.9,0s-19.35,29.43-19.35,42.554c0,.515-6.1-7.478-19.28-10.974-9.015-2.393-24.151-1.418-32.579,2.6C-41.836,37.393-45.206,39.247-51.4,51.8s5.392,21.983-3.87,25.114c-30.07,10.164-28.06,407.907-27.091,410.045,5.179,11.431,77.4,11.358,77.4,11.358H156.812c6.95,0,25.862-.168,49.37,0,34.18.244,78.249.772,105.433,0,11.064-.314-3.394-379.005-20.9-385.128-7.977-2.791-15.466-8.177-21.376-9.409-17.8-3.711-25.839,3.13-25.839,3.13a19.517,19.517,0,0,0-8.857-9.146c-6.706-3.556-17.968-5.08-17.968-5.08s.509-12.98-16.52-15.771-24.41,7.627-23.91,6.77A40.01,40.01,0,0,0,181.8,63.52c0-14.8-.991-25.668-24.985-32.644s-37.153,8.371-37.153,8.371.081-4.819,0-16.045C119.622,17.77,111.019,1.025,100.932-3.306Z" transform="translate(180.584 9.914)" fill="#fff"/><path d="M26.823-6.2C21.2-8.53,9.985-13.973-7.447-6.2S-18.871,11.345-18.871,19.168c0,.292-4.952-4.5-12.449-6.682a27.738,27.738,0,0,0-18.166,1.692c-8.063,3.885-10.053,4.99-13.708,12.474s3.183,13.1-2.285,14.969C-83.23,47.68-82.044,441.492-81.471,442.766c3.058,6.814,45.694,6.77,45.694,6.77h95.5c10.283,0,64.685.766,91.388,0,6.532-.187-2-382.643-12.337-386.292-4.709-1.664-8.848-6.334-12.337-7.069C115.927,53.963,110.9,59.5,110.9,59.5s-2.411-6.518-12.337-9.98c-5.032-1.755-3.2-6.237-13.251-7.9S70.9,46.168,71.2,45.657a24.024,24.024,0,0,0,3.277-12.021c0-8.819-.585-15.3-14.75-19.458s-21.933,4.99-21.933,4.99.048-2.873,0-9.564C37.768,6.366,32.448-3.865,26.823-6.2Z" transform="translate(80.192 63.387)" fill="#fff"/></g><g transform="translate(731.887 966.425)"><path d="M53.842-4.227c-7.183-2.858-21.089-11.228-42.923,0S-3.388,21.106-3.388,32.4c0,.444-4.508-6.437-14.256-9.446C-24.31,20.9-35.5,21.735-41.733,25.2-51.832,30.805-54.324,32.4-58.9,43.21s3.987,18.922-2.862,21.617C-84,73.575-99.681,470.657-98.964,472.5c3.829,9.839,57.231,9.776,57.231,9.776H77.879c5.139,0,19.122-.144,36.5,0,25.273.21,57.857.665,77.957,0C200.522,482,207,101.32,194.058,96.05c-5.9-2.4-11.435-7.038-15.805-8.1-13.163-3.195-19.105,2.695-19.105,2.695a16.246,16.246,0,0,0-6.549-7.872c-4.959-3.061-13.285-4.373-13.285-4.373s.376-11.173-12.215-13.575-18.049,6.565-17.679,5.828a38.818,38.818,0,0,0,4.1-17.359c0-12.736-.732-22.094-18.474-28.1S67.578,32.4,67.578,32.4s.06-4.148,0-13.811C67.55,13.915,61.025-1.369,53.842-4.227Z" transform="translate(154.422 9.915)" fill="#fff"/><path d="M-1.065-6.759c-4.159-2.008-12.45-6.693-25.34,0s-8.446,15.1-8.446,21.833c0,.251-3.662-3.869-9.2-5.751a17.867,17.867,0,0,0-13.432,1.456c-5.962,3.344-7.433,4.295-10.136,10.737S-65.27,32.8-69.313,34.4c-13.126,5.215-10.9,16.083-10.474,17.18C-77.526,57.446-46,57.408-46,57.408H24.613c7.6,0,47.828.659,67.572,0,4.83-.161-2.833-1.254-10.474-4.4-3.482-1.432-6.542-5.452-9.122-6.085-7.771-1.9-11.487,2.863-11.487,2.863s-1.783-5.611-9.122-8.59c-3.721-1.51-2.365-5.369-9.8-6.8s-10.655,3.913-10.437,3.474a23.321,23.321,0,0,0,2.423-10.347c0-7.591-.432-13.17-10.906-16.749S7.044,15.074,7.044,15.074s.035-2.473,0-8.232C7.028,4.055,3.094-4.751-1.065-6.759Z" transform="translate(80.192 55.986)" fill="#fff"/></g><g transform="translate(492.09 948.034)"><path d="M98.547-3.306c-12.54-6.2-34.217-14-57.239,0s-19.08,29.43-19.08,42.554c0,.515-6.011-7.478-19.01-10.974-8.889-2.393-23.813-1.418-32.123,2.6C-42.373,37.393-45.7,39.247-51.8,51.8s5.316,21.983-3.816,25.114c-29.65,10.164-27.668,412.6-26.712,414.734,5.107,11.431,76.319,11.358,76.319,11.358H153.5c6.853,0,25.5-.168,48.68,0,33.7.244,77.154.772,103.958,0,10.91-.314-3.347-383.694-20.606-389.816-7.865-2.791-15.249-8.177-21.077-9.409-17.553-3.711-25.478,3.13-25.478,3.13a19.431,19.431,0,0,0-8.734-9.146c-6.612-3.556-17.716-5.08-17.716-5.08s.5-12.98-16.289-15.771-24.068,7.627-23.575,6.77a40.441,40.441,0,0,0,5.473-20.168c0-14.8-.977-25.668-24.636-32.644s-36.633,8.371-36.633,8.371.08-4.819,0-16.045C116.827,17.77,111.087,2.892,98.547-3.306Z" transform="translate(179.18 9.914)" fill="#fff"/><path d="M25.326-6.2c-5.546-2.333-16.6-7.775-33.791,0S-19.728,11.345-19.728,19.168c0,.292-4.883-4.5-12.275-6.682a27,27,0,0,0-17.912,1.692c-7.95,3.885-9.912,4.99-13.516,12.474s3.138,13.1-2.253,14.969C-83.188,47.68-95.534,436.8-94.97,438.078c3.015,6.814,45.055,6.77,45.055,6.77H44.25c10.139,0,63.781.766,90.11,0,6.44-.187,11.541-377.954,1.352-381.6-4.643-1.664-8.724-6.334-12.165-7.069-10.363-2.212-15.319,3.327-15.319,3.327s-2.378-6.518-12.165-9.98C91.1,47.767,92.909,43.285,83,41.622s-14.209,4.546-13.918,4.036A24.284,24.284,0,0,0,72.31,33.636c0-8.819-.577-15.3-14.544-19.458s-21.626,4.99-21.626,4.99.047-2.873,0-9.564C36.118,6.366,30.872-3.865,25.326-6.2Z" transform="translate(80.192 63.387)" fill="#fff"/></g></g><g transform="translate(-73.113 516.955)" opacity="0.8"><g transform="translate(0 0.283)"><path d="M246.563,3.3c-17.511-6.64-51.413-26.089-104.64,0s-34.88,58.861-34.88,85.107c0,1.031-10.989-14.957-34.753-21.949-16.25-4.786-43.533-2.836-58.725,5.206C-11.054,84.7-17.129,88.409-28.291,113.522s9.719,43.966-6.976,50.227C-89.47,184.078-83.2,530.491-81.45,534.767c9.336,22.862,139.52,22.715,139.52,22.715h291.6c12.528,0,46.617-.336,88.992,0,61.612.488,141.047,1.545,190.048,0,19.944-.629-8.767-308.937-40.319-321.182-14.379-5.582-27.878-16.353-38.531-18.818-32.09-7.423-46.576,6.261-46.576,6.261a38.023,38.023,0,0,0-15.966-18.291c-12.088-7.113-32.387-10.161-32.387-10.161s.917-25.961-29.778-31.542-44,15.253-43.1,13.541c6.322-12,13.09-37.842,12.128-50.631s-3.909-41.041-47.16-54.993-66.97,16.742-66.97,16.742.146-9.638,0-32.09C279.982,45.454,264.074,9.941,246.563,3.3Z" transform="translate(261.153 9.915)" fill="#fff"/><path d="M112.708-2.163c-10.138-4.665-30.351-15.551-61.774,0S30.343,32.922,30.343,48.567c0,.583-8.927-8.991-22.439-13.363-9.661-3.135-23.168-1.736-32.745,3.384-14.534,7.769-18.12,9.98-24.71,24.949s5.737,26.207-4.118,29.939c-32,12.117-29.86,337.129-28.828,339.677,5.511,13.627,82.366,13.54,82.366,13.54H172.011c18.536,0,116.6,1.532,164.731,0,11.774-.375-3.612-302.674-22.239-309.972.226-.653-9.678-12.267-22.239-14.138s-28,6.653-28,6.653,3.958-25.393-13.934-32.315c-9.071-3.51-17.782-4.6-32.191-3.445s-25.975,9.092-25.443,8.071A52.119,52.119,0,0,0,198.6,77.5c0-17.639-1.054-30.6-26.588-38.917s-39.535,9.98-39.535,9.98.086-5.745,0-19.128C132.436,22.963,122.846,2.5,112.708-2.163Z" transform="translate(80.192 116.543)" fill="#fff"/></g><g transform="translate(1364.12 0)"><path d="M311.107,3.3c17.511-6.64,51.413-26.089,104.64,0s34.88,58.861,34.88,85.107c0,1.031,10.989-14.957,34.753-21.949,16.25-4.786,43.533-2.836,58.725,5.206,24.62,13.034,30.694,16.742,41.856,41.856s-9.719,43.966,6.976,50.227c54.2,20.328,44.859,365.637,43.111,369.913-9.336,22.862-139.52,22.715-139.52,22.715h-291.6c-12.528,0-46.617-.336-88.992,0-61.612.488-141.047,1.545-190.048,0-19.944-.629,11.839-307.833,43.391-320.078,14.379-5.582,27.878-16.353,38.531-18.818,32.09-7.423,46.576,6.261,46.576,6.261a38.023,38.023,0,0,1,15.966-18.291c12.088-7.113,32.387-10.161,32.387-10.161s-.917-25.961,29.778-31.542,44,15.253,43.1,13.541a86.767,86.767,0,0,1-10-40.335c0-29.592,1.786-51.337,45.037-65.289s66.97,16.742,66.97,16.742-.146-9.638,0-32.09C277.689,45.454,293.6,9.941,311.107,3.3Z" transform="translate(80.192 9.915)" fill="#fff"/><path d="M150.811-2.163c10.138-4.665,30.351-15.551,61.774,0s20.591,35.085,20.591,50.73c0,.583,8.927-8.991,22.439-13.363,9.661-3.135,23.168-1.736,32.745,3.384,14.534,7.769,18.12,9.98,24.71,24.949s-5.737,26.207,4.118,29.939c32,12.117,29.86,338.8,28.828,341.348-5.511,13.627-82.366,13.54-82.366,13.54H91.508c-18.536,0-116.6,1.532-164.731,0C-85,447.988-69.611,144.019-50.984,136.72c8.488-3.327,15.949-12.669,22.239-14.138,18.944-4.424,28,6.653,28,6.653S3.605,116.2,21.5,109.276c9.071-3.51,5.766-12.474,23.886-15.8s25.975,9.092,25.443,8.071A52.119,52.119,0,0,1,64.92,77.5c0-17.639,1.054-30.6,26.587-38.917s39.535,9.98,39.535,9.98-.086-5.745,0-19.128C131.083,22.963,140.673,2.5,150.811-2.163Z" transform="translate(555.304 116.543)" fill="#fff"/></g><g transform="translate(613.733 132.079)"><path d="M136.889-3.307c9.714-3.32,28.522-13.044,58.051,0s19.35,29.43,19.35,42.554c0,.515,6.1-7.478,19.28-10.974,9.015-2.393,24.151-1.418,32.579,2.6,13.658,6.517,17.028,8.371,23.22,20.928s-5.392,21.983,3.87,25.114c30.07,10.164,33.274,332.5,32.3,334.637-5.179,11.431-77.4,11.358-77.4,11.358H86.374c-6.95,0-25.862-.168-49.37,0-34.18.244-78.249.772-105.433,0-11.064-.314-1.82-303.6,15.685-309.719,7.977-2.791,15.466-8.177,21.376-9.409,17.8-3.711,25.839,3.13,25.839,3.13a19.517,19.517,0,0,1,8.857-9.146c6.706-3.556,17.968-5.08,17.968-5.08s-.509-12.98,16.52-15.771,24.41,7.627,23.91,6.77a40.01,40.01,0,0,1-5.55-20.168c0-14.8.991-25.668,24.985-32.644s37.153,8.371,37.153,8.371-.081-4.819,0-16.045C118.35,17.77,127.175.013,136.889-3.307Z" transform="translate(80.192 9.915)" fill="#fff"/><path d="M47.962-6.2c5.624-2.333,16.838-7.775,34.271,0S93.656,11.345,93.656,19.168c0,.292,4.952-4.5,12.449-6.682a27.738,27.738,0,0,1,18.166,1.692c8.063,3.885,10.053,4.99,13.708,12.474s-3.183,13.1,2.285,14.969c17.752,6.059,12.107,319.773,11.535,321.047-3.058,6.814-45.694,6.77-45.694,6.77H10.6c-10.283,0-64.685.766-91.388,0-6.532-.187,6.462-302.545,16.8-306.195,4.709-1.664,8.848-6.334,12.337-7.069,10.51-2.212,15.536,3.327,15.536,3.327s2.411-6.518,12.337-9.98c5.032-1.755,3.2-6.237,13.251-7.9s14.41,4.546,14.115,4.036A24.024,24.024,0,0,1,.312,33.636c0-8.819.585-15.3,14.75-19.458S37,19.168,37,19.168s-.048-2.873,0-9.564C37.017,6.366,42.338-3.865,47.962-6.2Z" transform="translate(343.771 63.387)" fill="#fff"/></g><g transform="translate(995.361 150.471)"><path d="M80.318-4.227c7.183-2.858,21.089-11.228,42.923,0S137.549,21.106,137.549,32.4c0,.444,4.508-6.437,14.256-9.446,6.666-2.06,17.857-1.221,24.089,2.241,10.1,5.61,12.591,7.206,17.169,18.014s-3.987,18.922,2.862,21.617c22.234,8.749,26.783,328.077,26.066,329.918-3.829,9.839-57.231,9.776-57.231,9.776H45.147c-5.139,0-19.122-.144-36.5,0-25.273.21-57.857.665-77.957,0C-77.5,404.25-72.84,101.32-59.9,96.05c5.9-2.4,11.435-7.038,15.805-8.1,13.163-3.195,19.105,2.695,19.105,2.695a16.246,16.246,0,0,1,6.549-7.872C-13.479,79.713-5.152,78.4-5.152,78.4S-5.528,67.228,7.063,64.826s18.049,6.565,17.679,5.828a38.818,38.818,0,0,1-4.1-17.359c0-12.736.732-22.094,18.474-28.1S66.582,32.4,66.582,32.4s-.06-4.148,0-13.811C66.61,13.915,73.135-1.369,80.318-4.227Z" transform="translate(80.192 9.915)" fill="#fff"/><path d="M14.565-6.759c4.159-2.008,12.45-6.693,25.34,0s8.446,15.1,8.446,21.833c0,.251,3.662-3.869,9.2-5.751a17.867,17.867,0,0,1,13.432,1.456c5.962,3.344,7.433,4.295,10.136,10.737S78.77,32.8,82.813,34.4c13.126,5.215,10.9,16.083,10.474,17.18C91.026,57.446,59.5,57.408,59.5,57.408H-11.113c-7.6,0-47.828.659-67.572,0-4.83-.161,2.833-1.254,10.474-4.4,3.482-1.432,6.542-5.452,9.122-6.085,7.771-1.9,11.487,2.863,11.487,2.863s1.783-5.611,9.122-8.59c3.721-1.51,2.365-5.369,9.8-6.8s10.655,3.913,10.437,3.474a23.321,23.321,0,0,1-2.423-10.347c0-7.591.432-13.17,10.906-16.749S6.456,15.074,6.456,15.074s-.035-2.473,0-8.232C6.472,4.055,10.406-4.751,14.565-6.759Z" transform="translate(275.082 55.986)" fill="#fff"/></g><g transform="translate(1112.161 132.079)"><path d="M133.853-3.307c9.579-3.32,28.123-13.044,57.239,0s19.08,29.43,19.08,42.554c0,.515,6.011-7.478,19.01-10.974,8.889-2.393,23.813-1.418,32.123,2.6,13.467,6.517,16.79,8.371,22.9,20.928s-5.316,21.983,3.816,25.114c29.65,10.164,18.44,333.886,17.484,336.024-5.107,11.431-76.319,11.358-76.319,11.358H69.676c-6.853,0-25.5-.168-48.68,0-33.7.244-77.339.772-104.143,0-10.91-.314,12.759-304.984,30.018-311.106,7.865-2.791,15.249-8.177,21.077-9.409,17.553-3.711,25.478,3.13,25.478,3.13A19.431,19.431,0,0,1,2.16,97.769c6.612-3.556,17.716-5.08,17.716-5.08s-.5-12.98,16.289-15.771,24.068,7.627,23.575,6.77A40.441,40.441,0,0,1,54.267,63.52c0-14.8.977-25.668,24.636-32.644s36.633,8.371,36.633,8.371-.08-4.819,0-16.045C115.573,17.77,124.274.013,133.853-3.307Z" transform="translate(80.192 9.915)" fill="#fff"/><path d="M46.169-6.2c5.546-2.333,16.6-7.775,33.791,0S91.224,11.345,91.224,19.168c0,.292,4.883-4.5,12.275-6.682a27,27,0,0,1,17.912,1.692c7.95,3.885,9.912,4.99,13.516,12.474s-3.138,13.1,2.253,14.969c17.5,6.059,11.938,318.386,11.373,319.66-3.015,6.814-45.055,6.77-45.055,6.77H9.334c-10.139,0-63.781.766-90.11,0-6.44-.187,6.371-301.158,16.56-304.808,4.643-1.664,8.724-6.334,12.165-7.069C-41.688,53.963-36.732,59.5-36.732,59.5s2.378-6.518,12.165-9.98c4.962-1.755,3.154-6.237,13.066-7.9S2.708,46.168,2.417,45.657A24.284,24.284,0,0,1-.814,33.636c0-8.819.577-15.3,14.544-19.458s21.626,4.99,21.626,4.99-.047-2.873,0-9.564C35.378,6.366,40.623-3.865,46.169-6.2Z" transform="translate(340.084 63.387)" fill="#fff"/></g></g></g></svg>