<svg xmlns="http://www.w3.org/2000/svg" width="71.636" height="84.015" viewBox="0 0 71.636 84.015"><g transform="translate(-400.351 -289.127)"><path d="M2.5,5s2.741.106,10.124.136c2.557.01,9.121.418,12.083.418,10.25,0,19.067-.975,19.067-.975,1.381,0,1.833-1.167,1.833-2.547S44.881,0,43.5,0A99.765,99.765,0,0,1,23.345,2.344c-3.649,0-5.643-.239-9.287-.523A87.017,87.017,0,0,1,2.5,0a2.5,2.5,0,0,0,0,5Z" transform="matrix(-0.391, 0.921, -0.921, -0.391, 433.155, 322.773)" fill="#303030"/><path d="M3.429,0S9.36,7.38,22.684,8.9a78.183,78.183,0,0,0,8.154.414A37.87,37.87,0,0,0,36.645,8.9l5.017-.463c1.894,0,2.226,1.278,1.821,2.295s-5.116,1.032-5.116,1.032a54.511,54.511,0,0,1-6.374.5,51.142,51.142,0,0,1-9.709-.432C12.715,11.1,3.429,5,3.429,5,1.535,5,0,3.881,0,2.5S1.535,0,3.429,0Z" transform="matrix(0.966, -0.259, 0.259, 0.966, 426.645, 323.278)" fill="#fffc33"/><path d="M2.5,0S13.23-4.382,23.981-4.382,39.505-1.621,39.505-1.621,42.4-.41,42.524.493,42.009,2.2,40.769,2.307a6.05,6.05,0,0,1-2.888-.915A41.314,41.314,0,0,0,24.9-.681a43.486,43.486,0,0,0-9.783.616A47.3,47.3,0,0,0,2.5,5a2.5,2.5,0,0,1,0-5Z" transform="matrix(-0.574, -0.819, 0.819, -0.574, 428.34, 328.237)" fill="#fffc33"/><path d="M2.46.4a4.293,4.293,0,0,1,2.377,1.24A29.289,29.289,0,0,0,10.41,5.807c2.34,1.36,3.918,1.838,8.707,3.363A34.786,34.786,0,0,0,29.143,11.2c3.823.308,6.251.736,6.251.736,1.894,0,2.012.994,1.511,1.881s-1.855,1.366-6.054,1.1a47.659,47.659,0,0,1-11.028-1.651A36.888,36.888,0,0,1,9.107,9.09,19.927,19.927,0,0,1,3.429,5S1.261,3.208,1.019,2.059,2.46.4,2.46.4Z" transform="translate(427.587 325.376) rotate(-41)" fill="#fffc33"/><path d="M3.777.56A25.2,25.2,0,0,0,10.41,5.807c2.34,1.36,3.918,1.838,8.707,3.363a45.243,45.243,0,0,0,9.138,2.137,30.442,30.442,0,0,0,6.791.477c1.894,0,2.187.76,2.121,1.507s-1.045,1.256-2.393,1.5a30.26,30.26,0,0,1-6.76-.121c-3.738-.381-2.274-.005-8.191-1.4A36.888,36.888,0,0,1,9.107,9.09,15.2,15.2,0,0,1,3.817,5.081c-1.894,0-1.725-.951-1.725-2.331S1.883.56,3.777.56Z" transform="matrix(0.53, -0.848, 0.848, 0.53, 423.325, 326.628)" fill="#fffc33"/><path d="M1.759,1A26.4,26.4,0,0,1,6,.956c2.642.154,6.72.247,10.638.247C23.609,1.2,27,1.046,27,1.046c1.894,0,3.665.46,3.665,1.841S28.689,4.775,26.8,4.775c0,0-3.176-.273-10.148-.273-3.563,0-7.669-.121-10.812.052-2.417.133-3.986.132-3.986.132-1.894,0-3.393-.692-3.393-2.072S-.135,1,1.759,1Z" transform="matrix(0.438, -0.899, 0.899, 0.438, 427.795, 322.428)" fill="#fffc33"/><path d="M3.429,0S12.752-3.591,22.01-3.591s6.318.071,10.068.487,4.048.782,4.824,1.419S37.867-.054,36.266.58s-2.2.026-5.93-.256a63.825,63.825,0,0,0-9.247-.371C11.831-.048,3.429,5,3.429,5,1.535,5,0,3.881,0,2.5S1.535,0,3.429,0Z" transform="translate(424.819 326.932) rotate(-99)" fill="#fffc33"/><path d="M3.429,0S12.752-3.591,22.01-3.591s6.318.071,10.068.487,4.048.782,4.824,1.419S37.867-.054,36.266.58s-2.2.026-5.93-.256a63.825,63.825,0,0,0-9.247-.371C11.831-.048,3.429,5,3.429,5,1.535,5,0,3.881,0,2.5S1.535,0,3.429,0Z" transform="matrix(0.208, -0.978, 0.978, 0.208, 425.997, 328.496)" fill="#fffc33"/><path d="M5.916,3.824c2.375,0,6.58,2.429,6.58.054S7.985,0,5.61,0-.9,2.519-.9,4.894,3.541,3.824,5.916,3.824Z" transform="translate(432.139 331.761) rotate(-152)" fill="#303030"/><path d="M4.291,13.679c1.859,0,3.368-2.045,3.837-4.308A11.853,11.853,0,0,0,7.7,5.979S5.976.086,4.163,0,.448,5.626.448,5.626A10.414,10.414,0,0,0,.137,9.934C.565,11.6,2.5,13.679,4.291,13.679Z" transform="translate(415.397 373.142) rotate(-167)" fill="#303030"/></g></svg>