<svg xmlns="http://www.w3.org/2000/svg" width="72.099" height="82.544" viewBox="0 0 72.099 82.544"><g transform="translate(-422.42 -369.853) rotate(20)"><rect width="46" height="6.858" rx="3.429" transform="translate(567.822 228.76) rotate(90)" fill="#303030"/><path d="M3.429,0H43.661a3.429,3.429,0,0,1,0,6.858H3.429A3.429,3.429,0,0,1,3.429,0Z" transform="matrix(0.819, -0.574, 0.574, 0.819, 559.97, 230.807)" fill="#fffc33"/><rect width="48.004" height="6.858" rx="3.429" transform="matrix(-0.819, -0.574, 0.574, -0.819, 564.883, 236.425)" fill="#fffc33"/><path d="M3.429,0H39.546a3.429,3.429,0,0,1,0,6.858H3.429A3.429,3.429,0,0,1,3.429,0Z" transform="translate(561.209 232.913) rotate(-65)" fill="#fffc33"/><path d="M3.429,0H31.317a3.429,3.429,0,0,1,0,6.858H3.429A3.429,3.429,0,0,1,3.429,0Z" transform="translate(561.193 226.246) rotate(-90)" fill="#fffc33"/><path d="M3.429,0H40.461a3.429,3.429,0,0,1,0,6.858H3.429A3.429,3.429,0,0,1,3.429,0Z" transform="translate(561.819 236.269) rotate(-115)" fill="#fffc33"/><circle cx="4.8" cy="4.8" r="4.8" transform="translate(559.135 221.446)" fill="#303030"/></g></svg>