<svg xmlns="http://www.w3.org/2000/svg" width="48.792" height="49.329" viewBox="0 0 48.792 49.329"><g transform="translate(-643.972 -785.799) rotate(30)"><g transform="translate(981.707 342)" fill="#fff" stroke="#303030" stroke-width="1"><rect width="5.586" height="24.827" rx="2.793" stroke="none"/><rect x="0.5" y="0.5" width="4.586" height="23.827" rx="2.293" fill="none"/></g><g transform="translate(981.707 367.173)" fill="#fff" stroke="#303030" stroke-width="1"><rect width="5.586" height="24.827" rx="2.793" stroke="none"/><rect x="0.5" y="0.5" width="4.586" height="23.827" rx="2.293" fill="none"/></g><g transform="translate(984.327 364.207) rotate(90)" fill="#fff" stroke="#303030" stroke-width="1"><rect width="5.586" height="24.827" rx="2.793" stroke="none"/><rect x="0.5" y="0.5" width="4.586" height="23.827" rx="2.293" fill="none"/></g><g transform="translate(1009.5 364.207) rotate(90)" fill="#fff" stroke="#303030" stroke-width="1"><rect width="5.586" height="24.827" rx="2.793" stroke="none"/><rect x="0.5" y="0.5" width="4.586" height="23.827" rx="2.293" fill="none"/></g><g transform="translate(999.544 348.626) rotate(45)" fill="#fff" stroke="#303030" stroke-width="1"><rect width="5.586" height="24.827" rx="2.793" stroke="none"/><rect x="0.5" y="0.5" width="4.586" height="23.827" rx="2.293" fill="none"/></g><g transform="translate(986.39 365.561) rotate(135)" fill="#fff" stroke="#303030" stroke-width="1"><rect width="5.586" height="24.827" rx="2.793" stroke="none"/><rect x="0.5" y="0.5" width="4.586" height="23.827" rx="2.293" fill="none"/></g><g transform="translate(1003.494 383.286) rotate(135)" fill="#fff" stroke="#303030" stroke-width="1"><rect width="5.586" height="24.827" rx="2.793" stroke="none"/><rect x="0.5" y="0.5" width="4.586" height="23.827" rx="2.293" fill="none"/></g><g transform="translate(982.44 365.73) rotate(45)" fill="#fff" stroke="#303030" stroke-width="1"><rect width="5.586" height="24.827" rx="2.793" stroke="none"/><rect x="0.5" y="0.5" width="4.586" height="23.827" rx="2.293" fill="none"/></g><g transform="translate(967.003 349.813)" fill="#fff" stroke="#303030" stroke-width="1"><ellipse cx="17.187" cy="17.187" rx="17.187" ry="17.187" stroke="none"/><ellipse cx="17.187" cy="17.187" rx="16.687" ry="16.687" fill="none"/></g></g></svg>